<svg width="457" height="277" viewBox="0 0 457 277" fill="none" xmlns="http://www.w3.org/2000/svg">
<rect width="457" height="277" fill="#1D373F"/>
<path d="M115.901 171.48C110.973 171.48 106.557 170.328 102.653 168.024C98.749 165.656 95.645 162.456 93.341 158.424C91.101 154.392 89.981 149.848 89.981 144.792C89.981 139.672 91.133 135.096 93.437 131.064C95.805 127.032 99.005 123.864 103.037 121.56C107.069 119.192 111.613 118.008 116.669 118.008C121.725 118.008 126.237 119.192 130.205 121.56C134.237 123.864 137.405 127.032 139.709 131.064C142.077 135.096 143.293 139.672 143.357 144.792L140.381 147.096C140.381 151.704 139.293 155.864 137.117 159.576C135.005 163.224 132.093 166.136 128.381 168.312C124.733 170.424 120.573 171.48 115.901 171.48ZM116.669 164.76C120.381 164.76 123.677 163.896 126.557 162.168C129.501 160.44 131.805 158.072 133.469 155.064C135.197 151.992 136.061 148.568 136.061 144.792C136.061 140.952 135.197 137.528 133.469 134.52C131.805 131.512 129.501 129.144 126.557 127.416C123.677 125.624 120.381 124.728 116.669 124.728C113.021 124.728 109.725 125.624 106.781 127.416C103.837 129.144 101.501 131.512 99.773 134.52C98.045 137.528 97.181 140.952 97.181 144.792C97.181 148.568 98.045 151.992 99.773 155.064C101.501 158.072 103.837 160.44 106.781 162.168C109.725 163.896 113.021 164.76 116.669 164.76ZM139.613 171C138.525 171 137.629 170.68 136.925 170.04C136.221 169.336 135.869 168.44 135.869 167.352V150.936L137.693 143.352L143.357 144.792V167.352C143.357 168.44 143.005 169.336 142.301 170.04C141.597 170.68 140.701 171 139.613 171ZM181.638 171.48C176.582 171.48 172.038 170.328 168.006 168.024C163.974 165.656 160.774 162.456 158.406 158.424C156.102 154.392 154.95 149.816 154.95 144.696C154.95 139.64 156.07 135.096 158.31 131.064C160.614 127.032 163.718 123.864 167.622 121.56C171.526 119.192 175.942 118.008 180.87 118.008C185.158 118.008 189.03 118.936 192.486 120.792C195.942 122.584 198.726 124.984 200.838 127.992V99.768C200.838 98.616 201.19 97.72 201.894 97.08C202.598 96.376 203.494 96.024 204.582 96.024C205.67 96.024 206.566 96.376 207.27 97.08C207.974 97.72 208.326 98.616 208.326 99.768V145.08C208.198 150.072 206.95 154.584 204.582 158.616C202.278 162.584 199.11 165.72 195.078 168.024C191.11 170.328 186.63 171.48 181.638 171.48ZM181.638 164.76C185.35 164.76 188.646 163.896 191.526 162.168C194.47 160.376 196.774 157.976 198.438 154.968C200.166 151.96 201.03 148.536 201.03 144.696C201.03 140.92 200.166 137.528 198.438 134.52C196.774 131.448 194.47 129.048 191.526 127.32C188.646 125.592 185.35 124.728 181.638 124.728C177.99 124.728 174.694 125.592 171.75 127.32C168.806 129.048 166.47 131.448 164.742 134.52C163.014 137.528 162.15 140.92 162.15 144.696C162.15 148.536 163.014 151.96 164.742 154.968C166.47 157.976 168.806 160.376 171.75 162.168C174.694 163.896 177.99 164.76 181.638 164.76ZM248.745 171.48C243.817 171.48 239.401 170.328 235.497 168.024C231.593 165.656 228.489 162.456 226.185 158.424C223.945 154.392 222.825 149.848 222.825 144.792C222.825 139.672 223.977 135.096 226.281 131.064C228.649 127.032 231.849 123.864 235.881 121.56C239.913 119.192 244.457 118.008 249.513 118.008C254.569 118.008 259.081 119.192 263.049 121.56C267.081 123.864 270.249 127.032 272.553 131.064C274.921 135.096 276.137 139.672 276.201 144.792L273.225 147.096C273.225 151.704 272.137 155.864 269.961 159.576C267.849 163.224 264.937 166.136 261.225 168.312C257.577 170.424 253.417 171.48 248.745 171.48ZM249.513 164.76C253.225 164.76 256.521 163.896 259.401 162.168C262.345 160.44 264.649 158.072 266.313 155.064C268.041 151.992 268.905 148.568 268.905 144.792C268.905 140.952 268.041 137.528 266.313 134.52C264.649 131.512 262.345 129.144 259.401 127.416C256.521 125.624 253.225 124.728 249.513 124.728C245.865 124.728 242.569 125.624 239.625 127.416C236.681 129.144 234.345 131.512 232.617 134.52C230.889 137.528 230.025 140.952 230.025 144.792C230.025 148.568 230.889 151.992 232.617 155.064C234.345 158.072 236.681 160.44 239.625 162.168C242.569 163.896 245.865 164.76 249.513 164.76ZM272.457 171C271.369 171 270.473 170.68 269.769 170.04C269.065 169.336 268.713 168.44 268.713 167.352V150.936L270.537 143.352L276.201 144.792V167.352C276.201 168.44 275.849 169.336 275.145 170.04C274.441 170.68 273.545 171 272.457 171ZM361.522 171C360.434 171 359.538 170.68 358.834 170.04C358.13 169.336 357.778 168.44 357.778 167.352V139.704C357.778 135.16 356.594 131.576 354.226 128.952C351.858 126.264 348.818 124.92 345.106 124.92C341.138 124.92 337.874 126.264 335.314 128.952C332.818 131.576 331.602 135.096 331.666 139.512H325.042C325.106 135.224 326.034 131.448 327.826 128.184C329.618 124.92 332.082 122.392 335.218 120.6C338.354 118.808 341.906 117.912 345.874 117.912C349.65 117.912 352.978 118.808 355.858 120.6C358.802 122.392 361.074 124.92 362.674 128.184C364.338 131.448 365.17 135.288 365.17 139.704V167.352C365.17 168.44 364.818 169.336 364.114 170.04C363.474 170.68 362.61 171 361.522 171ZM294.322 171C293.17 171 292.242 170.68 291.538 170.04C290.898 169.336 290.578 168.44 290.578 167.352V122.232C290.578 121.144 290.898 120.248 291.538 119.544C292.242 118.84 293.17 118.488 294.322 118.488C295.41 118.488 296.274 118.84 296.914 119.544C297.618 120.248 297.97 121.144 297.97 122.232V167.352C297.97 168.44 297.618 169.336 296.914 170.04C296.274 170.68 295.41 171 294.322 171ZM328.018 171C326.93 171 326.034 170.68 325.33 170.04C324.626 169.336 324.274 168.44 324.274 167.352V139.704C324.274 135.16 323.09 131.576 320.722 128.952C318.354 126.264 315.314 124.92 311.602 124.92C307.634 124.92 304.37 126.232 301.81 128.856C299.25 131.416 297.97 134.776 297.97 138.936H292.69C292.818 134.84 293.714 131.224 295.378 128.088C297.106 124.888 299.442 122.392 302.386 120.6C305.33 118.808 308.658 117.912 312.37 117.912C316.146 117.912 319.474 118.808 322.354 120.6C325.298 122.392 327.57 124.92 329.17 128.184C330.834 131.448 331.666 135.288 331.666 139.704V167.352C331.666 168.44 331.314 169.336 330.61 170.04C329.97 170.68 329.106 171 328.018 171Z" fill="#F0C368"/>
</svg>
