<svg width="579" height="408" viewBox="0 0 579 408" fill="none" xmlns="http://www.w3.org/2000/svg">
<path d="M551.208 386.546H27.1086C12.1989 386.546 0 371.513 0 353.139V33.4064C0 15.0329 12.1989 0 27.1086 0H551.208C566.118 0 578.317 15.0329 578.317 33.4064V353.139C578.317 371.513 566.118 386.546 551.208 386.546Z" fill="black"/>
<path d="M422.777 262.944H155.541C150.571 262.944 146.504 257.933 146.504 251.809V89.9324C146.504 83.8078 150.571 78.7969 155.541 78.7969H422.768C427.738 78.7969 431.804 83.8078 431.804 89.9324V251.809C431.813 257.933 427.747 262.944 422.777 262.944Z" fill="#303030"/>
<path d="M215.686 111.366H225.834V175.019H220.71V117.591H212.596L215.686 111.366Z" fill="#DB2B42"/>
<path d="M250.557 131.276H245.605C245.75 125.006 247.458 119.85 250.711 115.808C253.991 111.788 258.012 109.761 262.81 109.761C267.563 109.761 271.404 111.654 274.349 115.429C277.277 119.204 278.75 123.67 278.75 128.815C278.75 132.423 278.045 135.797 276.645 138.96C275.253 142.122 272.524 146.398 268.485 151.799L255.617 168.882H279.446V175.029H244.367L264.102 148.748C268.105 143.47 270.708 139.55 271.91 136.988C273.111 134.438 273.726 131.732 273.726 128.915C273.726 125.34 272.642 122.255 270.482 119.672C268.304 117.088 265.657 115.796 262.521 115.796C259.223 115.796 256.467 117.155 254.28 119.861C252.102 122.567 250.864 126.365 250.557 131.276Z" fill="#DB2B42"/>
<path d="M292.973 126.732C294.165 126.732 295.187 127.256 296.027 128.291C296.867 129.327 297.292 130.597 297.292 132.1C297.292 133.603 296.867 134.873 296.027 135.908C295.187 136.944 294.165 137.467 292.973 137.467C291.78 137.467 290.759 136.944 289.918 135.908C289.078 134.873 288.653 133.603 288.653 132.1C288.653 130.63 289.078 129.372 289.918 128.325C290.759 127.267 291.78 126.732 292.973 126.732ZM292.973 165.508C294.165 165.508 295.187 166.031 296.027 167.067C296.867 168.102 297.292 169.372 297.292 170.875C297.292 172.345 296.867 173.615 296.027 174.65C295.187 175.708 294.165 176.231 292.973 176.231C291.78 176.231 290.759 175.697 289.918 174.65C289.078 173.615 288.653 172.345 288.653 170.875C288.653 169.372 289.078 168.102 289.918 167.067C290.759 166.02 291.78 165.508 292.973 165.508Z" fill="#DB2B42"/>
<path d="M304.286 143.214C304.286 134.818 305.009 128.326 306.473 123.738C307.937 119.15 310.006 115.676 312.681 113.304C315.346 110.943 318.337 109.752 321.636 109.752C324.979 109.752 328.015 110.932 330.726 113.326C333.446 115.687 335.596 119.273 337.16 124.028C338.75 128.782 339.536 135.174 339.536 143.203C339.536 151.198 338.75 157.557 337.205 162.289C335.633 167.022 333.491 170.596 330.753 172.99C328.015 175.396 324.97 176.609 321.626 176.609C318.328 176.609 315.355 175.44 312.708 173.102C310.06 170.763 307.991 167.278 306.518 162.657C305.018 158.035 304.286 151.555 304.286 143.214ZM309.166 143.325C309.166 150.519 309.681 155.964 310.738 159.639C311.768 163.314 313.313 166.12 315.346 168.024C317.379 169.928 319.539 170.875 321.807 170.875C324.102 170.875 326.244 169.939 328.232 168.08C330.22 166.22 331.729 163.436 332.759 159.695C334.042 155.162 334.693 149.717 334.693 143.325C334.693 136.923 334.123 131.667 332.976 127.591C331.828 123.504 330.238 120.52 328.223 118.638C326.19 116.745 324.057 115.799 321.807 115.799C319.512 115.799 317.361 116.745 315.346 118.638C313.331 120.531 311.804 123.315 310.747 126.99C309.69 130.653 309.166 136.11 309.166 143.325Z" fill="#DB2B42"/>
<path d="M344.136 143.214C344.136 134.818 344.859 128.326 346.323 123.738C347.786 119.15 349.856 115.676 352.53 113.304C355.196 110.943 358.187 109.752 361.485 109.752C364.829 109.752 367.865 110.932 370.576 113.326C373.296 115.687 375.446 119.273 377.009 124.028C378.6 128.782 379.386 135.174 379.386 143.203C379.386 151.198 378.6 157.557 377.055 162.289C375.482 167.022 373.341 170.596 370.603 172.99C367.865 175.396 364.82 176.609 361.476 176.609C358.178 176.609 355.205 175.44 352.557 173.102C349.91 170.763 347.841 167.278 346.368 162.657C344.877 158.035 344.136 151.555 344.136 143.214ZM349.015 143.325C349.015 150.519 349.53 155.964 350.588 159.639C351.618 163.314 353.163 166.12 355.196 168.024C357.229 169.928 359.389 170.875 361.657 170.875C363.952 170.875 366.094 169.939 368.082 168.08C370.07 166.22 371.579 163.436 372.609 159.695C373.892 155.162 374.543 149.717 374.543 143.325C374.543 136.923 373.973 131.667 372.826 127.591C371.678 123.504 370.088 120.52 368.073 118.638C366.04 116.745 363.907 115.799 361.657 115.799C359.362 115.799 357.211 116.745 355.196 118.638C353.181 120.531 351.654 123.315 350.597 126.99C349.548 130.653 349.015 136.11 349.015 143.325Z" fill="#DB2B42"/>
<path d="M217.176 202.603H219.516L224.197 222.924L230.766 202.603H231.236L237.733 222.924L242.486 202.603H244.818L238.239 230.819H237.815L231.028 209.473L224.098 230.819H223.664L217.176 202.603Z" fill="white"/>
<path d="M249.065 202.6H262.185V205.35H251.36V214.191H262.095V216.963H251.36V228.053H262.095V230.804H249.065V202.6Z" fill="white"/>
<path d="M266.143 230.816V202.6H270.896C274.312 202.6 276.797 202.934 278.351 203.613C280.565 204.582 282.309 206.241 283.547 208.602C284.803 210.962 285.435 213.791 285.435 217.064C285.435 219.882 284.929 222.376 283.944 224.525C282.95 226.674 281.658 228.255 280.086 229.28C278.505 230.304 276.282 230.805 273.426 230.805H266.143V230.816ZM268.348 228.144H270.995C274.158 228.144 276.345 227.899 277.574 227.42C279.291 226.73 280.655 225.483 281.631 223.69C282.616 221.897 283.122 219.703 283.122 217.109C283.122 214.381 282.58 212.065 281.523 210.127C280.447 208.19 278.956 206.887 277.05 206.163C275.622 205.628 273.255 205.35 269.965 205.35H268.348V228.144Z" fill="white"/>
<path d="M306.2 202.6H308.487V221.641C308.487 224.569 308.315 226.618 307.935 227.754C307.574 228.89 306.95 229.814 306.101 230.493C305.233 231.172 304.194 231.518 302.965 231.518C302.044 231.518 301.14 231.306 300.236 230.849C299.333 230.415 298.339 229.636 297.254 228.522L298.474 226.273C299.667 227.308 300.661 228.043 301.456 228.467C301.971 228.745 302.486 228.89 302.974 228.89C303.634 228.89 304.23 228.645 304.764 228.155C305.288 227.676 305.667 227.03 305.884 226.217C306.092 225.404 306.2 223.857 306.2 221.54V202.6Z" fill="white"/>
<path d="M323.414 202.6L334.086 230.816H331.619L328.023 221.53H318.164L314.595 230.816H312.047L322.863 202.6H323.414ZM323.134 208.59L319.203 218.813H327.038L323.134 208.59Z" fill="white"/>
<path d="M337.655 230.816V202.6H338.161L353.405 224.224V202.6H355.665V230.816H355.149L340.023 209.459V230.816H337.655Z" fill="white"/>
<path d="M373.168 202.6H377.659V230.816H375.391V205.361H371.794L373.168 202.6Z" fill="white"/>
<path d="M201.697 175.017H173.215C172.844 175.017 172.537 174.638 172.537 174.181V147.412C172.537 146.956 172.844 146.577 173.215 146.577H201.697C202.067 146.577 202.375 146.956 202.375 147.412V174.181C202.375 174.638 202.067 175.017 201.697 175.017Z" fill="#E6E5E5"/>
<path d="M177.552 154.474H179.586C180.76 154.474 181.537 154.54 181.935 154.674C182.522 154.852 183.001 155.209 183.372 155.754C183.733 156.3 183.923 156.99 183.923 157.837C183.923 158.672 183.751 159.362 183.381 159.897C183.019 160.442 182.513 160.821 181.881 161.01C181.42 161.144 180.561 161.211 179.296 161.211H178.574V167.057H177.543V154.474H177.552ZM178.583 155.71V159.963L180.299 159.997C181.004 159.997 181.501 159.93 181.836 159.763C182.161 159.607 182.405 159.362 182.595 158.995C182.784 158.649 182.875 158.26 182.875 157.825C182.875 157.402 182.784 157.013 182.595 156.667C182.405 156.322 182.17 156.066 181.872 155.921C181.564 155.776 181.067 155.71 180.381 155.71H178.583Z" fill="#303030"/>
<path d="M185.495 167.043L186.959 154.462H187.121L191.278 164.783L195.371 154.462H195.534L197.007 167.043H196.004L195.001 158.058L191.395 167.043H191.142L187.492 157.991L186.489 167.043H185.495Z" fill="#303030"/>
<path d="M534.139 386.537H44.1963V407.371H534.139V386.537Z" fill="#AAAAAA"/>
<g opacity="0.2">
<path opacity="0.2" d="M319.719 78.7969H158.495C151.898 78.7969 146.513 85.4447 146.513 93.5625V248.167C146.513 256.296 151.907 262.933 158.495 262.933H229.076L319.719 78.7969Z" fill="white"/>
</g>
<path d="M419.822 266.631H158.495C150.227 266.631 143.513 258.346 143.513 248.168V93.5731C143.513 83.3841 150.236 75.1104 158.495 75.1104H419.822C428.09 75.1104 434.804 83.3952 434.804 93.5731V248.168C434.804 258.357 428.081 266.631 419.822 266.631ZM158.495 82.4932C153.543 82.4932 149.504 87.4708 149.504 93.5731V248.168C149.504 254.27 153.543 259.248 158.495 259.248H419.822C424.774 259.248 428.813 254.27 428.813 248.168V93.5731C428.813 87.4708 424.774 82.4932 419.822 82.4932H158.495Z" fill="#999999"/>
</svg>
