<svg width="603" height="613" viewBox="0 0 603 613" fill="none" xmlns="http://www.w3.org/2000/svg">
<g id="ArtByANC_Eye1">
<ellipse id="Back_Face_Logo" cx="301" cy="306.212" rx="301" ry="306.212" fill="#72CFF1"/>
<path id="Eye_Part_Top" d="M59.939 367.454L93.8178 334.879C93.8178 334.879 129.363 303.976 148.545 290.576C167.727 277.175 191.2 261.355 216.303 254.091C241.406 246.826 267.448 237.151 294.556 237.151C310.446 237.151 341.049 237.706 366.151 244.97C385.78 250.65 410.82 262.843 430 276.242C449.179 289.642 471.836 307.892 497.757 324.454L539.454 367.454" stroke="black" stroke-width="4"/>
<path id="Eye_Part_Closed" d="M62.5449 367.455L93.8176 346.606C93.8176 346.606 129.355 319.584 148.545 306.212C167.734 292.84 182.068 283.491 207.181 276.242C232.295 268.994 243.911 261.909 271.03 261.909C286.927 261.909 278.771 261.909 304.909 261.909C323.151 261.909 355.727 263.212 375.272 269.727C394.818 276.242 388.302 272.333 452.151 306.212L539.454 365.565" stroke="black" stroke-width="4"/>
<path id="Eye_Part_Bottom" d="M54.7271 364.149L83.0737 400.38C83.0737 400.38 114.708 427.324 134.098 438.517C153.488 449.71 172.974 461.053 198.35 467.12C223.726 473.188 264.492 479.515 291.894 479.515C307.957 479.515 348.724 478.908 374.099 472.841C393.942 468.097 429.357 456.383 448.745 445.191C468.133 434 495.937 414.937 506.383 400.38L539.454 362.242" stroke="black" stroke-width="4"/>
<path id="ANC_Logo_Title" d="M287.789 364.078C288.237 364.43 288.509 364.83 288.605 365.278C288.701 365.726 288.701 366.174 288.605 366.622C288.477 367.422 288.109 368.142 287.501 368.782C286.893 369.39 286.365 369.774 285.917 369.934C285.373 371.758 284.893 373.47 284.477 375.07C284.061 376.67 283.757 378.11 283.565 379.39C283.501 379.678 283.453 380.03 283.421 380.446C283.421 380.862 283.453 381.15 283.517 381.31C283.581 381.598 283.357 381.886 282.845 382.174C282.333 382.462 281.613 382.606 280.685 382.606C280.365 382.606 279.965 382.558 279.485 382.462C279.005 382.334 278.541 382.11 278.093 381.79C277.677 381.438 277.341 380.974 277.085 380.398C276.829 379.79 276.781 378.99 276.941 377.998C276.973 377.678 277.085 377.198 277.277 376.558C277.501 375.886 277.757 375.102 278.045 374.206C278.365 373.278 278.733 372.254 279.149 371.134C279.565 370.014 280.013 368.814 280.493 367.534H279.725C278.733 367.566 277.645 367.63 276.461 367.726C275.277 367.822 274.045 367.95 272.765 368.11C271.197 369.998 269.613 371.79 268.013 373.486C266.413 375.182 264.845 376.67 263.309 377.95C261.805 379.23 260.365 380.254 258.989 381.022C257.581 381.758 256.317 382.126 255.197 382.126C254.109 382.126 253.213 382.014 252.509 381.79C251.805 381.566 251.245 381.294 250.829 380.974C250.413 380.654 250.141 380.334 250.013 380.014C249.853 379.662 249.789 379.374 249.821 379.15C249.853 378.926 249.949 378.798 250.109 378.766C250.237 378.702 250.413 378.702 250.637 378.766C250.829 378.798 251.053 378.862 251.309 378.958C251.565 379.022 251.853 379.054 252.173 379.054C253.197 379.054 254.301 378.798 255.485 378.286C256.637 377.774 257.837 377.07 259.085 376.174C260.333 375.246 261.613 374.174 262.925 372.958C264.269 371.71 265.613 370.366 266.957 368.926C265.709 369.086 264.541 369.246 263.453 369.406C262.397 369.534 261.517 369.598 260.813 369.598C259.885 369.598 259.165 369.438 258.653 369.118C258.109 368.798 257.709 368.43 257.453 368.014C257.165 367.566 256.989 367.134 256.925 366.718C256.861 366.27 256.861 365.95 256.925 365.758C256.989 365.246 257.069 364.958 257.165 364.894C257.261 364.798 257.469 364.798 257.789 364.894C258.077 364.99 258.557 365.118 259.229 365.278C259.901 365.438 260.845 365.518 262.061 365.518C263.213 365.486 264.557 365.358 266.093 365.134C267.661 364.91 269.309 364.654 271.037 364.366C272.957 362.094 274.813 359.774 276.605 357.406C278.429 355.038 280.093 352.814 281.597 350.734C283.133 348.622 284.477 346.766 285.629 345.166C286.813 343.534 287.741 342.318 288.413 341.518C288.413 341.358 288.429 341.246 288.461 341.182C288.557 340.606 288.909 340.398 289.517 340.558C290.157 340.718 290.829 341.07 291.533 341.614C292.269 342.158 292.909 342.798 293.453 343.534C294.029 344.238 294.269 344.846 294.173 345.358C294.141 345.614 293.917 346.318 293.501 347.47C293.117 348.622 292.621 350.062 292.013 351.79C291.405 353.486 290.733 355.406 289.997 357.55C289.261 359.662 288.525 361.838 287.789 364.078ZM282.125 362.83C282.925 360.622 283.709 358.366 284.477 356.062C285.245 353.726 285.949 351.454 286.589 349.246C285.373 351.102 283.901 353.278 282.173 355.774C280.445 358.238 278.573 360.798 276.557 363.454C277.581 363.294 278.557 363.166 279.485 363.07C280.445 362.942 281.325 362.862 282.125 362.83ZM331.469 345.214C331.469 345.822 331.261 346.734 330.845 347.95C330.461 349.134 329.949 350.51 329.309 352.078C328.669 353.646 327.933 355.358 327.101 357.214C326.301 359.07 325.469 360.958 324.605 362.878C323.773 364.798 322.941 366.702 322.109 368.59C321.277 370.446 320.541 372.19 319.901 373.822C319.293 375.454 318.797 376.91 318.413 378.19C318.029 379.438 317.837 380.414 317.837 381.118C317.997 381.406 317.821 381.726 317.309 382.078C316.797 382.43 316.077 382.606 315.149 382.606C314.829 382.606 314.397 382.542 313.853 382.414C313.341 382.286 312.813 382.062 312.269 381.742C311.757 381.39 311.277 380.91 310.829 380.302C310.381 379.694 310.093 378.91 309.965 377.95C309.901 377.502 309.885 376.75 309.917 375.694C309.949 374.638 309.997 373.374 310.061 371.902C310.157 370.398 310.253 368.75 310.349 366.958C310.477 365.134 310.573 363.246 310.637 361.294C310.733 359.31 310.797 357.294 310.829 355.246C310.893 353.166 310.909 351.15 310.877 349.198C310.269 350.926 309.517 352.942 308.621 355.246C307.757 357.518 306.765 359.87 305.645 362.302C304.525 364.734 303.325 367.134 302.045 369.502C300.765 371.838 299.421 373.934 298.013 375.79C296.605 377.646 295.165 379.15 293.693 380.302C292.253 381.422 290.797 381.982 289.325 381.982C288.237 381.982 287.309 381.87 286.541 381.646C285.741 381.422 285.101 381.15 284.621 380.83C284.109 380.51 283.725 380.19 283.469 379.87C283.213 379.518 283.069 379.23 283.037 379.006C283.005 378.782 283.053 378.654 283.181 378.622C283.309 378.59 283.485 378.606 283.709 378.67C283.901 378.702 284.141 378.766 284.429 378.862C284.717 378.926 285.021 378.958 285.341 378.958C286.717 378.958 288.093 378.51 289.469 377.614C290.845 376.686 292.189 375.47 293.501 373.966C294.813 372.43 296.093 370.67 297.341 368.686C298.589 366.67 299.773 364.59 300.893 362.446C302.013 360.302 303.069 358.142 304.061 355.966C305.053 353.79 305.949 351.758 306.749 349.87C307.549 347.982 308.253 346.302 308.861 344.83C309.469 343.358 309.965 342.254 310.349 341.518V341.134C310.253 340.558 310.605 340.382 311.405 340.606C311.469 340.638 311.517 340.654 311.549 340.654C311.581 340.654 311.613 340.67 311.645 340.702C312.157 340.894 312.749 341.198 313.421 341.614C314.125 341.998 314.781 342.446 315.389 342.958C316.029 343.438 316.557 343.934 316.973 344.446C317.421 344.926 317.677 345.342 317.741 345.694C317.773 346.078 317.725 347.006 317.597 348.478C317.469 349.918 317.325 351.678 317.165 353.758C317.005 355.838 316.877 358.11 316.781 360.574C316.685 363.038 316.685 365.438 316.781 367.774C317.357 366.59 318.013 365.23 318.749 363.694C319.485 362.158 320.221 360.558 320.957 358.894C321.725 357.198 322.461 355.486 323.165 353.758C323.901 352.03 324.541 350.382 325.085 348.814C325.661 347.214 326.109 345.774 326.429 344.494C326.781 343.182 326.957 342.094 326.957 341.23C326.957 340.654 327.181 340.414 327.629 340.51C328.109 340.606 328.637 340.894 329.213 341.374C329.789 341.822 330.301 342.414 330.749 343.15C331.229 343.854 331.469 344.542 331.469 345.214ZM355.745 347.374C355.713 347.662 355.617 348.158 355.457 348.862C355.297 349.534 355.089 350.318 354.833 351.214C354.577 352.11 354.289 353.07 353.969 354.094C353.681 355.086 353.409 356.062 353.153 357.022C352.897 357.95 352.673 358.814 352.481 359.614C352.321 360.382 352.241 360.974 352.241 361.39C352.241 361.678 352.033 361.822 351.617 361.822C351.233 361.822 350.801 361.662 350.321 361.342C349.873 361.022 349.457 360.526 349.073 359.854C348.721 359.182 348.577 358.318 348.641 357.262C348.673 356.558 348.833 355.774 349.121 354.91C349.409 354.014 349.745 353.134 350.129 352.27C350.513 351.374 350.897 350.51 351.281 349.678C351.697 348.846 352.017 348.11 352.241 347.47C352.497 346.83 352.625 346.318 352.625 345.934C352.625 345.55 352.433 345.358 352.049 345.358C350.929 345.358 349.713 345.854 348.401 346.846C347.121 347.838 345.825 349.134 344.513 350.734C343.201 352.334 341.937 354.174 340.721 356.254C339.537 358.302 338.481 360.414 337.553 362.59C336.657 364.734 335.937 366.846 335.393 368.926C334.881 370.974 334.657 372.798 334.721 374.398C334.817 375.998 335.249 377.294 336.017 378.286C336.785 379.278 338.001 379.774 339.665 379.774C341.137 379.774 342.577 379.502 343.985 378.958C345.393 378.414 346.705 377.726 347.921 376.894C349.169 376.03 350.305 375.086 351.329 374.062C352.385 373.038 353.281 372.062 354.017 371.134C354.785 370.174 355.377 369.326 355.793 368.59C356.209 367.822 356.417 367.278 356.417 366.958C356.417 366.734 356.497 366.638 356.657 366.67C356.849 366.702 357.041 366.814 357.233 367.006C357.425 367.198 357.601 367.454 357.761 367.774C357.921 368.062 358.001 368.366 358.001 368.686C357.969 369.294 357.697 370.062 357.185 370.99C356.673 371.918 355.985 372.91 355.121 373.966C354.257 375.022 353.233 376.094 352.049 377.182C350.897 378.238 349.633 379.198 348.257 380.062C346.913 380.894 345.505 381.582 344.033 382.126C342.561 382.67 341.073 382.942 339.569 382.942C336.209 382.942 333.601 382.35 331.745 381.166C329.921 379.982 328.673 378.414 328.001 376.462C327.329 374.51 327.185 372.286 327.569 369.79C327.953 367.294 328.689 364.75 329.777 362.158C330.897 359.566 332.289 357.022 333.953 354.526C335.649 352.03 337.457 349.806 339.377 347.854C341.297 345.902 343.281 344.334 345.329 343.15C347.377 341.966 349.313 341.374 351.137 341.374C352.865 341.374 354.081 341.87 354.785 342.862C355.521 343.854 355.841 345.358 355.745 347.374Z" fill="black"/>
<g id="Eyelashes">
<path id="Eyelash_Parts" d="M507.884 316.638L479.515 314.321L510.241 306.847L523.162 299.192L535.691 291.985L547.247 278.789L555.865 268.948L560.964 256.024L565.475 243.772L574.636 224.435L577.242 240.072L576.028 257.756L570.336 277.668L562.496 292.143L550.94 305.339L531.561 314.847L507.884 316.638Z" fill="black" stroke="black"/>
<path id="Eyelash_Parts_2" d="M289.276 221.567L273.636 232.905L287.922 213.84L292.73 202.756L297.45 192.155L300.062 177.927L302.011 167.315L301.277 156.212L300.41 145.831L297.45 128.522L305.658 137.96L309.715 150.531L311.992 166.655L311.688 180.061L309.075 194.29L301.277 209.788L289.276 221.567Z" fill="black" stroke="black"/>
<path id="Eyelash_Parts_3" d="M368.106 239.254L348.829 239.441L369.091 232.504L377.333 226.545L385.339 220.911L392.319 211.298L397.524 204.129L400.166 195.099L402.453 186.557L407.439 172.95L410.161 183.335L410.433 195.337L407.823 209.118L403.428 219.364L396.448 228.977L383.964 236.585L368.106 239.254Z" fill="black" stroke="black"/>
<path id="Eyelash_Parts_4" d="M156.519 274.67L143.539 287.7L145.753 268.154L146.749 260.541L145.753 252.322L145.753 243.397L145.753 232.973L145.753 223.851L143.539 206.912L140.234 194.086L156.519 206.912L160.478 214.73L163.689 229.064L163.689 239.488L163.689 252.322L163.689 260.541L156.519 274.67Z" fill="black" stroke="black"/>
<path id="Eyelash_Parts_5" d="M224.818 236.994L211.259 248.538L215.603 230.841L219.513 221.719L221.864 213.501L221.864 203.477L221.59 194.356L221.864 185.235L218.517 178.473L212.997 155.265L229.282 166.992L236.452 176.113L240.361 189.144L241.664 199.568L240.361 213.501L234.509 225.674L224.818 236.994Z" fill="black" stroke="black"/>
<path id="Eyelash_Parts_6" d="M443.285 269.336L422.182 268.165L445.238 261.936L455.024 255.93L464.509 250.268L473.388 240.128L480.01 232.566L484.07 222.761L487.679 213.471L494.897 198.768L496.526 210.456L495.266 223.759L490.624 238.823L484.489 249.849L475.609 259.989L460.972 267.516L443.285 269.336Z" fill="black" stroke="black"/>
</g>
</g>
</svg>
