<svg width="1806" height="858" viewBox="0 0 1806 858" fill="none" xmlns="http://www.w3.org/2000/svg">
<path d="M109.952 427.429C123.476 424.779 133.627 420.84 140.405 415.611C151.055 407.395 154.876 395.612 151.869 380.263C148.841 364.807 140.522 355.626 126.913 352.719C119.24 351.102 108.427 351.66 94.4731 354.394L37.3175 365.592L51.6697 438.847L109.952 427.429ZM142.126 534.474C161.768 530.626 174.66 522.193 180.804 509.176C184.654 500.954 185.58 491.744 183.583 481.548C180.218 464.374 170.251 454.178 153.683 450.96C144.874 449.231 133.761 449.68 120.344 452.309L56.7481 464.769L73.056 548.007L142.126 534.474ZM0.685991 345.016L102.278 325.113C129.97 319.687 151.285 324.093 166.223 338.33C175.006 346.752 180.649 357.349 183.151 370.122C186.074 385.041 184.232 398.108 177.624 409.322C174.212 415.229 168.783 421.085 161.339 426.891C174.372 429.13 184.461 432.558 191.608 437.177C204.253 445.399 212.352 458.58 215.906 476.72C218.892 491.961 216.818 506.689 209.683 520.904C199.025 542.163 178.132 555.841 147.005 561.939L47.023 581.528L0.685991 345.016ZM352.612 388.581C367.639 385.637 378.91 380.308 386.427 372.593C394.051 364.858 396.327 353.155 393.257 337.485C389.956 320.633 381.588 310.347 368.153 306.626C360.975 304.689 351.911 304.793 340.963 306.938L262.716 322.268L278.551 403.091L352.612 388.581ZM225.283 301.014L334.764 279.564C352.797 276.031 368.178 275.748 380.907 278.716C405.102 284.452 419.86 300.898 425.18 328.054C427.956 342.222 427.276 354.392 423.139 364.565C419.109 374.717 412.371 383.56 402.925 391.095C412.891 393.043 420.782 396.624 426.596 401.838C432.517 407.031 437.092 416.444 440.32 430.078L447.661 461.574C449.75 470.527 451.815 477.088 453.858 481.258C457.262 488.393 461.643 492.55 467.001 493.729L468.042 499.042L428.758 506.739C427.285 504.91 425.911 502.448 424.636 499.354C423.361 496.26 421.605 490.14 419.367 480.994L409.707 441.927C405.928 426.618 398.156 417.385 386.392 414.229C379.706 412.529 369.816 412.962 356.721 415.528L283.787 429.817L303.66 531.248L271.62 537.525L225.283 301.014ZM560.515 228.648C602.268 220.468 635.809 227.828 661.138 250.73C680.909 268.59 693.991 293.834 700.384 326.464C707.303 361.777 704.091 392.889 690.751 419.8C675.097 451.399 647.788 471.015 608.826 478.649C572.44 485.778 541.48 479.36 515.946 459.397C492.835 439.851 477.81 412.367 470.871 376.947C464.604 344.961 467.184 316.035 478.612 290.168C493.286 256.977 520.587 236.471 560.515 228.648ZM607.075 449.234C635.304 443.703 653.721 429.618 662.326 406.979C671.017 384.211 672.786 359.679 667.634 333.382C662.188 305.582 650.505 284.633 632.585 270.534C614.772 256.414 593.254 251.825 568.03 256.767C543.558 261.561 525.244 273.899 513.09 293.778C500.914 313.551 498.033 339.805 504.447 372.542C509.578 398.732 520.511 419.549 537.246 434.995C554.067 450.312 577.344 455.058 607.075 449.234ZM817.152 178.368C858.905 170.188 892.446 177.549 917.774 200.45C937.546 218.31 950.628 243.555 957.021 276.184C963.939 311.497 960.728 342.609 947.388 369.52C931.733 401.119 904.425 420.735 865.463 428.369C829.076 435.498 798.116 429.08 772.583 409.117C749.472 389.571 734.447 362.088 727.507 326.667C721.241 294.682 723.821 265.755 735.248 239.888C749.922 206.698 777.223 186.191 817.152 178.368ZM863.712 398.954C891.941 393.423 910.358 379.338 918.963 356.699C927.654 333.931 929.423 309.399 924.271 283.102C918.824 255.302 907.141 234.353 889.221 220.254C871.408 206.134 849.89 201.545 824.667 206.487C800.195 211.282 781.881 223.619 769.726 243.498C757.551 263.271 754.67 289.525 761.084 322.262C766.215 348.452 777.148 369.27 793.883 384.715C810.704 400.032 833.98 404.779 863.712 398.954ZM972.975 154.527L1004.21 148.407L1026.79 263.685L1119.49 125.822L1163.76 117.148L1084.06 231.734L1212.84 353.123L1171.14 361.293L1065.13 258.848L1034.4 302.486L1050.55 384.919L1019.31 391.038L972.975 154.527ZM1192.9 111.439L1224.94 105.162L1265.76 313.498L1385.54 290.03L1391.06 318.205L1239.24 347.95L1192.9 111.439ZM1333.62 83.87L1370.97 76.552L1461.18 176.908L1506.86 49.9295L1544.37 42.5799L1482.68 201.285L1501.35 296.598L1469.31 302.875L1450.64 207.562L1333.62 83.87ZM1571.9 37.186L1609.74 29.7734L1766.74 197.96L1729.2 6.36829L1759.63 0.406619L1805.97 236.918L1770.06 243.952L1611.32 76.2733L1648.83 267.704L1618.24 273.697L1571.9 37.186ZM128.405 620.602L166.241 613.189L323.24 781.376L285.704 589.784L316.133 583.823L362.47 820.334L326.567 827.368L167.828 659.689L205.333 851.12L174.742 857.113L128.405 620.602ZM373.933 572.499L406.294 566.158L452.631 802.67L420.27 809.01L373.933 572.499ZM458.459 555.938L496.294 548.526L653.294 716.713L615.757 525.121L646.187 519.159L692.524 755.67L656.62 762.705L497.881 595.026L535.386 786.457L504.796 792.45L458.459 555.938ZM699.8 508.655L872.233 474.872L877.911 503.853L736.712 531.516L750.781 603.323L881.353 577.741L886.715 605.112L756.143 630.693L771.851 710.872L915.465 682.735L920.985 710.911L746.137 745.167L699.8 508.655ZM1008.44 448.187L1046.28 440.774L1203.28 608.961L1165.74 417.369L1196.17 411.407L1242.51 647.919L1206.6 654.953L1047.86 487.274L1085.37 678.705L1054.78 684.698L1008.44 448.187ZM1253.97 400.083L1286.33 393.743L1332.67 630.255L1300.3 636.595L1253.97 400.083ZM1338.49 383.523L1376.33 376.111L1533.33 544.297L1495.79 352.705L1526.22 346.744L1572.56 583.255L1536.66 590.289L1377.92 422.61L1415.42 614.041L1384.83 620.035L1338.49 383.523ZM1579.84 336.24L1752.27 302.457L1757.95 331.437L1616.75 359.101L1630.82 430.908L1761.39 405.326L1766.75 432.696L1636.18 458.278L1651.89 538.457L1795.5 510.32L1801.02 538.495L1626.17 572.751L1579.84 336.24Z" fill="#F0C368"/>
</svg>
