<svg width="622" height="570" viewBox="0 0 622 570" fill="none" xmlns="http://www.w3.org/2000/svg">
<path d="M311 0C139.239 0 0 127.459 0 284.688C0 441.918 139.239 569.377 311 569.377C482.761 569.377 622 441.918 622 284.688C622 127.459 482.761 0 311 0ZM311 374.59C256.76 374.59 212.79 334.34 212.79 284.688C212.79 235.037 256.76 194.787 311 194.787C365.24 194.787 409.21 235.037 409.21 284.688C409.21 334.34 365.24 374.59 311 374.59Z" fill="#D8D8DA"/>
<path d="M343.736 209.771H611.094C589.308 136.478 536.362 74.945 466.062 37.8574L278.263 209.771H343.736Z" fill="#D4B6E6"/>
<path d="M278.264 209.771L466.061 37.8591C420.419 13.7785 367.468 0 311 0C282.671 0 255.24 3.48632 229.158 9.98411V254.722L278.264 209.771Z" fill="#EBAFD1"/>
<path d="M229.158 254.719V9.98535C149.093 29.9266 81.8729 78.393 41.3591 142.744L229.157 314.653V254.719H229.158Z" fill="#E07188"/>
<path d="M229.159 254.723L278.264 209.773H343.737V209.771H278.264L229.159 254.723Z" fill="#D8D8DA"/>
<path d="M278.263 359.605L229.158 314.657L278.263 359.606H343.736L392.841 314.657L343.736 359.605H278.263Z" fill="#D8D8DA"/>
<path d="M611.096 209.771H343.736V209.773H344.9L392.842 254.722L580.641 426.634C606.949 384.851 622 336.38 622 284.689C622 258.757 618.191 233.644 611.096 209.771Z" fill="#B4D8F1"/>
<path d="M392.842 314.654V559.389C472.906 539.447 540.127 490.979 580.64 426.63L392.842 254.722V314.654Z" fill="#ACFFF4"/>
<path d="M343.737 359.607L155.939 531.518C201.582 555.599 254.532 569.377 311 569.377C339.329 569.377 366.76 565.891 392.842 559.394V314.656L343.737 359.607Z" fill="#95D5A7"/>
<path d="M278.263 359.604H10.9036C32.6906 432.897 85.6371 494.43 155.936 531.518L343.737 359.604H278.263Z" fill="#F8E99B"/>
<path d="M229.158 314.654L41.3593 142.744C15.0507 184.526 0 232.997 0 284.687C0 310.619 3.80853 335.732 10.9044 359.604H278.262L229.158 314.654Z" fill="#EFC27B"/>
<path d="M344.9 209.772H343.736L392.842 254.721L344.9 209.772Z" fill="#D8D8DA"/>
<path d="M611.096 209.771C589.309 136.478 536.362 74.945 466.063 37.8574L311 179.802V209.769H343.736H611.096V209.771Z" fill="#B681D5"/>
<path d="M466.061 37.8593C420.419 13.7785 367.468 0 311 0V179.804L466.061 37.8593Z" fill="#E592BF"/>
<path d="M311 389.575V569.377C339.329 569.377 366.76 565.891 392.842 559.394V314.656L343.736 359.607L311 389.575Z" fill="#80CB93"/>
<path d="M343.736 359.604H311V389.573L343.736 359.604Z" fill="#F6E27D"/>
</svg>
