<svg width="1184" height="708" viewBox="0 0 1184 708" fill="none" xmlns="http://www.w3.org/2000/svg">
<ellipse cx="603.473" cy="300.491" rx="265.473" ry="245.182" fill="#218FCE"/>
<ellipse cx="610.236" cy="653.891" rx="143.727" ry="54.1091" fill="#675647"/>
<ellipse cx="605.164" cy="613.309" rx="33.8182" ry="67.6364" fill="#675647"/>
<path d="M373.719 197.972C388.709 178.463 421.345 189.843 435.788 197.972L458.625 227.692L468.287 215.118L486.147 191.876L504.006 215.118V239.123H468.287L453.355 258.556L473.264 284.466L539.725 197.972L571.345 239.123L533.577 288.276L516.888 309.995L503.768 292.92C504.411 297.179 505.282 301.081 506.056 303.899L491.709 322.569V342.764H453.355H435.788L416.758 317.997V303.899V288.276H373.719V303.899C373.719 308.776 380.941 315.33 384.552 317.997L395.678 332.476H360.837V267.701H338L345.027 258.556H380.746L354.688 224.644V210.927H373.719V197.972Z" fill="#297830"/>
<path d="M547.673 401.187V373.764V364.821H564.66L585.321 391.648L622.969 342.764L646.843 373.764L625.723 401.187L656.025 440.533L686.327 479.879H622.969L585.321 528.764L547.673 479.879H585.321V440.533H547.673V401.187Z" fill="#297830"/>
<ellipse cx="591.636" cy="77.2914" rx="54.1091" ry="15.2182" fill="white"/>
<ellipse cx="655.891" cy="77.2914" rx="54.1091" ry="15.2182" fill="white"/>
<ellipse cx="551.055" cy="77.2914" rx="54.1091" ry="15.2182" fill="white"/>
<ellipse cx="601.782" cy="67.1459" rx="54.1091" ry="15.2182" fill="white"/>
<path d="M615.309 228.996L652.228 191.988L667.351 177.274H714.5L734.961 156.764H792.786H832.373L845.273 169.694V208.04L815.916 237.468H786.559L832.373 283.393L805.24 310.592L780.331 335.561L768.766 347.154V376.582H734.961V347.154H714.5V321.293V283.393H667.351H639.773L615.309 258.87V228.996Z" fill="#297830"/>
<ellipse cx="170.661" cy="152.381" rx="119.141" ry="106.459" fill="#D23127"/>
<ellipse cx="245.796" cy="104.373" rx="18.2469" ry="18.7868" fill="#E68D81"/>
<ellipse cx="159.93" cy="152.383" rx="24.6869" ry="22.9617" fill="#E68D81"/>
<ellipse cx="147.047" cy="223.354" rx="24.6869" ry="22.9617" fill="#E68D81"/>
<ellipse rx="24.1828" ry="17.0526" transform="matrix(-0.518201 0.855259 -0.86769 -0.497106 80.996 112.656)" fill="#E68D81"/>
<ellipse cx="239.356" cy="171.167" rx="24.6869" ry="22.9617" fill="#E68D81"/>
<ellipse cx="147.047" cy="91.8464" rx="24.6869" ry="22.9617" fill="#E68D81"/>
<ellipse rx="24.093" ry="14.9748" transform="matrix(0.365109 0.930965 -0.937609 0.347692 74.3576 182.107)" fill="#E68D81"/>
<ellipse rx="11.7562" ry="23.0652" transform="matrix(0.922132 0.386876 -0.405575 0.914062 215.545 226.024)" fill="#E68D81"/>
<ellipse rx="10.7034" ry="31.4038" transform="matrix(-0.949936 -0.312445 0.328543 -0.944489 165.245 268.885)" fill="#D23127"/>
<ellipse rx="10.5295" ry="31.9285" transform="matrix(0.566434 -0.824107 0.83848 0.544932 50.0179 92.8347)" fill="#D23127"/>
<ellipse cx="163.15" cy="37.5731" rx="10.7334" ry="31.3114" fill="#D23127"/>
<ellipse rx="10.6099" ry="31.6881" transform="matrix(-0.770207 0.637794 -0.658832 -0.75229 275.919 222.648)" fill="#D23127"/>
<ellipse rx="10.5089" ry="31.9895" transform="matrix(-0.500056 -0.865993 0.877697 -0.479217 66.6304 224.823)" fill="#D23127"/>
<ellipse rx="10.5043" ry="32.003" transform="matrix(0.483973 0.875083 -0.886147 0.463405 288.899 114.258)" fill="#D23127"/>
<ellipse rx="32.1102" ry="7.32755" transform="matrix(-0.949936 -0.312445 0.328543 -0.944489 155.273 297.555)" fill="#D23127"/>
<ellipse rx="31.5885" ry="7.44998" transform="matrix(0.566434 -0.824107 0.83848 0.544932 24.1395 76.0147)" fill="#D23127"/>
<ellipse cx="163.147" cy="7.30599" rx="32.2003" ry="7.30599" fill="#D23127"/>
<ellipse rx="31.8297" ry="7.39389" transform="matrix(-0.770207 0.637794 -0.658832 -0.75229 296.1 245.693)" fill="#D23127"/>
<ellipse rx="31.5267" ry="7.46421" transform="matrix(-0.500056 -0.865993 0.877697 -0.479217 39.4891 239.644)" fill="#D23127"/>
<ellipse rx="31.513" ry="7.46738" transform="matrix(0.483973 0.875083 -0.886147 0.463405 316.314 99.9217)" fill="#D23127"/>
<ellipse cx="1014.06" cy="543.226" rx="112.37" ry="109.45" fill="#43A759"/>
<ellipse cx="1084.92" cy="493.864" rx="17.2098" ry="19.3147" fill="#81E698"/>
<ellipse cx="1003.94" cy="543.224" rx="23.2839" ry="23.6068" fill="#81E698"/>
<ellipse cx="991.79" cy="616.19" rx="23.2839" ry="23.6068" fill="#81E698"/>
<ellipse rx="24.3278" ry="16.4532" transform="matrix(-0.485837 0.874049 -0.84819 -0.529691 929.491 502.383)" fill="#81E698"/>
<ellipse cx="1078.85" cy="562.54" rx="23.2839" ry="23.6068" fill="#81E698"/>
<ellipse cx="991.79" cy="480.991" rx="23.2839" ry="23.6068" fill="#81E698"/>
<ellipse rx="24.507" ry="14.2835" transform="matrix(0.33854 0.940952 -0.927121 0.374761 923.229 573.783)" fill="#81E698"/>
<ellipse rx="11.2432" ry="23.4023" transform="matrix(0.909412 0.415897 -0.377015 0.926207 1056.39 618.934)" fill="#81E698"/>
<ellipse rx="10.6402" ry="30.6544" transform="matrix(0.371239 0.928537 -0.912198 0.409749 1134.05 510.207)" fill="#43A759"/>
<ellipse rx="10.1365" ry="32.1539" transform="matrix(0.988152 0.153475 0.13694 -0.990579 1015.99 664.621)" fill="#43A759"/>
<ellipse rx="10.3131" ry="31.6446" transform="matrix(0.817607 -0.575777 -0.5311 -0.847309 1117.25 608.165)" fill="#43A759"/>
<ellipse rx="10.1234" ry="32.1911" transform="matrix(-1 0 0 1 1004.95 431.628)" fill="#43A759"/>
<ellipse rx="10.6121" ry="30.742" transform="matrix(-0.426034 -0.904707 0.883913 -0.467651 913.442 616.563)" fill="#43A759"/>
<ellipse rx="10.5451" ry="30.9488" transform="matrix(0.535751 -0.844376 0.814283 0.580468 892.189 505.652)" fill="#43A759"/>
<ellipse rx="31.9206" ry="7.1527" transform="matrix(0.371239 0.928537 -0.912198 0.409749 1164.81 496.391)" fill="#43A759"/>
<ellipse rx="30.4096" ry="7.50257" transform="matrix(0.988152 0.153475 0.13694 -0.990579 1011.73 695.411)" fill="#43A759"/>
<ellipse rx="30.9392" ry="7.38374" transform="matrix(0.817607 -0.575777 -0.5311 -0.847309 1133.5 634.085)" fill="#43A759"/>
<ellipse rx="30.3702" ry="7.51126" transform="matrix(-1 0 0 1 1004.95 400.511)" fill="#43A759"/>
<ellipse rx="31.8362" ry="7.17314" transform="matrix(-0.426034 -0.904707 0.883913 -0.467651 887.177 630.46)" fill="#43A759"/>
<ellipse rx="31.6353" ry="7.22139" transform="matrix(0.535751 -0.844376 0.814283 0.580468 867.829 488.285)" fill="#43A759"/>
</svg>
