<svg width="1201" height="877" viewBox="0 0 1201 877" fill="none" xmlns="http://www.w3.org/2000/svg">
<path d="M543.779 675.18H168.48V708.208H543.779V675.18Z" fill="#F0C368"/>
<path d="M318.605 624.538H168.48V657.565H318.605V624.538Z" fill="#F0C368"/>
<path d="M402.599 573.902L374.893 611.284L347.188 573.902H168.48V606.93H327.541L374.893 670.824L422.25 606.93H543.779V573.902H402.599Z" fill="#F0C368"/>
<path d="M543.765 624.538H431.176V657.565H543.765V624.538Z" fill="#F0C368"/>
<path d="M356.128 337.589C242.533 337.589 150.119 420.717 150.119 522.897V556.29H562.14V522.897C562.137 420.717 469.723 337.589 356.128 337.589ZM525.425 523.264H525.422H186.839V522.899C186.839 438.93 262.781 370.619 356.13 370.619C449.48 370.619 525.422 438.93 525.422 522.899V523.264H525.425Z" fill="#F0C368"/>
<path d="M749.784 404.75H713.066V489.147H749.784V404.75Z" fill="#F0C368"/>
<path d="M806.086 370.973H769.369V489.128H806.086V370.973Z" fill="#F0C368"/>
<path d="M862.389 354.117H825.672V539.798H862.389V354.117Z" fill="#F0C368"/>
<path d="M918.684 354.117H881.967V539.798H918.684V354.117Z" fill="#F0C368"/>
<path d="M974.959 354.107H938.242V539.789H974.959V354.107Z" fill="#F0C368"/>
<path d="M1031.26 370.973H994.545V489.128H1031.26V370.973Z" fill="#F0C368"/>
<path d="M1087.56 404.75H1050.85V489.147H1087.56V404.75Z" fill="#F0C368"/>
<path d="M1012.9 742.688H787.729V775.716H1012.9V742.688Z" fill="#F0C368"/>
<path d="M918.684 269.71H881.967V320.348H918.684V269.71Z" fill="#F0C368"/>
<path d="M1071.6 793.334L1106.33 574.709V506.383H994.549V522.897C994.549 541.713 977.532 557.021 956.613 557.021H844.024C823.106 557.021 806.088 541.713 806.088 522.897V506.383H694.309V574.709L729.032 793.334H618.437V269.705H581.72V793.334H562.14V725.816H150.122V793.334H0V877H1200.15V793.334H1071.6V793.334ZM731.022 539.411H731.024H771.654C779.856 568.481 809.191 590.049 844.024 590.049H956.613C991.446 590.049 1020.78 568.481 1028.98 539.411H1069.61V572.36L1034.52 793.332H766.117L731.022 572.36V539.411ZM186.839 758.845H525.423V793.336H186.839V758.845ZM1163.44 843.972H36.7172V826.362H1163.44V843.972Z" fill="#F0C368"/>
<path d="M881.148 219.433V168.792H619.248V219.433H543.781V252.46H956.615V219.433H881.148ZM655.965 219.433V201.82H844.429V219.433H655.965Z" fill="#F0C368"/>
<path d="M731.836 0V151.549H768.553V33.0277H862.786V0H731.836Z" fill="#F0C368"/>
<path d="M693.902 742.688H637.607V775.716H693.902V742.688Z" fill="#F0C368"/>
</svg>
