<svg width="735" height="677" viewBox="0 0 735 677" fill="none" xmlns="http://www.w3.org/2000/svg">
<path d="M161.895 311.64L203.201 355.64H274.826L291.085 366.64L302.071 402.28H326.678L343.376 430H376.333L385.561 397.44V355.64H439.609H491.461V412.4L505.962 430H535.403L549.465 402.28H571.436L587.694 386V355.64H629V311.64H587.694V288.76L555.617 267.2L543.752 283.04L549.465 262.36L535.403 243H516.508L491.461 262.36V311.64H461.58H422.911L431.26 298L439.609 262.36V210L422.911 162.92L387.318 124.64L376.333 105.28V61.28V28.28L359.635 12H326.678H274.826H230.884L216.823 28.28L203.201 61.28V133L175.957 162.92L143 210V262.36L161.895 311.64Z" stroke="#EB9661" stroke-width="23"/>
<path d="M252 353.854V314.534H279.257L295.963 290.068L314.867 273.903H328.936L345.202 249H369.822L383.89 273.903V314.534M383.89 314.534H424.776H492.479V351.233M383.89 314.534V353.854L492.479 351.233M492.479 351.233V414.583L508.745 429L538.64 424.194L543.037 262.981L568.096 273.903L587 290.068V363.903" stroke="#EB9661" stroke-width="23"/>
<path d="M206 130L239.183 99.5163M239.183 99.5163L343.972 97.3696M239.183 99.5163V57.4402L244.859 51H261.014H288.521H333.93L343.972 57.4402V67.3152V78.0489V97.3696M343.972 97.3696L392 128.712" stroke="#EB9661" stroke-width="23"/>
<path d="M291 301.424V372.709L304.546 399.824H326.395L334.697 414.912M343 430L334.697 414.912M334.697 414.912V266" stroke="#EB9661" stroke-width="23"/>
<path d="M118.878 646.52C137.805 646.52 148.572 624.25 151.178 579.71C146.985 585.717 141.942 590.307 136.048 593.48C130.155 596.54 124.092 598.07 117.858 598.07C106.978 598.07 97.6283 593.65 89.8083 584.81C81.9883 575.97 78.0783 563.673 78.0783 547.92C78.0783 526.273 83.6883 507.46 94.9083 491.48C100.348 483.66 107.375 477.483 115.988 472.95C124.602 468.303 134.405 465.98 145.398 465.98C156.505 465.98 164.948 468.87 170.728 474.65C176.622 480.317 179.568 487.343 179.568 495.73C179.568 504.117 176.962 510.747 171.748 515.62C166.535 520.493 160.358 522.93 153.218 522.93C148.572 522.93 144.152 521.797 139.958 519.53C135.765 517.263 132.535 513.977 130.268 509.67C133.328 510.463 136.218 510.86 138.938 510.86C145.058 510.86 149.875 509.103 153.388 505.59C157.015 502.077 158.828 498.11 158.828 493.69C158.828 489.27 157.355 485.643 154.408 482.81C151.462 479.863 147.268 478.39 141.828 478.39C134.688 478.39 128.172 482.073 122.278 489.44C116.498 496.693 112.135 505.533 109.188 515.96C106.242 526.273 104.768 536.983 104.768 548.09C104.768 559.197 106.922 567.923 111.228 574.27C115.648 580.503 120.975 583.62 127.208 583.62C133.442 583.62 138.825 580.56 143.358 574.44C148.005 568.32 150.328 560.047 150.328 549.62C150.328 547.013 150.158 544.35 149.818 541.63V541.12C152.312 540.893 154.918 540.78 157.638 540.78C164.212 540.78 168.745 541.913 171.238 544.18C173.845 546.333 175.148 550.073 175.148 555.4C175.148 589.967 168.972 616.94 156.618 636.32C152.312 643.007 146.702 648.447 139.788 652.64C132.875 656.833 125.055 658.93 116.328 658.93C104.428 658.93 95.475 655.87 89.4683 649.75C83.575 643.743 80.6283 636.83 80.6283 629.01C80.6283 621.19 82.725 614.9 86.9183 610.14C91.1117 605.493 96.325 603.17 102.558 603.17C105.958 603.17 109.698 604.133 113.778 606.06C107.772 613.653 104.768 621.643 104.768 630.03C104.768 634.903 105.902 638.87 108.168 641.93C110.435 644.99 114.005 646.52 118.878 646.52ZM257.857 516.64C257.857 520.607 256.157 525.99 252.757 532.79C249.357 539.477 245.221 546.9 240.347 555.06C235.474 563.22 230.601 571.947 225.727 581.24C220.854 590.42 216.717 600.79 213.317 612.35C209.917 624.023 208.217 635.413 208.217 646.52C208.217 651.62 208.614 656.493 209.407 661.14C200.227 659.44 193.994 656.89 190.707 653.49C187.421 650.203 185.777 646.293 185.777 641.76C185.777 635.527 190.311 623.23 199.377 604.87C197.677 597.843 195.581 586.85 193.087 571.89C190.594 556.817 188.044 543.727 185.437 532.62C182.944 521.513 180.054 513.24 176.767 507.8C183.001 504.853 187.987 503.38 191.727 503.38C195.467 503.38 198.301 504.23 200.227 505.93C202.154 507.63 203.741 511.03 204.987 516.13C206.347 521.117 207.311 525.253 207.877 528.54C209.464 539.42 210.257 545.483 210.257 546.73C210.257 547.977 210.711 553.077 211.617 562.03C212.524 570.87 213.204 576.707 213.657 579.54C233.831 540.44 243.917 514.317 243.917 501.17C253.211 505.93 257.857 511.087 257.857 516.64ZM328.684 584.98C328.684 590.647 329.024 596.653 329.704 603C326.077 603.227 323.697 603.34 322.564 603.34C316.217 603.34 311.627 602.263 308.794 600.11C305.96 597.843 304.544 594.557 304.544 590.25C304.544 585.943 305.734 577.103 308.114 563.73C310.607 550.243 311.854 540.043 311.854 533.13C311.854 526.103 309.587 522.59 305.054 522.59C302.56 522.59 299.84 524.12 296.894 527.18C293.947 530.127 291.17 534.207 288.564 539.42C285.957 544.52 283.747 551.093 281.934 559.14C280.234 567.187 279.384 574.95 279.384 582.43C279.384 589.797 279.724 596.653 280.404 603C276.777 603.227 274.397 603.34 273.264 603.34C266.917 603.34 262.327 602.263 259.494 600.11C256.66 597.843 255.244 594.103 255.244 588.89C255.244 587.643 256.377 579.2 258.644 563.56C261.024 547.92 262.214 535.567 262.214 526.5C262.214 517.32 261.25 508.933 259.324 501.34C267.71 503.947 273.547 507.687 276.834 512.56C280.12 517.433 281.764 523.44 281.764 530.58C281.764 534.207 281.367 538.797 280.574 544.35C284.427 533.017 289.754 523.61 296.554 516.13C303.467 508.65 310.097 504.91 316.444 504.91C322.904 504.91 327.55 507.29 330.384 512.05C333.33 516.81 334.804 523.667 334.804 532.62C339.11 524.347 344.04 517.66 349.594 512.56C355.147 507.46 360.247 504.91 364.894 504.91C371.807 504.91 376.68 507.007 379.514 511.2C382.46 515.28 383.934 520.89 383.934 528.03C383.934 535.057 382.8 544.973 380.534 557.78C378.38 570.587 377.304 579.937 377.304 585.83C377.304 591.61 378.04 595.86 379.514 598.58C380.987 601.187 383.48 603.453 386.994 605.38C385.52 605.493 383.424 605.55 380.704 605.55C371.184 605.55 364.384 604.077 360.304 601.13C356.337 598.183 354.354 593.027 354.354 585.66C354.354 581.467 355.487 573.307 357.754 561.18C360.02 548.94 361.154 539.817 361.154 533.81C361.154 526.33 358.887 522.59 354.354 522.59C350.954 522.59 347.27 525.083 343.304 530.07C339.45 534.943 336.05 542.367 333.104 552.34C330.157 562.2 328.684 573.08 328.684 584.98ZM403.744 440.31C411.791 442.463 417.287 446.373 420.234 452.04C423.294 457.593 424.824 463.77 424.824 470.57C424.824 477.37 423.747 488.987 421.594 505.42C419.441 521.74 417.967 534.773 417.174 544.52C420.574 532.393 425.391 522.76 431.624 515.62C437.971 508.48 444.771 504.91 452.024 504.91C459.277 504.91 465.511 508.367 470.724 515.28C476.051 522.193 478.714 531.033 478.714 541.8C478.714 558.46 474.237 572.853 465.284 584.98C456.444 596.993 446.301 603 434.854 603C430.887 603 426.921 602.093 422.954 600.28C427.827 598.92 432.247 596.143 436.214 591.95C440.181 587.757 443.411 582.94 445.904 577.5C451.004 566.167 453.554 554.833 453.554 543.5C453.554 537.947 452.477 533.073 450.324 528.88C448.284 524.687 445.507 522.59 441.994 522.59C436.327 522.59 430.547 528.37 424.654 539.93C418.874 551.49 415.814 565.883 415.474 583.11V586.34C415.701 590.307 416.664 596.88 418.364 606.06C402.044 602.32 393.884 590.59 393.884 570.87C393.884 562.823 395.754 546.617 399.494 522.25C403.347 497.883 405.274 480.09 405.274 468.87C405.274 457.65 404.764 448.13 403.744 440.31ZM538.83 504.91C542.23 504.683 544.61 504.57 545.97 504.57C551.863 504.57 556.34 505.647 559.4 507.8C562.46 509.953 563.99 513.92 563.99 519.7C563.99 521.513 562.913 529.503 560.76 543.67C558.607 557.723 557.53 569.793 557.53 579.88C557.53 589.967 558.607 598.863 560.76 606.57C552.26 603.85 546.367 599.997 543.08 595.01C539.793 590.023 538.15 583.847 538.15 576.48C538.15 573.647 538.773 567.243 540.02 557.27C536.507 570.19 531.123 581.07 523.87 589.91C516.73 598.637 509.987 603 503.64 603C490.607 603 484.09 593.593 484.09 574.78C484.09 568.547 484.997 559.877 486.81 548.77C488.737 537.55 489.7 529.05 489.7 523.27C489.7 517.49 488.907 511.653 487.32 505.76C496.727 505.76 503.527 507.007 507.72 509.5C512.027 511.88 514.18 516.697 514.18 523.95C514.18 527.803 512.99 535.453 510.61 546.9C508.23 558.347 507.04 566.96 507.04 572.74C507.04 581.127 509.307 585.32 513.84 585.32C516.107 585.32 518.713 583.79 521.66 580.73C524.607 577.557 527.44 573.42 530.16 568.32C532.88 563.107 535.147 556.647 536.96 548.94C538.887 541.12 539.85 533.243 539.85 525.31C539.85 517.263 539.51 510.463 538.83 504.91ZM590.246 568.66C590.246 582.147 594.326 588.89 602.486 588.89C606.792 588.89 610.986 586.567 615.066 581.92C619.146 577.273 622.432 571.04 624.926 563.22C627.532 555.4 629.742 547.07 631.556 538.23C633.482 529.277 634.899 519.813 635.806 509.84C637.392 490.573 638.186 475.557 638.186 464.79C638.186 453.91 637.732 445.75 636.826 440.31C644.986 442.123 650.709 445.977 653.996 451.87C657.282 457.763 658.926 465.187 658.926 474.14C658.926 483.093 656.999 499.753 653.146 524.12C649.406 548.487 647.536 566.28 647.536 577.5C647.536 588.72 648.046 598.24 649.066 606.06C641.019 603.907 635.466 600.053 632.406 594.5C629.459 588.833 627.986 581.75 627.986 573.25C624.472 582.997 619.202 590.703 612.176 596.37C605.149 602.037 597.896 604.87 590.416 604.87C582.936 604.87 576.816 602.037 572.056 596.37C567.409 590.59 565.086 582.147 565.086 571.04C565.086 553.473 569.902 538.4 579.536 525.82C589.169 513.127 600.559 506.78 613.706 506.78C617.446 506.78 623.339 507.687 631.386 509.5C624.359 511.313 618.069 514.487 612.516 519.02C607.076 523.44 602.826 528.54 599.766 534.32C593.419 545.767 590.246 557.213 590.246 568.66Z" fill="black" fill-opacity="0.85"/>
</svg>
