<svg width="1333" height="1242" viewBox="0 0 1333 1242" fill="none" xmlns="http://www.w3.org/2000/svg">
<path d="M449.341 240.51C507.325 187.708 582.943 155.749 665.719 155.749C748.463 155.749 824.114 187.708 882.098 240.51L982.404 135.158C898.662 55.5192 787.603 7 665.719 7C543.839 7 432.778 55.5192 349 135.16L449.341 240.51Z" fill="#F0C368"/>
<path d="M1049.62 717.142C1038.37 717.142 1029 707.51 1029 695.377C1029 683.163 1038.38 673.535 1049.62 673.535C1060.86 673.535 1070.23 683.163 1070.23 695.377C1070.23 707.51 1060.86 717.142 1049.62 717.142Z" fill="#1D373F" stroke="#F0C368" stroke-width="6"/>
<path d="M1049.62 816.286C1038.37 816.286 1029 806.721 1029 794.519C1029 782.383 1038.37 772.751 1049.62 772.751C1060.86 772.751 1070.23 782.383 1070.23 794.519C1070.23 806.721 1060.87 816.286 1049.62 816.286Z" fill="#1D373F" stroke="#F0C368" stroke-width="6"/>
<path d="M1049.62 915.502C1038.38 915.502 1029 905.874 1029 893.661C1029 881.525 1038.37 871.893 1049.62 871.893C1060.86 871.893 1070.23 881.525 1070.23 893.661C1070.23 905.877 1060.86 915.502 1049.62 915.502Z" fill="#1D373F" stroke="#F0C368" stroke-width="6"/>
<path d="M1049.62 1014.64C1038.37 1014.64 1029 1005.01 1029 992.877C1029 980.663 1038.38 971.035 1049.62 971.035C1060.86 971.035 1070.23 980.663 1070.23 992.877C1070.23 1005.01 1060.86 1014.64 1049.62 1014.64Z" fill="#1D373F" stroke="#F0C368" stroke-width="6"/>
<path d="M1096.81 844.126C1096.81 939.928 1149.68 1017.64 1214.86 1017.64C1280.03 1017.64 1332.86 939.925 1332.86 844.126C1332.86 748.252 1280.03 670.535 1214.86 670.535C1149.68 670.535 1096.81 748.252 1096.81 844.126Z" fill="#F0C368"/>
<path d="M1049.62 1017.64C1049.62 1045.02 1070.74 1067.25 1096.81 1067.25H1191.24C1217.31 1067.25 1238.44 1045.03 1238.44 1017.64V670.535C1238.44 643.153 1217.31 621 1191.24 621H1096.81C1070.74 621 1049.62 643.15 1049.62 670.535V1017.64Z" fill="#F0C368"/>
<mask id="path-8-inside-1" fill="white">
<path d="M1179 621C1179 456.301 1124.95 298.347 1028.75 181.887C932.54 65.4266 802.056 1.24345e-05 666 0C529.944 -1.24345e-05 399.46 65.4266 303.254 181.887C207.048 298.347 153 456.3 153 621L199.621 621C199.621 471.268 248.758 327.669 336.221 221.793C423.684 115.917 542.309 56.4365 666 56.4365C789.691 56.4365 908.317 115.917 995.779 221.793C1083.24 327.67 1132.38 471.268 1132.38 621H1179Z"/>
</mask>
<path d="M1179 621C1179 456.301 1124.95 298.347 1028.75 181.887C932.54 65.4266 802.056 1.24345e-05 666 0C529.944 -1.24345e-05 399.46 65.4266 303.254 181.887C207.048 298.347 153 456.3 153 621L199.621 621C199.621 471.268 248.758 327.669 336.221 221.793C423.684 115.917 542.309 56.4365 666 56.4365C789.691 56.4365 908.317 115.917 995.779 221.793C1083.24 327.67 1132.38 471.268 1132.38 621H1179Z" stroke="#F0C368" stroke-width="14" mask="url(#path-8-inside-1)"/>
<path d="M303.868 695.377C303.868 707.51 294.497 717.142 283.251 717.142C272.006 717.142 262.637 707.511 262.637 695.377C262.637 683.163 272.012 673.535 283.251 673.535C294.491 673.535 303.868 683.163 303.868 695.377Z" fill="#1D373F" stroke="#F0C368" stroke-width="6"/>
<path d="M303.868 794.519C303.868 806.721 294.502 816.286 283.251 816.286C272 816.286 262.637 806.721 262.637 794.519C262.637 782.383 272.006 772.751 283.251 772.751C294.496 772.751 303.868 782.383 303.868 794.519Z" fill="#1D373F" stroke="#F0C368" stroke-width="6"/>
<path d="M303.868 893.661C303.868 905.874 294.491 915.502 283.251 915.502C272.012 915.502 262.637 905.877 262.637 893.661C262.637 881.524 272.006 871.893 283.251 871.893C294.496 871.893 303.868 881.525 303.868 893.661Z" fill="#1D373F" stroke="#F0C368" stroke-width="6"/>
<path d="M303.868 992.877C303.868 1005.01 294.496 1014.64 283.251 1014.64C272.006 1014.64 262.637 1005.01 262.637 992.877C262.637 980.663 272.012 971.035 283.251 971.035C294.491 971.035 303.868 980.663 303.868 992.877Z" fill="#1D373F" stroke="#F0C368" stroke-width="6"/>
<path d="M236.055 844.126C236.055 939.928 183.185 1017.64 118.01 1017.64C52.834 1017.64 0 939.928 0 844.126C0 748.252 52.834 670.535 118.01 670.535C183.185 670.535 236.055 748.252 236.055 844.126Z" fill="#F0C368"/>
<path d="M283.251 1017.64C283.251 1045.02 262.126 1067.25 236.056 1067.25H141.627C115.557 1067.25 94.4297 1045.03 94.4297 1017.64V670.535C94.4297 643.153 115.557 621 141.627 621H236.056C262.126 621 283.251 643.15 283.251 670.535V1017.64Z" fill="#F0C368"/>
</svg>
