<svg width="1075" height="928" viewBox="0 0 1075 928" fill="none" xmlns="http://www.w3.org/2000/svg">
<path d="M718.272 484.251C776.278 433.332 842.861 362.778 842.861 268.352C842.863 120.382 705.721 0 537.149 0C368.578 0 231.438 120.382 231.438 268.353C231.438 362.778 298.02 433.336 356.028 484.253C383.061 507.982 383.204 551.714 382.502 585.18H377.299C365.191 585.18 355.375 593.796 355.375 604.425V840.858C355.375 851.485 365.191 860.103 377.299 860.103H406.459V908.755C406.459 919.384 416.277 928 428.384 928H645.917C658.024 928 667.842 919.384 667.842 908.755V860.103H697.003C709.11 860.103 718.928 851.485 718.928 840.858V604.425C718.928 593.796 709.11 585.18 697.003 585.18H691.799C691.097 551.71 691.239 507.982 718.272 484.251ZM623.99 889.512H450.306V860.105H623.99V889.512ZM399.224 821.613V780.111H606.275C618.382 780.111 628.2 771.495 628.2 760.866C628.2 750.235 618.382 741.621 606.275 741.621H399.224V623.67H675.077V665.172H478.363C466.254 665.172 456.438 673.79 456.438 684.417C456.438 695.046 466.254 703.662 478.363 703.662H675.077V821.613H399.224ZM578.631 585.18L657.859 371.578C660.56 364.296 658.085 356.3 651.552 351.217C645.022 346.138 635.678 344.943 627.763 348.172L590.989 363.186L557.649 316.557C553.582 310.868 546.456 307.427 538.778 307.544C531.127 307.637 524.082 311.226 520.195 317.011L488.891 363.601L445.702 347.847C437.75 344.949 428.605 346.4 422.319 351.562C416.031 356.721 413.764 364.631 416.52 371.79L498.783 585.18H426.358C427.141 546.753 426.676 491.835 387.032 457.034C331.773 408.531 275.282 348.182 275.282 268.353C275.282 141.607 392.754 38.4921 537.145 38.4921C681.536 38.4921 799.01 141.607 799.01 268.353C799.01 348.182 742.521 408.531 687.262 457.034C647.621 491.833 647.154 546.753 647.934 585.18H578.631ZM538.675 568.569L473.57 399.693L489.678 405.569C499.781 409.251 511.421 405.84 516.974 397.573L539.664 363.805L564.132 398.025C570.005 406.239 581.924 409.331 591.95 405.246L600.564 401.728L538.675 568.569Z" fill="#F0C368"/>
<path d="M1052.37 212.314H956.216C944.109 212.314 934.291 220.93 934.291 231.559C934.291 242.188 944.109 250.804 956.216 250.804H1052.37C1064.48 250.804 1074.3 242.188 1074.3 231.559C1074.3 220.928 1064.48 212.314 1052.37 212.314Z" fill="#F0C368"/>
<path d="M928.922 170.526C933.456 170.526 938.032 169.294 941.954 166.745L1000.96 128.374C1010.69 122.048 1012.74 109.995 1005.53 101.454C998.318 92.9127 984.584 91.119 974.86 97.4468L915.853 135.814C906.123 142.142 904.077 154.195 911.286 162.734C915.587 167.83 922.211 170.526 928.922 170.526Z" fill="#F0C368"/>
<path d="M1000.96 334.738L941.952 296.371C932.219 290.045 918.49 291.84 911.286 300.377C904.077 308.92 906.123 320.972 915.853 327.297L974.858 365.668C978.783 368.218 983.356 369.45 987.89 369.45C994.601 369.45 1001.22 366.756 1005.52 361.658C1012.73 353.119 1010.69 341.065 1000.96 334.738Z" fill="#F0C368"/>
<path d="M140.008 231.559C140.008 220.93 130.19 212.314 118.084 212.314H21.9246C9.81563 212.314 0 220.93 0 231.559C0 242.188 9.81563 250.804 21.9246 250.804H118.084C130.192 250.804 140.008 242.186 140.008 231.559Z" fill="#F0C368"/>
<path d="M158.454 135.814L99.4458 97.4472C89.7157 91.1213 75.9865 92.9169 68.7799 101.456C61.5711 109.997 63.6167 122.048 73.3468 128.374L132.355 166.745C136.279 169.295 140.853 170.527 145.387 170.527C152.098 170.527 158.721 167.832 163.02 162.734C170.231 154.195 168.186 142.142 158.454 135.814Z" fill="#F0C368"/>
<path d="M132.355 296.371L73.3474 334.738C63.6151 341.066 61.5718 353.119 68.7806 361.658C73.08 366.754 79.7034 369.45 86.4145 369.45C90.9485 369.45 95.5241 368.219 99.4465 365.669L158.454 327.298C168.184 320.972 170.23 308.919 163.021 300.38C155.817 291.839 142.083 290.043 132.355 296.371Z" fill="#F0C368"/>
</svg>
