<svg width="568" height="1253" viewBox="0 0 568 1253" fill="none" xmlns="http://www.w3.org/2000/svg">
<path d="M554.708 1204.9L544.216 1225.19L535.821 1238.06L515.536 1250.15L61.906 1252.1L45.8173 1246.25L30.0784 1235.72L19.5858 1216.6L11.8913 1196.71L5.5957 1174.47V83.7047L11.8913 62.6384L19.5858 43.5227L36.374 20.1157L59.8074 6.85175L88.1374 1H435.442H477.762H503.994L527.427 13.0936L537.92 25.9675L547.363 43.5227L554.708 62.6384L560.304 83.7047V1155.36V1183.83L554.708 1204.9Z" fill="#A4A1A0" stroke="black"/>
<path d="M548.061 1200.22L541.766 1214.26L529.874 1227.92L515.534 1237.67L500.495 1244.69H61.205L51.7617 1239.62L36.0228 1228.7L23.0819 1209.97L18.1854 1195.93L12.5894 1179.93V1160.43V91.8972V73.9518L16.0869 62.6384L20.6337 46.6436L27.279 31.4291L38.1213 19.7256L50.0129 11.5331L68.5499 5.6814L84.6385 1H471.116H490.702L506.091 5.6814L518.682 11.5331L530.574 19.7256L539.318 31.4291L545.263 42.7425L550.51 56.3966L553.657 73.9518V1166.67V1182.66L548.061 1200.22Z" fill="#111514"/>
<path d="M533.022 1220.11L523.929 1231.43L503.293 1236.11H45.1169L28.3287 1220.11L19.2352 1202.56L12.5898 1177.59V80.1937L19.9347 57.9571L27.6292 38.4512L41.6194 26.3576L60.1563 15.0442L79.3927 9.58261H481.259L501.545 15.0442L521.481 26.3576L531.623 38.4512L539.668 57.9571L546.663 80.1937V1154.18V1177.59L540.717 1202.56L533.022 1220.11Z" fill="#353B37" stroke="black"/>
<path d="M532.324 1187.73L521.832 1207.24L512.038 1224.02L502.245 1231.04H65.4037L55.9604 1227.92L42.32 1217.77L32.1772 1199.05L21.6846 1179.54V1156.53V68.4902L29.0294 48.5942L45.4678 23.2367L74.4973 15.0442H380.531H413.758H498.048L516.585 23.2367L529.176 48.5942L538.27 68.4902V1056.66V1114.78V1156.53L532.324 1187.73Z" fill="black" stroke="black"/>
<path d="M141.65 28.6984V15.4344H413.758V28.6984V40.792L407.813 53.2758L392.423 63.4188H257.768H228.039H200.759H176.276H157.739L148.296 53.2758L141.65 40.792V28.6984Z" fill="black" stroke="black"/>
<path d="M510.99 1203.73L493.502 1216.6H73.7982L56.6603 1203.73L43.7194 1184.22L34.9756 1166.67V80.5839L43.7194 58.3472L56.6603 40.4019L73.7982 29.0885H143.049V40.4019L151.793 58.3472L166.133 67.71H398.369L411.31 58.3472L421.453 40.4019V29.0885H434.394H469.019H493.502L510.99 40.4019L523.93 58.3472V80.5839V1166.67V1184.22L510.99 1203.73Z" fill="#211F20"/>
<rect x="244.13" y="39.2316" width="67.1526" height="10.9233" rx="5.46163" fill="#141412"/>
<ellipse cx="365.142" cy="44.6931" rx="11.1921" ry="12.4837" fill="#141412"/>
<ellipse cx="365.144" cy="44.6932" rx="6.92844" ry="7.72802" fill="#173460"/>
<path d="M560.208 1082.51H554.008V1094.89H564.5V1079.28L560.208 1082.51Z" fill="#1D2320"/>
<path d="M6.20017 1098.12H0V1110.49H10.4926V1094.89L6.20017 1098.12Z" fill="#1D2320"/>
<path d="M8.2988 153.253H2.09863V165.629H12.5912V150.025L8.2988 153.253Z" fill="#1D2320"/>
<path d="M556.013 153.253H549.812V165.629H560.305V150.025L556.013 153.253Z" fill="#1D2320"/>
<rect x="561.705" y="267.84" width="6.29556" height="152.145" rx="3.14778" fill="#A0A9A7"/>
<rect x="0.699219" y="316.214" width="4.19704" height="99.8699" rx="2.09852" fill="#A0A9A7"/>
<rect x="0.699219" y="437.931" width="4.19704" height="99.8699" rx="2.09852" fill="#A0A9A7"/>
<rect x="0.700195" y="220.246" width="4.19704" height="62.4187" rx="2.09852" fill="#A0A9A7"/>
<rect width="490.068" height="476.416" rx="1" transform="matrix(-1 0 0 1 524.538 126.373)" fill="#211F20"/>
<path d="M234.084 294.926V280.515H248.832V285.694H247.271V289.522H248.832V300.329H232.869V298.978H232.002V295.376H232.869V294.926H234.084Z" fill="#59BE90"/>
<path d="M165.268 189.312H91.5494V186.068H89.2907H88.0586V182.013H89.2907V180.121H91.5494V166.875H164.036V183.365H165.884L167.116 184.716V187.419L165.268 189.312Z" fill="#6260C0"/>
<path d="M135.895 225.924V219.033H180.849V230.419H177.654L175.829 231.917V234.014L177.654 235.512H180.849V243.303H160.083V250.794H158.258H154.835V243.303H135.895V230.419H140.458V225.924H135.895Z" fill="#EBA4C7"/>
<path d="M65.6161 182.193C65.4633 182.174 65.3479 182.096 65.2699 181.961C65.1986 181.833 65.2016 181.693 65.279 181.541L69.3428 173.392C69.3779 173.316 69.4334 173.26 69.5094 173.225C69.5854 173.191 69.6671 173.179 69.7543 173.19C69.9144 173.211 70.0258 173.292 70.0888 173.433C70.1523 173.566 70.1532 173.703 70.0914 173.843L66.0268 182.003C65.9839 182.086 65.9247 182.141 65.8493 182.168C65.7738 182.195 65.6961 182.204 65.6161 182.193ZM70.7302 182.851C70.5775 182.831 70.4621 182.754 70.384 182.618C70.3127 182.491 70.3158 182.351 70.3932 182.199L74.457 174.05C74.492 173.973 74.5476 173.918 74.6236 173.883C74.6996 173.849 74.7812 173.837 74.8685 173.848C75.0285 173.869 75.14 173.95 75.2029 174.09C75.2664 174.224 75.2673 174.361 75.2055 174.501L71.1409 182.66C71.098 182.743 71.0388 182.799 70.9634 182.826C70.8879 182.853 70.8102 182.861 70.7302 182.851Z" fill="#6260C0"/>
<path d="M121.037 235.941C120.949 235.941 120.872 235.919 120.806 235.875C120.74 235.831 120.681 235.758 120.63 235.656C120.197 234.769 119.874 233.885 119.66 233.005C119.447 232.118 119.341 231.231 119.34 230.344C119.34 229.456 119.446 228.572 119.658 227.692C119.87 226.812 120.193 225.932 120.625 225.052C120.713 224.861 120.849 224.765 121.032 224.765C121.149 224.765 121.248 224.805 121.329 224.886C121.41 224.967 121.45 225.066 121.45 225.183C121.45 225.271 121.428 225.352 121.384 225.425C120.578 227.061 120.176 228.704 120.176 230.354C120.177 231.175 120.28 232 120.485 232.829C120.691 233.657 120.996 234.478 121.399 235.292C121.444 235.38 121.466 235.457 121.466 235.523C121.466 235.64 121.425 235.739 121.345 235.82C121.264 235.901 121.161 235.941 121.037 235.941Z" fill="#A5A3DA"/>
<path d="M244.712 236.618C243.568 236.619 242.996 236.047 242.995 234.903L242.994 232.329C242.994 231.75 242.704 231.46 242.124 231.461C242.007 231.461 241.904 231.421 241.816 231.34C241.736 231.259 241.695 231.16 241.695 231.043C241.695 230.918 241.736 230.816 241.816 230.735C241.904 230.654 242.007 230.614 242.124 230.614C242.703 230.613 242.993 230.323 242.993 229.744L242.992 227.17C242.991 226.019 243.563 225.443 244.707 225.442C244.824 225.442 244.923 225.486 245.004 225.574C245.085 225.654 245.125 225.757 245.125 225.881C245.125 225.999 245.085 226.098 245.004 226.179C244.924 226.259 244.825 226.3 244.707 226.3C244.128 226.3 243.838 226.59 243.839 227.169L243.84 229.743C243.84 230.022 243.803 230.268 243.73 230.481C243.657 230.693 243.551 230.88 243.411 231.042C243.697 231.357 243.841 231.786 243.841 232.328L243.842 234.902C243.842 235.474 244.132 235.76 244.711 235.76C244.829 235.76 244.928 235.8 245.008 235.881C245.089 235.969 245.13 236.071 245.13 236.188C245.13 236.313 245.089 236.416 245.009 236.497C244.928 236.577 244.829 236.618 244.712 236.618Z" fill="#A5A3DA"/>
<path d="M300.516 345.013C299.372 345.014 298.8 344.442 298.8 343.298L298.799 340.724C298.798 340.145 298.509 339.856 297.929 339.856C297.812 339.856 297.709 339.816 297.621 339.735C297.54 339.655 297.5 339.556 297.5 339.438C297.5 339.314 297.54 339.211 297.621 339.13C297.709 339.05 297.811 339.009 297.929 339.009C298.508 339.009 298.798 338.719 298.797 338.139L298.796 335.565C298.796 334.414 299.368 333.838 300.512 333.837C300.629 333.837 300.728 333.881 300.809 333.969C300.889 334.05 300.93 334.152 300.93 334.277C300.93 334.394 300.889 334.493 300.809 334.574C300.728 334.655 300.629 334.695 300.512 334.695C299.933 334.696 299.643 334.986 299.643 335.565L299.644 338.139C299.645 338.418 299.608 338.663 299.535 338.876C299.462 339.089 299.355 339.276 299.216 339.437C299.502 339.752 299.645 340.181 299.646 340.724L299.647 343.298C299.647 343.87 299.937 344.156 300.516 344.155C300.633 344.155 300.732 344.195 300.813 344.276C300.894 344.364 300.934 344.467 300.934 344.584C300.934 344.709 300.894 344.811 300.813 344.892C300.733 344.973 300.634 345.013 300.516 345.013Z" fill="#A5A3DA"/>
<path d="M151.54 458.945C152.684 458.946 153.256 458.375 153.257 457.231L153.258 454.657C153.258 454.077 153.548 453.788 154.127 453.788C154.245 453.788 154.347 453.748 154.436 453.667C154.516 453.587 154.557 453.488 154.557 453.371C154.557 453.246 154.516 453.143 154.436 453.062C154.348 452.982 154.245 452.941 154.128 452.941C153.549 452.941 153.259 452.651 153.259 452.072L153.26 449.498C153.261 448.346 152.689 447.77 151.545 447.769C151.428 447.769 151.329 447.813 151.248 447.901C151.167 447.982 151.127 448.084 151.127 448.209C151.127 448.326 151.167 448.425 151.248 448.506C151.328 448.587 151.427 448.627 151.545 448.627C152.124 448.628 152.414 448.918 152.413 449.497L152.412 452.071C152.412 452.35 152.449 452.595 152.522 452.808C152.595 453.021 152.701 453.208 152.841 453.369C152.555 453.684 152.411 454.113 152.411 454.656L152.41 457.23C152.41 457.802 152.12 458.088 151.541 458.087C151.423 458.087 151.324 458.127 151.244 458.208C151.163 458.296 151.122 458.399 151.122 458.516C151.122 458.641 151.163 458.743 151.243 458.824C151.324 458.905 151.423 458.945 151.54 458.945Z" fill="#A5A3DA"/>
<path d="M122.529 510.521C123.673 510.521 124.246 509.95 124.246 508.806L124.247 506.232C124.248 505.652 124.537 505.363 125.117 505.363C125.234 505.364 125.337 505.323 125.425 505.243C125.505 505.162 125.546 505.063 125.546 504.946C125.546 504.821 125.506 504.718 125.425 504.638C125.337 504.557 125.234 504.517 125.117 504.516C124.538 504.516 124.248 504.226 124.248 503.647L124.25 501.073C124.25 499.921 123.678 499.345 122.534 499.345C122.417 499.344 122.318 499.388 122.237 499.476C122.157 499.557 122.116 499.66 122.116 499.784C122.116 499.902 122.156 500.001 122.237 500.081C122.318 500.162 122.417 500.202 122.534 500.203C123.113 500.203 123.403 500.493 123.403 501.072L123.401 503.646C123.401 503.925 123.438 504.171 123.511 504.383C123.584 504.596 123.691 504.783 123.83 504.944C123.544 505.26 123.401 505.689 123.4 506.231L123.399 508.805C123.399 509.377 123.109 509.663 122.53 509.663C122.413 509.662 122.313 509.703 122.233 509.783C122.152 509.871 122.112 509.974 122.112 510.091C122.112 510.216 122.152 510.319 122.233 510.399C122.313 510.48 122.412 510.52 122.529 510.521Z" fill="#A5A3DA"/>
<path d="M298.482 396.298C298.358 396.298 298.255 396.258 298.174 396.178C298.094 396.097 298.053 395.994 298.053 395.87L298.049 385.552C298.049 385.434 298.089 385.335 298.17 385.255C298.25 385.167 298.353 385.122 298.477 385.122L300.215 385.121C300.34 385.121 300.443 385.165 300.524 385.253C300.612 385.333 300.656 385.432 300.656 385.55C300.656 385.674 300.612 385.781 300.524 385.869C300.443 385.95 300.341 385.99 300.216 385.99L298.907 385.991L298.911 395.429L300.22 395.428C300.345 395.428 300.447 395.468 300.528 395.549C300.616 395.637 300.66 395.743 300.66 395.868C300.66 395.992 300.616 396.095 300.528 396.176C300.448 396.257 300.345 396.297 300.22 396.297L298.482 396.298Z" fill="#A5A3DA"/>
<path d="M388.572 397.465C388.448 397.465 388.341 397.425 388.253 397.344C388.173 397.263 388.132 397.161 388.132 397.036C388.132 396.911 388.172 396.805 388.253 396.717C388.341 396.636 388.447 396.596 388.572 396.596L389.881 396.595L389.877 387.157L388.568 387.158C388.443 387.158 388.337 387.118 388.249 387.037C388.168 386.949 388.128 386.843 388.128 386.718C388.128 386.601 388.168 386.502 388.248 386.421C388.336 386.333 388.443 386.289 388.567 386.289L390.305 386.287C390.423 386.287 390.522 386.331 390.602 386.419C390.691 386.5 390.735 386.599 390.735 386.716L390.739 397.034C390.739 397.159 390.695 397.261 390.607 397.342C390.527 397.423 390.428 397.463 390.31 397.463L388.572 397.465Z" fill="#A5A3DA"/>
<path d="M202.209 236.618C202.121 236.618 202.044 236.596 201.978 236.552C201.912 236.509 201.853 236.435 201.802 236.333C201.368 235.446 201.045 234.562 200.832 233.682C200.619 232.795 200.513 231.908 200.512 231.021C200.512 230.133 200.618 229.249 200.83 228.369C201.042 227.489 201.365 226.609 201.797 225.729C201.885 225.538 202.02 225.442 202.204 225.442C202.321 225.442 202.42 225.482 202.501 225.563C202.582 225.644 202.622 225.743 202.622 225.86C202.622 225.948 202.6 226.029 202.556 226.102C201.75 227.738 201.347 229.381 201.348 231.031C201.349 231.852 201.452 232.677 201.657 233.506C201.863 234.334 202.168 235.155 202.571 235.969C202.615 236.057 202.637 236.134 202.637 236.2C202.638 236.317 202.597 236.416 202.517 236.497C202.436 236.578 202.333 236.618 202.209 236.618Z" fill="#A5A3DA"/>
<path d="M214.39 293.73C214.302 293.73 214.225 293.709 214.159 293.665C214.093 293.621 214.035 293.547 213.983 293.445C213.55 292.558 213.227 291.674 213.014 290.794C212.801 289.907 212.694 289.02 212.694 288.133C212.693 287.245 212.799 286.362 213.012 285.481C213.224 284.601 213.546 283.721 213.979 282.841C214.066 282.65 214.202 282.555 214.385 282.554C214.503 282.554 214.602 282.595 214.682 282.675C214.763 282.756 214.804 282.855 214.804 282.972C214.804 283.06 214.782 283.141 214.738 283.214C213.932 284.85 213.529 286.493 213.53 288.143C213.53 288.964 213.633 289.789 213.839 290.618C214.045 291.446 214.349 292.267 214.753 293.081C214.797 293.169 214.819 293.246 214.819 293.312C214.819 293.429 214.779 293.528 214.698 293.609C214.618 293.69 214.515 293.73 214.39 293.73Z" fill="#A5A3DA"/>
<path d="M306.536 292.856C306.624 292.856 306.701 292.834 306.767 292.79C306.834 292.746 306.892 292.673 306.944 292.57C307.377 291.683 307.7 290.799 307.913 289.92C308.126 289.032 308.233 288.145 308.233 287.258C308.233 286.371 308.127 285.487 307.915 284.607C307.703 283.726 307.381 282.846 306.948 281.966C306.86 281.775 306.725 281.68 306.541 281.68C306.424 281.679 306.325 281.72 306.244 281.8C306.164 281.881 306.123 281.98 306.123 282.097C306.123 282.185 306.145 282.266 306.189 282.339C306.995 283.975 307.398 285.618 307.397 287.268C307.397 288.09 307.294 288.914 307.088 289.743C306.882 290.571 306.577 291.393 306.174 292.206C306.13 292.294 306.108 292.371 306.108 292.437C306.108 292.555 306.148 292.654 306.229 292.734C306.309 292.815 306.412 292.855 306.536 292.856Z" fill="#A5A3DA"/>
<path d="M318.79 295.463C318.719 295.446 318.665 295.411 318.628 295.357C318.598 295.312 318.587 295.257 318.596 295.192C318.611 295.083 318.657 294.989 318.734 294.91C318.81 294.838 318.888 294.759 318.966 294.672C319.051 294.587 319.104 294.473 319.124 294.327C319.142 294.196 319.132 294.082 319.094 293.982C319.056 293.883 319.006 293.789 318.945 293.699C318.89 293.619 318.843 293.532 318.804 293.44C318.766 293.341 318.756 293.23 318.773 293.107C318.798 292.925 318.875 292.793 319.004 292.712C319.14 292.632 319.298 292.613 319.476 292.655C319.69 292.706 319.853 292.835 319.964 293.042C320.077 293.241 320.112 293.494 320.07 293.799C320.042 294.002 319.984 294.21 319.896 294.421C319.807 294.633 319.7 294.821 319.575 294.986C319.448 295.159 319.316 295.288 319.178 295.376C319.041 295.463 318.912 295.492 318.79 295.463ZM319.788 289.106C319.617 289.065 319.475 288.971 319.363 288.824C319.259 288.672 319.219 288.505 319.244 288.323C319.269 288.141 319.351 288.003 319.489 287.909C319.627 287.814 319.786 287.788 319.964 287.831C320.135 287.872 320.269 287.971 320.365 288.129C320.469 288.281 320.509 288.445 320.485 288.619C320.461 288.794 320.38 288.928 320.242 289.023C320.111 289.119 319.959 289.147 319.788 289.106Z" fill="#A5A3DA"/>
<path d="M145.615 517.207C145.543 517.19 145.489 517.155 145.452 517.101C145.422 517.056 145.411 517.001 145.42 516.936C145.435 516.827 145.481 516.733 145.558 516.654C145.635 516.582 145.712 516.503 145.79 516.416C145.875 516.332 145.928 516.217 145.948 516.071C145.966 515.941 145.956 515.826 145.918 515.727C145.88 515.628 145.831 515.533 145.769 515.443C145.714 515.363 145.667 515.276 145.628 515.185C145.59 515.086 145.58 514.974 145.597 514.851C145.622 514.669 145.699 514.537 145.828 514.456C145.964 514.376 146.122 514.357 146.3 514.4C146.514 514.451 146.677 514.579 146.788 514.786C146.901 514.986 146.936 515.238 146.894 515.543C146.866 515.746 146.808 515.954 146.72 516.165C146.632 516.377 146.525 516.565 146.399 516.73C146.272 516.903 146.14 517.033 146.002 517.12C145.865 517.207 145.736 517.236 145.615 517.207ZM146.612 510.85C146.441 510.809 146.3 510.715 146.187 510.568C146.083 510.416 146.043 510.249 146.068 510.067C146.093 509.886 146.175 509.747 146.313 509.653C146.452 509.558 146.61 509.532 146.788 509.575C146.959 509.616 147.093 509.715 147.189 509.873C147.293 510.026 147.334 510.189 147.309 510.363C147.285 510.538 147.204 510.672 147.066 510.767C146.935 510.863 146.784 510.891 146.612 510.85Z" fill="#A5A3DA"/>
<path d="M404.207 404.66C404.136 404.643 404.082 404.607 404.045 404.554C404.014 404.509 404.004 404.454 404.013 404.388C404.028 404.279 404.074 404.185 404.151 404.106C404.227 404.034 404.304 403.955 404.383 403.869C404.468 403.784 404.521 403.669 404.541 403.524C404.559 403.393 404.549 403.278 404.511 403.179C404.473 403.08 404.423 402.986 404.362 402.896C404.307 402.815 404.26 402.729 404.221 402.637C404.183 402.538 404.172 402.427 404.189 402.303C404.214 402.122 404.292 401.99 404.421 401.908C404.557 401.828 404.714 401.809 404.893 401.852C405.107 401.903 405.269 402.032 405.381 402.239C405.493 402.438 405.529 402.69 405.487 402.995C405.459 403.199 405.4 403.406 405.312 403.618C405.224 403.829 405.117 404.018 404.991 404.183C404.864 404.355 404.732 404.485 404.595 404.572C404.458 404.66 404.329 404.689 404.207 404.66ZM405.205 398.302C405.034 398.261 404.892 398.168 404.78 398.021C404.676 397.868 404.636 397.701 404.661 397.52C404.686 397.338 404.768 397.2 404.906 397.105C405.044 397.011 405.202 396.985 405.381 397.027C405.552 397.068 405.686 397.168 405.782 397.326C405.886 397.478 405.926 397.641 405.902 397.816C405.878 397.99 405.797 398.125 405.659 398.219C405.527 398.315 405.376 398.343 405.205 398.302Z" fill="#A5A3DA"/>
<path d="M346.58 401.779C346.509 401.762 346.455 401.726 346.418 401.673C346.388 401.628 346.377 401.573 346.386 401.507C346.401 401.398 346.447 401.304 346.524 401.225C346.6 401.153 346.677 401.074 346.756 400.988C346.841 400.903 346.894 400.788 346.914 400.643C346.932 400.512 346.922 400.397 346.884 400.298C346.846 400.199 346.796 400.105 346.735 400.015C346.68 399.934 346.633 399.848 346.594 399.756C346.556 399.657 346.546 399.546 346.563 399.422C346.588 399.241 346.665 399.109 346.794 399.027C346.93 398.947 347.087 398.928 347.266 398.971C347.48 399.022 347.643 399.151 347.754 399.358C347.866 399.557 347.902 399.809 347.86 400.115C347.832 400.318 347.774 400.525 347.685 400.737C347.597 400.949 347.49 401.137 347.364 401.302C347.238 401.474 347.105 401.604 346.968 401.691C346.831 401.779 346.702 401.808 346.58 401.779Z" fill="#A5A3DA"/>
<path d="M272.647 341.665C272.53 341.662 272.432 341.619 272.352 341.536C272.273 341.446 272.234 341.342 272.236 341.225C272.238 341.108 272.28 341.01 272.362 340.931C272.444 340.845 272.543 340.804 272.661 340.807L276.542 340.909C276.659 340.912 276.758 340.959 276.837 341.049C276.916 341.132 276.955 341.232 276.954 341.349C276.952 341.466 276.91 341.568 276.828 341.654C276.746 341.732 276.646 341.77 276.529 341.767L272.647 341.665ZM272.608 344.249C272.491 344.246 272.393 344.203 272.313 344.121C272.234 344.031 272.195 343.927 272.197 343.81C272.199 343.685 272.241 343.583 272.322 343.505C272.404 343.426 272.504 343.388 272.621 343.392L276.503 343.494C276.62 343.497 276.718 343.544 276.798 343.634C276.877 343.716 276.916 343.816 276.914 343.934C276.912 344.051 276.871 344.149 276.789 344.228C276.707 344.306 276.607 344.344 276.49 344.341L272.608 344.249Z" fill="#A5A3DA"/>
<path d="M225.812 282.192C225.9 282.192 225.973 282.233 226.032 282.313C226.098 282.394 226.109 282.485 226.065 282.588C225.955 282.845 225.889 283.061 225.867 283.237C225.845 283.413 225.842 283.567 225.856 283.699C225.871 283.824 225.893 283.945 225.922 284.062C225.952 284.18 225.967 284.312 225.967 284.458C225.967 284.634 225.912 284.777 225.802 284.887C225.692 284.99 225.556 285.042 225.395 285.042C225.212 285.042 225.065 284.965 224.955 284.811C224.845 284.65 224.79 284.433 224.79 284.162C224.789 283.993 224.822 283.799 224.888 283.579C224.961 283.359 225.049 283.143 225.152 282.93C225.255 282.717 225.364 282.541 225.482 282.402C225.599 282.262 225.709 282.192 225.812 282.192ZM227.418 282.191C227.506 282.191 227.579 282.231 227.638 282.312C227.704 282.393 227.715 282.484 227.671 282.587C227.561 282.844 227.495 283.06 227.473 283.236C227.451 283.412 227.448 283.566 227.462 283.698C227.477 283.823 227.499 283.944 227.528 284.061C227.558 284.178 227.573 284.31 227.573 284.457C227.573 284.633 227.518 284.776 227.408 284.886C227.298 284.989 227.162 285.04 227.001 285.04C226.818 285.041 226.671 284.964 226.561 284.81C226.451 284.649 226.396 284.432 226.396 284.161C226.395 283.992 226.428 283.798 226.494 283.578C226.567 283.358 226.655 283.141 226.758 282.929C226.861 282.716 226.97 282.54 227.088 282.4C227.205 282.261 227.315 282.191 227.418 282.191Z" fill="#A5A3DA"/>
<path d="M225.812 282.192C225.9 282.192 225.973 282.233 226.032 282.313C226.098 282.394 226.109 282.485 226.065 282.588C225.955 282.845 225.889 283.061 225.867 283.237C225.845 283.413 225.842 283.567 225.856 283.699C225.871 283.824 225.893 283.945 225.922 284.062C225.952 284.18 225.967 284.312 225.967 284.458C225.967 284.634 225.912 284.777 225.802 284.887C225.692 284.99 225.556 285.042 225.395 285.042C225.212 285.042 225.065 284.965 224.955 284.811C224.845 284.65 224.79 284.433 224.79 284.162C224.789 283.993 224.822 283.799 224.888 283.579C224.961 283.359 225.049 283.143 225.152 282.93C225.255 282.717 225.364 282.541 225.482 282.402C225.599 282.262 225.709 282.192 225.812 282.192ZM227.418 282.191C227.506 282.191 227.579 282.231 227.638 282.312C227.704 282.393 227.715 282.484 227.671 282.587C227.561 282.844 227.495 283.06 227.473 283.236C227.451 283.412 227.448 283.566 227.462 283.698C227.477 283.823 227.499 283.944 227.528 284.061C227.558 284.178 227.573 284.31 227.573 284.457C227.573 284.633 227.518 284.776 227.408 284.886C227.298 284.989 227.162 285.04 227.001 285.04C226.818 285.041 226.671 284.964 226.561 284.81C226.451 284.649 226.396 284.432 226.396 284.161C226.395 283.992 226.428 283.798 226.494 283.578C226.567 283.358 226.655 283.141 226.758 282.929C226.861 282.716 226.97 282.54 227.088 282.4C227.205 282.261 227.315 282.191 227.418 282.191Z" fill="#59BE90"/>
<path d="M295.338 282.192C295.25 282.192 295.176 282.233 295.118 282.313C295.052 282.394 295.041 282.485 295.085 282.588C295.194 282.845 295.26 283.061 295.282 283.237C295.304 283.413 295.308 283.567 295.293 283.699C295.278 283.824 295.256 283.945 295.227 284.062C295.198 284.18 295.183 284.312 295.183 284.458C295.183 284.634 295.238 284.777 295.348 284.887C295.458 284.99 295.593 285.042 295.755 285.042C295.938 285.042 296.085 284.965 296.195 284.811C296.305 284.65 296.36 284.433 296.36 284.162C296.36 283.993 296.327 283.799 296.261 283.579C296.188 283.359 296.1 283.143 295.997 282.93C295.895 282.717 295.785 282.541 295.668 282.402C295.55 282.262 295.44 282.192 295.338 282.192ZM293.732 282.191C293.644 282.191 293.57 282.231 293.512 282.312C293.446 282.393 293.435 282.484 293.479 282.587C293.588 282.844 293.654 283.06 293.676 283.236C293.698 283.412 293.702 283.566 293.687 283.698C293.672 283.823 293.65 283.944 293.621 284.061C293.592 284.178 293.577 284.31 293.577 284.457C293.577 284.633 293.632 284.776 293.742 284.886C293.852 284.989 293.987 285.04 294.149 285.04C294.332 285.041 294.479 284.964 294.589 284.81C294.699 284.649 294.754 284.432 294.754 284.161C294.754 283.992 294.721 283.798 294.655 283.578C294.582 283.358 294.494 283.141 294.391 282.929C294.289 282.716 294.179 282.54 294.062 282.4C293.944 282.261 293.834 282.191 293.732 282.191Z" fill="#59BE90"/>
<path d="M215.744 236.618C215.832 236.618 215.909 236.596 215.975 236.552C216.041 236.509 216.099 236.435 216.151 236.333C216.584 235.446 216.907 234.562 217.12 233.682C217.333 232.795 217.44 231.908 217.44 231.021C217.44 230.133 217.334 229.249 217.122 228.369C216.91 227.489 216.588 226.609 216.155 225.729C216.067 225.538 215.932 225.442 215.748 225.442C215.631 225.442 215.532 225.482 215.451 225.563C215.371 225.644 215.33 225.743 215.33 225.86C215.33 225.948 215.352 226.029 215.396 226.102C216.202 227.738 216.605 229.381 216.604 231.031C216.604 231.852 216.501 232.677 216.295 233.506C216.089 234.334 215.784 235.155 215.381 235.969C215.337 236.057 215.315 236.134 215.315 236.2C215.315 236.317 215.355 236.416 215.436 236.497C215.516 236.578 215.619 236.618 215.744 236.618Z" fill="#A5A3DA"/>
<path d="M133.809 509.646C133.897 509.646 133.974 509.624 134.04 509.581C134.106 509.537 134.165 509.463 134.216 509.361C134.649 508.474 134.972 507.59 135.185 506.71C135.398 505.823 135.505 504.936 135.505 504.049C135.506 503.161 135.4 502.278 135.188 501.397C134.975 500.517 134.653 499.637 134.221 498.757C134.133 498.566 133.997 498.471 133.814 498.47C133.696 498.47 133.597 498.511 133.517 498.591C133.436 498.672 133.396 498.771 133.396 498.888C133.396 498.976 133.418 499.057 133.462 499.13C134.267 500.766 134.67 502.409 134.669 504.059C134.669 504.88 134.566 505.705 134.36 506.534C134.155 507.362 133.85 508.183 133.446 508.997C133.402 509.085 133.38 509.162 133.38 509.228C133.38 509.345 133.42 509.444 133.501 509.525C133.582 509.606 133.684 509.646 133.809 509.646Z" fill="#A5A3DA"/>
<ellipse cx="142.759" cy="182.61" rx="1.7716" ry="2.0397" fill="#132218"/>
<ellipse cx="240.859" cy="295.085" rx="1.7716" ry="2.0397" fill="#132218"/>
<ellipse cx="139.215" cy="238.848" rx="1.7716" ry="2.0397" fill="#132218"/>
<ellipse cx="131.241" cy="228.358" rx="1.7716" ry="2.0397" fill="#EBA4C7"/>
<ellipse cx="139.215" cy="295.085" rx="1.7716" ry="2.0397" fill="#132218"/>
<ellipse cx="172.213" cy="168.915" rx="1.7716" ry="2.0397" fill="#6260C0"/>
<ellipse cx="214.95" cy="181.444" rx="1.7716" ry="2.0397" fill="#6260C0"/>
<rect x="147.852" y="179.988" width="10.6296" height="4.95356" rx="2.47678" fill="#132218"/>
<path d="M183.033 166.875V173.128H184.027V172.086H185.418V173.128H186.411V177.557H185.815H182.636V180.683H180.848V184.852H183.033V185.373V189.02H209.858V166.875H183.033Z" fill="#6260C0"/>
<rect x="198.122" y="180.862" width="8.63653" height="4.95356" rx="2.47678" fill="#132218"/>
<path d="M147.261 289.549H143.776H140.987V286.718V284.241L141.917 282.472H147.261V274.688H192.806V304.409H147.261V296.625H150.282H152.606V294.502V292.733L150.282 290.964L147.261 289.549Z" fill="#F2A58B"/>
<ellipse cx="187.712" cy="287.509" rx="1.7716" ry="2.0397" fill="#132218"/>
<rect x="150.508" y="280.515" width="10.6296" height="4.95356" rx="2.47678" fill="#132218"/>
<ellipse cx="261.013" cy="291.588" rx="8.41508" ry="11.0727" fill="#59BE90"/>
<path d="M275.163 291.336L270.758 298.927V301.204H292.017V299.939L279.951 281.973L276.12 287.287H277.078H278.227H279.951V291.336H275.163Z" fill="#59BE90"/>
<path d="M147.852 353.653V328.594H194.577V353.653H147.852Z" fill="#EBA4C7"/>
<rect x="178.854" y="336.171" width="10.6296" height="4.95356" rx="2.47678" fill="#132218"/>
<path d="M207.8 327.72V337.469L208.032 338.078H215.452H216.844V339.296V342.038V343.561L215.916 344.17H204.321V349.654H208.032V354.528L253.483 354.223L253.019 328.33L207.8 327.72Z" fill="#A5A3DA"/>
<rect x="167.118" y="381.626" width="107.403" height="20.6884" fill="#F2A58B"/>
<rect x="258.575" y="390.077" width="10.6296" height="4.95356" rx="2.47678" fill="#132218"/>
<rect x="314.827" y="379.878" width="19.4876" height="22.4367" fill="#EE7878"/>
<path d="M365.87 379.004L377.473 402.388H354.268L365.87 379.004Z" fill="#EE7878"/>
<rect x="34.4707" y="525.893" width="490.068" height="553.311" fill="#211F20"/>
<path d="M273.695 593.378H223.372L219.824 594.657L217.566 596.736L216.437 598.655V601.374L216.759 603.293L217.727 604.892L219.824 606.491L223.372 607.77H271.276H274.824L277.405 606.491L279.179 604.252L279.502 601.374V599.135L279.179 596.896L276.76 594.497L273.695 593.378Z" fill="#F2ADC4"/>
<path d="M387.342 741.14H337.019L333.47 742.42L331.212 744.499L330.083 746.418V749.136L330.406 751.055L331.373 752.654L333.47 754.253L337.019 755.533H384.922H388.471L391.051 754.253L392.825 752.015L393.148 749.136V746.897L392.825 744.658L390.406 742.26L387.342 741.14Z" fill="#F2ADC4"/>
<path d="M480.631 741.14H430.308L426.759 742.42L424.501 744.499L423.372 746.418V749.136L423.695 751.055L424.662 752.654L426.759 754.253L430.308 755.533H478.211H481.76L484.34 754.253L486.115 752.015L486.437 749.136V746.897L486.115 744.658L483.695 742.26L480.631 741.14Z" fill="#E93D31"/>
<path d="M217.202 1006.92H166.879L163.33 1008.2L161.072 1010.28L159.943 1012.2V1014.92L160.266 1016.84L161.234 1018.44L163.33 1020.04L166.879 1021.32H214.783H218.331L220.912 1020.04L222.686 1017.8L223.008 1014.92V1012.68L222.686 1010.44L220.266 1008.04L217.202 1006.92Z" fill="#F2ADC4"/>
<path d="M62.7178 631.269C62.7178 626.063 66.9379 621.843 72.1438 621.843H302.595C307.983 621.843 312.35 626.211 312.35 631.598C312.35 636.37 308.487 640.241 303.715 640.25L72.1619 640.695C66.949 640.705 62.7178 636.482 62.7178 631.269Z" fill="#F7CE44"/>
<path d="M510.699 703.982C510.912 709.184 506.864 713.442 501.658 713.492L367.154 714.796C361.763 714.848 357.215 710.524 356.995 705.137C356.799 700.365 360.505 696.454 365.281 696.393L500.858 694.655C506.075 694.589 510.486 698.769 510.699 703.982Z" fill="#2245E2"/>
<path d="M495.329 980.548C495.541 985.75 491.494 990.008 486.288 990.058L351.784 991.362C346.393 991.414 341.845 987.09 341.625 981.703C341.429 976.931 345.135 973.02 349.911 972.959L485.488 971.222C490.705 971.155 495.116 975.335 495.329 980.548Z" fill="#2245E2"/>
<path d="M64.0293 748.328C64.0293 743.122 68.2495 738.902 73.4553 738.902H303.907C309.294 738.902 313.662 743.269 313.662 748.657C313.662 753.429 309.798 757.299 305.026 757.309L73.4734 757.754C68.2605 757.764 64.0293 753.541 64.0293 748.328Z" fill="#274B3B"/>
<path d="M261.108 830.526C261.108 825.32 265.329 821.1 270.534 821.1H500.986C506.373 821.1 510.741 825.467 510.741 830.855C510.741 835.627 506.877 839.498 502.105 839.507L270.553 839.952C265.34 839.962 261.108 835.739 261.108 830.526Z" fill="#274B3B"/>
<path d="M71.916 867.306C71.916 862.1 76.1362 857.88 81.342 857.88H311.794C317.181 857.88 321.548 862.247 321.548 867.635C321.548 872.407 317.685 876.278 312.913 876.287L81.3601 876.732C76.1472 876.742 71.916 872.519 71.916 867.306Z" fill="#E93D31"/>
<path d="M498.228 666.693C498.366 671.898 494.256 676.144 489.049 676.177L258.623 677.624C253.234 677.658 248.75 673.318 248.608 667.931C248.481 663.159 252.243 659.264 257.016 659.225L488.532 657.327C493.746 657.284 498.09 661.48 498.228 666.693Z" fill="#E93D31"/>
<path d="M66.6562 982.446C66.6562 977.24 70.8764 973.02 76.0823 973.02H306.534C311.921 973.02 316.289 977.387 316.289 982.775C316.289 987.547 312.425 991.418 307.653 991.427L76.1004 991.872C70.8875 991.882 66.6562 987.659 66.6562 982.446Z" fill="#F7CE44"/>
<path d="M316.288 705.861C316.5 711.066 312.45 715.326 307.241 715.376L76.8506 717.609C71.4599 717.662 66.9113 713.337 66.6911 707.951C66.496 703.18 70.2036 699.272 74.978 699.217L306.452 696.528C311.668 696.468 316.074 700.649 316.288 705.861Z" fill="#D2A9F9"/>
<path d="M169.14 790.226C169.14 785.02 173.36 780.8 178.566 780.8H409.017C414.405 780.8 418.772 785.168 418.772 790.555C418.772 795.327 414.909 799.198 410.137 799.207L178.584 799.652C173.371 799.662 169.14 795.439 169.14 790.226Z" fill="#D2A9F9"/>
<path d="M61.4043 939.9C61.4043 934.698 65.6212 930.481 70.823 930.481H189.604C194.992 930.481 199.359 934.849 199.359 940.236C199.359 945.01 195.498 948.885 190.724 948.902L70.8557 949.319C65.6412 949.337 61.4043 945.115 61.4043 939.9Z" fill="#D2A9F9"/>
<path d="M380.011 939.895C380.011 934.696 384.226 930.481 389.425 930.481H478.649C484.036 930.481 488.404 934.849 488.404 940.236C488.404 945.012 484.544 948.889 479.768 948.91L389.467 949.31C384.251 949.333 380.011 945.111 380.011 939.895Z" fill="#F2ADC4"/>
<path d="M130.382 902.807C130.382 897.602 134.602 893.381 139.808 893.381H370.259C375.647 893.381 380.014 897.749 380.014 903.136C380.014 907.908 376.151 911.779 371.379 911.788L139.826 912.233C134.613 912.243 130.382 908.02 130.382 902.807Z" fill="#2245E2"/>
<path d="M250.598 1015.71C250.598 1010.5 254.818 1006.28 260.024 1006.28H490.475C495.863 1006.28 500.23 1010.65 500.23 1016.04C500.23 1020.81 496.367 1024.68 491.595 1024.69L260.042 1025.13C254.829 1025.14 250.598 1020.92 250.598 1015.71Z" fill="#E93D31"/>
<path d="M299.867 600.567C299.867 596.596 303.086 593.378 307.056 593.378H478.994C483.103 593.378 486.435 596.709 486.435 600.818C486.435 604.458 483.488 607.41 479.848 607.417L307.07 607.756C303.094 607.764 299.867 604.543 299.867 600.567Z" fill="#2245E2"/>
<path d="M62.7178 600.564C62.7178 596.595 65.935 593.378 69.9036 593.378H181.408C185.517 593.378 188.848 596.709 188.848 600.818C188.848 604.459 185.902 607.413 182.261 607.423L69.9244 607.749C65.9477 607.761 62.7178 604.54 62.7178 600.564Z" fill="#274B3B"/>
<path d="M341.912 631.268C341.912 627.299 345.129 624.082 349.098 624.082H460.602C464.711 624.082 468.042 627.413 468.042 631.522C468.042 635.163 465.096 638.117 461.456 638.128L349.119 638.454C345.142 638.465 341.912 635.245 341.912 631.268Z" fill="#274B3B"/>
<path d="M219.066 939.898C219.066 934.697 223.283 930.481 228.484 930.481H335.442C340.829 930.481 345.196 934.849 345.196 940.236C345.196 945.011 341.336 948.886 336.561 948.905L228.519 949.315C223.304 949.335 219.066 945.113 219.066 939.898Z" fill="#274B3B"/>
<path d="M45.6328 1013.45C45.6328 1008.26 49.846 1004.04 55.0433 1004.04H127.848C133.235 1004.04 137.603 1008.41 137.603 1013.8C137.603 1018.58 133.744 1022.45 128.967 1022.48L55.0923 1022.86C49.876 1022.89 45.6328 1018.67 45.6328 1013.45Z" fill="#274B3B"/>
<rect x="66.6562" y="894.661" width="49.2696" height="19.8296" rx="9.91482" fill="#D2A9F9"/>
<rect x="424.684" y="892.421" width="49.2696" height="19.8296" rx="9.91482" fill="#F7CE44"/>
<rect x="76.5107" y="779.52" width="74.2328" height="19.8296" rx="9.91482" fill="#2245E2"/>
<rect x="436.508" y="779.52" width="74.2328" height="19.8296" rx="9.91482" fill="#F7CE44"/>
<rect x="73.8838" y="818.86" width="170.801" height="19.8296" rx="9.91482" fill="#F7CE44"/>
<rect x="339.281" y="856.92" width="170.801" height="19.8296" rx="9.91482" fill="#F2ADC4"/>
<rect width="170.79" height="19.8349" rx="9.91747" transform="matrix(-0.99998 0.00627778 -0.0264759 -0.999649 231.159 678.755)" fill="#F2ADC4"/>
</svg>
