<svg width="608" height="627" viewBox="0 0 608 627" fill="none" xmlns="http://www.w3.org/2000/svg">
<path d="M605.823 305.624C606.137 297.536 608.329 287.48 606.16 279.655C603.495 270.053 597.489 257.711 597.489 247.74C597.489 240.357 600.774 223.954 596.19 218.157C590.1 210.45 584.209 199.879 576.684 193.674C570.552 188.62 557.762 181.962 554.007 174.979C549.959 167.452 555.425 154.31 551.012 146.96C544.58 136.247 538.146 125.533 531.712 114.821C525.954 105.231 520.46 104.729 509.856 100.722C484.622 91.187 468.908 83.3379 452.001 60.9335C447.394 54.8278 443.421 47.1813 436.826 43.2965C428.838 38.5894 416.849 27.6947 407.81 26.2045C401.233 25.1193 389.776 29.2694 383 30.2677C375.667 31.348 367.408 31.5819 360.625 34.7891C364.401 24.2126 332.973 3.55654 324.529 1.4128C314.745 -1.07095 289.576 -0.742996 282.891 6.18256C277.725 11.5335 269.178 15.2832 263.048 19.4983C253.445 26.1032 250.666 29.1512 240.326 23.822C224.47 15.6473 197.575 15.0831 182.888 25.4642C176.117 30.2484 160.082 37.0461 158.176 45.6958C155.157 59.383 154.596 64.8159 157.661 78.1775C160.513 90.6083 163.365 103.039 166.217 115.467C167.247 119.957 148.7 138.528 145.791 142.277C138.882 151.176 136.694 152.806 136.694 163.884C136.694 171.699 139.666 186.411 136.023 193.433C123.973 216.672 111.923 239.908 99.8714 263.144C91.102 280.053 84.057 297.623 71.2375 311.546C62.6109 320.917 53.9819 330.285 45.3552 339.653C41.8526 343.459 42.1451 358.636 41.366 363.603C33.9817 410.614 26.5998 457.622 19.2249 504.632C16.3143 523.178 0.2332 542.484 0.724547 561.247C0.97256 570.813 -1.55203 585.643 1.59493 594.582C5.23792 604.939 17.7205 616.123 24.2741 624.879C29.5152 631.879 62.4494 613.259 70.8398 610.018C87.6836 603.517 105.461 598.315 121.881 590.763C166.004 570.463 208.012 542.349 250.437 518.5C282.21 500.639 312.283 479.754 343.03 460.113C413.76 414.933 485.523 372.063 559.454 332.523C575.058 324.179 590.891 315.182 605.823 305.624Z" fill="black"/>
<path d="M594.72 298.949C594.411 290.685 594.1 282.422 593.793 274.155C586.047 281.252 581.037 290.307 570.583 287.91C556.886 284.768 552.244 291.11 540.342 299.084C521.006 312.036 501.095 323.806 481.156 335.759C464.915 345.502 445.669 346.968 431.022 359.273C413.24 374.209 394.646 384.665 374.561 396.259C357.238 406.257 341.498 414.704 323.005 421.912C303.07 429.676 277.029 434.362 261.994 450.453C248.863 464.509 240.487 477.989 230.147 493.969C226.626 499.412 215.267 501.698 209.616 504.194C200.856 508.066 192.545 512.759 183.465 515.884C173.086 519.455 158.184 520.676 149.183 526.875C133.916 537.392 121.398 549.08 105.284 558.347C99.5076 561.672 86.8355 572.646 80.2421 572.646C74.0324 572.646 65.9439 574.961 59.8886 576.461C44.5165 580.271 27.5135 588.566 13.6201 596.488C16.5682 599.907 25.7751 614.653 29.9656 613.073C40.7425 609.015 51.5194 604.959 62.2986 600.898C82.2402 593.392 106.241 588.086 124.779 577.348C166.041 553.444 207.304 529.542 248.566 505.638C312.28 468.729 371.962 424.817 436.085 388.859C469.185 370.298 502.288 351.733 535.389 333.17C549.743 325.12 564.095 317.071 578.447 309.022C583.419 306.237 591.54 303.22 594.72 298.949Z" fill="#E6C675"/>
<path d="M195.905 29.0635C183.705 38.497 173.579 41.0048 169.536 57.6773C168.315 62.722 165.301 69.0471 168.612 72.4592C180.989 85.2132 181.101 87.3545 181.101 105.358C202.837 98.4638 224.263 90.9113 245.755 83.243C256.057 79.5681 258.921 84.0894 268.54 90.0987C280.147 97.3498 282.55 99.7949 295.564 98.1528C305.092 96.9519 319.722 91.9651 329.153 93.9183C337.181 95.5798 346.762 103.933 354.13 107.745C367.261 114.536 375.607 126.34 390.633 126.34C408.036 126.34 421.44 130.273 437.708 136.494C449.262 140.912 460.813 145.33 472.367 149.747C478.303 152.019 484.405 170.249 487.379 175.723C490.825 182.063 494.861 195.352 501.331 198.923C510.769 204.134 521.691 208.231 529.118 216.288C534.637 222.278 542.901 227.477 542.901 236.011C542.901 240.616 542.279 247.255 543.828 250.315C545.938 254.492 558.014 266.182 562.335 268.437C581.016 278.193 581.963 264.689 586.554 249.932C588.709 243.001 584.216 223.37 580.471 217.305C570.95 201.882 567.391 196.659 551.722 188.581C547.719 186.519 541.904 185.718 542.075 180.78C542.319 173.726 544.586 163.678 542.904 156.856C539.801 144.283 528.149 130.41 521.836 119.091C517.901 112.038 492.215 106.084 484.817 102.908C472.975 97.8248 461.223 101.237 448.523 102.503C449.372 91.0777 453.319 80.8582 445.418 72.4134C436.653 63.0451 429.451 52.8665 417.884 47.5663C402.455 40.496 399 39.8401 382.511 43.1317C371.587 45.3092 362.57 49.3242 352.291 53.8649C354.486 36.8427 350.728 35.9192 338.987 23.3702C327.172 10.7392 321.371 12.5743 303.973 11.9329C291.133 11.4602 282.569 15.0123 274.656 24.3299C264.82 35.9119 258.229 40.9421 244.955 48.1426C239.88 37.6843 240.456 35.0583 229.597 33.5994C218.364 32.0826 207.133 30.5731 195.905 29.0635" fill="#B38F36"/>
<path d="M191.28 115.846C182.829 123.382 174.375 130.917 165.924 138.453C155.905 147.387 155.669 152.229 152.426 165.998C150.294 175.053 150.278 185.277 147.795 194.048C145.308 202.847 138.689 212.476 134.494 220.58C124.328 240.221 117.131 261.35 107.077 280.827C96.8615 300.617 80.1253 318.411 66.653 335.766C51.5312 355.245 48.6744 367.475 47.7151 391.22C46.7488 415.113 43.8896 435.807 40.4525 459.159C35.8806 490.216 26.1449 518.55 16.0513 548.945C12.682 559.095 13.0213 571.533 11.7695 582.177C21.6737 576.474 31.5778 570.771 41.4843 565.065C48.4872 561.034 62.0484 564.062 70.062 564.062C84.1684 564.062 94.2597 555.273 105.224 546.896C117.571 537.462 133.453 528.145 142.699 515.422C155.486 497.828 169.766 509.929 186.645 503.98C220.517 492.043 240.368 461.373 260.478 432.364C269.074 419.962 267.455 419.504 281.655 424.623C290.763 427.908 297.481 422.431 306.323 418.614C326.545 409.882 347.902 402.875 366.04 390.082C402.741 364.201 442.098 342.961 475.351 312.298C476.582 315.476 477.815 318.657 479.045 321.835C490.073 315.266 509.946 297.034 522.539 297.034C531.694 297.034 543.222 294.162 546.133 285.117C546.861 282.864 551.358 276.954 551.222 275.104C550.787 269.24 534.462 256.332 530.356 251.733C526.575 247.499 532.787 236.199 529.373 231.398C522.289 221.431 520.489 218.125 509.385 214.422C504.93 212.936 489.75 210.759 487.766 206.131C483.154 195.391 478.547 184.653 473.938 173.912C472.265 170.018 469.785 158.547 465.395 157.368C453.739 154.233 442.08 151.098 430.423 147.966C419.244 144.959 385.018 131.375 376.34 141.595C368.073 132.67 357.898 126.856 347.346 121.556C340.827 118.284 329.606 109.422 322.303 109.154C311.234 108.747 300.167 108.342 289.098 107.934C280.684 107.625 273.157 109.398 266.861 103.555C258.264 95.5806 255.857 88.2282 245.396 93.8034C232.258 100.808 204.279 118.366 191.28 115.846" fill="#E6172E"/>
<path d="M96.9046 368.561C86.1091 365.385 75.3135 362.204 64.5179 359.028C62.1197 369.945 59.7191 380.864 57.3209 391.782C53.947 407.133 49.8174 408.686 64.9789 412.431C79.7894 416.092 77.5971 412.983 84.036 398.841C87.6158 390.984 97.3468 375.353 96.9046 368.561Z" fill="black"/>
<path d="M84.8672 375.244C80.2392 373.335 75.6136 371.427 70.9879 369.518C69.9538 374.4 58.2715 408.71 72.841 401.936C77.1438 399.938 83.6459 380.151 84.8672 375.244Z" fill="#66CC29"/>
<path d="M55.2641 489.681C52.4868 494.552 46.6374 500.684 41.8433 503.982C35.7997 508.137 37.3837 512.849 33.0528 517.334C20.1795 530.676 32.4094 556.043 49.3001 554.982C68.9774 553.75 95.9336 548.86 107.932 530.319C113.936 521.038 118.238 515.694 119.107 505.885C119.677 499.449 118.049 492.483 120.957 486.816C111.02 485.774 107.916 478.126 96.9023 479.187C85.6528 480.274 63.8954 492.078 55.2641 489.681" fill="black"/>
<path d="M59.8943 498.262C51.862 504.628 41.8175 511.693 39.5362 522.103C36.5647 535.667 48.3992 541.155 59.4475 541.756C72.2131 542.45 83.5539 532.417 94.5694 526.19C101.979 522.002 104.415 511.216 106.158 503.984C108.117 495.858 108.194 494.715 103.376 490.627C92.7327 481.597 71.7358 492.479 59.8943 498.262Z" fill="#4D3D26"/>
<path d="M66.3633 499.217C63.1859 502.489 45.9395 526.143 62.0628 524.863C72.5262 524.031 83.2938 521.67 89.4988 512.089C92.8798 506.868 91.2981 502.494 93.198 497.305C84.4754 493.099 76.8454 495.286 66.3633 499.217Z" fill="black"/>
<path d="M256.054 314.204C268.773 315.574 282.713 306.483 296.766 311.342C305.896 314.501 307.461 319.943 309.749 328.432C312.255 337.718 308.116 340.214 302.639 348.184C293.231 361.876 280.037 366.957 265.748 374.992C257.662 379.538 242.308 375.202 234.77 371.423C226.34 367.196 223.115 366.419 222.741 357.118C222.399 348.608 226.637 343.45 231.071 336.614C235.918 329.141 255.671 318.424 256.054 314.204Z" fill="black"/>
<path d="M259.753 320.882C267.804 320.086 279.875 313.38 288.434 317.067C301.019 322.488 295.352 336.958 290.832 345.7C287.196 352.734 270.818 360.747 263.459 362.84C255.483 365.109 246.653 364.239 239.395 360.933C232.029 357.576 232.916 357.863 232.916 350.443C232.919 335.082 248.873 327.373 259.753 320.882Z" fill="#4D3D26"/>
<path d="M257.904 327.561C262.193 325.817 268.092 324.978 271.784 326.608C287.504 333.555 271.854 348.73 260.677 351.399C253.814 353.039 243.162 350.845 244.025 342.808C244.605 337.416 253.882 329.88 257.904 327.561Z" fill="black"/>
<path d="M235.703 289.416C233.003 286.153 232.781 279.573 231.075 275.109C229.334 270.556 225.443 266.671 223.665 262.712C213.817 277.938 205.118 297.759 191.372 309.496C174.523 323.885 159.184 337.963 144.09 354.261C155.508 356.398 162.177 359.135 172.563 354.293C183.283 349.296 195.588 344.326 204.704 338.049C212.622 332.595 219.557 321.309 226.445 314.21C234.047 306.373 234.585 301.678 235.703 289.416Z" fill="black"/>
<path d="M165.372 346.634C176.219 337.319 187.857 328.587 197.525 317.96C208.561 305.829 215.546 292.38 223.662 277.968C223.793 287.039 227.78 296.75 221.821 306.576C209.979 326.113 184.102 336.704 165.372 346.634Z" fill="#FF994D"/>
<path d="M211.638 153.991C204.015 160.685 193.545 164.553 185.732 172.108C173.898 183.553 170.583 204.758 191.018 209.118C209.179 212.991 232.804 213.413 248.021 200.08C254.168 194.696 261.292 190.119 264.383 183.553C266.809 178.399 265.792 172.07 269.931 167.343C263.852 162.082 260.759 154.949 252.357 154.949C246.943 154.949 240.904 153.109 235.702 153.039C228.606 152.945 216.814 156.656 211.638 153.991Z" fill="black"/>
<path d="M212.57 162.576C207.266 166.846 200.054 167.738 194.982 172.11C187.35 178.689 184.479 194.119 196.975 198.144C211.662 202.875 230.665 199.721 243.008 189.545C249.121 184.503 249.987 183.02 253.279 177.837C255.469 174.392 255.151 171.732 257.909 169.255C252.547 166.711 250.977 162.414 244.03 160.673C233.609 158.064 223.043 161.43 212.57 162.576Z" fill="#4D3D26"/>
<path d="M219.039 164.482C213.154 168.394 198.189 175.455 207.941 185.462C220.922 198.781 238.7 178.934 243.103 169.255C235.345 164.955 230.586 164.482 219.039 164.482Z" fill="black"/>
<path d="M136.69 141.6C136.072 152.089 135.457 162.579 134.839 173.068C144.741 172.087 154.645 171.105 164.547 170.124C177.492 168.841 182.752 172.475 183.414 158.766C184.03 146.078 181.369 148.824 169.381 146.888C158.484 145.123 147.588 143.36 136.69 141.6Z" fill="black"/>
<path d="M145.943 151.132C145.634 155.265 145.325 159.397 145.016 163.53C152.208 162.604 174.197 163.976 175.557 155.901C166.364 154.182 153.432 153.885 145.943 151.132Z" fill="#66CC29"/>
<path d="M343.03 173.067C325.501 190.701 293.378 213.46 292 241.846C291.698 248.089 289.143 255.953 293.788 260.4C302.162 268.417 303.605 270.308 314.834 270.915C330.554 271.764 335.793 256.672 340.262 243.636C344.888 255.08 349.511 266.524 354.137 277.969C375.73 258.258 397.322 238.55 418.915 218.84C408.735 211.849 398.559 204.856 388.379 197.863C406.011 197.863 406.486 197.159 417.28 182.86C423.976 173.986 412.378 159.098 405.876 153.733C383.641 135.394 360.562 172.438 343.03 173.067Z" fill="black"/>
<path d="M356.916 265.574C357.115 261.412 349.04 241.27 344.885 237.913C338.303 232.596 330.921 237.78 325.446 241.733C327.526 241.446 329.814 242.736 331.925 242.683C329.37 255.842 324.936 261.755 311.803 261.755C300.579 261.755 298.176 244.947 300.469 236.965C307.065 214.001 330.196 197.257 345.907 181.462C356.181 171.136 384.789 149.576 399.356 160.497C409.944 168.436 411.561 178.296 403.488 188.467C397.52 195.986 382.265 193.15 389.303 181.652C374.197 203.059 389.001 208.544 405.952 222.661C391.004 235.991 374.447 256.898 356.916 265.574Z" fill="#FFF299"/>
<path d="M381.9 202.632C381.9 192.366 383.411 189.996 389.3 181.649C377.669 200.654 419.864 190.418 408.727 174.02C406.685 180.169 403.327 183.69 397.63 186.415C399.204 175.006 388.701 176.318 382.707 180.251C373.062 186.579 375.746 195.378 381.9 202.632Z" fill="#B37D47"/>
<path d="M318.979 260.805C321.446 257.942 323.909 255.08 326.375 252.217C318.881 249.652 316.815 235.2 325.449 232.195C327.524 231.471 332.747 234.377 334.7 235.052C331.616 237.278 328.533 239.506 325.449 241.735C327.529 241.448 329.817 242.738 331.928 242.685C330.711 248.947 327.208 263.221 318.979 260.805Z" fill="#B37D47"/>
<path d="M405.949 164.483C378.727 146.627 350.9 176.441 331.897 195.547C318.878 208.636 310.53 217.946 301.871 234.315C294.886 247.52 303.927 264.016 318.979 261.752C277.472 254.158 329.105 205.25 340.184 194.404C352.409 182.431 397.517 139.46 407.81 174.018C406.998 170.895 406.368 167.664 405.949 164.483Z" fill="#B37D47"/>
<path d="M371.717 253.173C363.638 239.288 354.726 230.751 343.029 219.796C349.625 215.47 356.225 211.144 362.821 206.818C364.358 205.81 374.941 220.047 376.345 221.704C377.725 223.329 389.939 236.384 388.762 237.455C383.051 242.647 377.162 247.682 371.717 253.173Z" fill="#D9B86C"/>
<path d="M202.386 234.101C206.92 239.337 222.468 263.091 227.992 258.951C240.741 249.397 253.488 239.843 266.237 230.289C259.817 223.385 249.508 204.545 240.528 210.178C227.814 218.153 215.1 226.127 202.386 234.101Z" fill="black"/>
<path d="M216.264 235.053C219.348 239.504 222.434 243.953 225.518 248.404C234.465 241.727 243.41 235.053 252.357 228.378C242.186 221.12 241.831 218.948 231.999 225.519C227.769 228.345 219.121 234.742 216.264 235.053Z" fill="#66CC29"/>
<path d="M154.267 329.464C163.181 319.406 172.538 311.68 176.211 298.578C180.545 283.119 186.614 269.774 183.9 253.917C180.481 233.945 176.852 227.907 164.445 211.922C154.718 199.395 140.771 196.118 126.468 189.911C118.857 186.607 111.494 213.108 108.412 219.848C102.303 233.22 97.3173 247.326 91.5943 260.893C80.6443 286.849 69.0859 312.704 58.9595 338.999C78.4496 346.529 88.8334 350.421 109.337 348.707C124.278 347.46 144.372 340.872 154.267 329.464Z" fill="black"/>
<path d="M330.077 306.579C356.467 282.935 383.063 268.244 416.386 257.451C427.951 253.706 451.124 256.759 462.409 260.803C477.343 266.156 492.615 281.341 505.888 290.364C447.285 328.192 388.681 366.022 330.077 403.85C323.346 384.513 317.129 369.304 317.129 348.961C317.129 332.479 325.168 321.691 330.077 306.579Z" fill="black"/>
<path d="M264.384 377.145C263.766 387.636 263.148 398.128 262.531 408.62C272.624 407.834 282.716 407.048 292.809 406.262C306.296 405.208 311.373 409.069 312.035 394.789C312.695 380.6 307.709 384.099 294.443 382.223C285.542 380.964 272.159 381.565 264.384 377.145Z" fill="black"/>
<path d="M273.635 387.634C273.328 391.449 273.019 395.264 272.713 399.079C279.903 398.151 301.892 399.528 303.247 391.449C293.342 390.371 283.508 388.475 273.635 387.634Z" fill="#66CC29"/>
<path d="M146.864 319.926C162.753 305.894 166.534 301.862 171.897 281.259C175.498 267.425 179.422 248.756 170.397 235.834C165.776 229.217 161.23 219.316 155.196 214.071C148.488 208.24 137.362 204.881 129.496 200.825C124.955 198.484 113.254 231.382 110.778 237.437C99.1636 265.872 88.2253 294.594 75.8386 322.665C71.3533 332.832 71.11 332.902 81.1733 337.573C90.9581 342.116 95.3007 341.363 106.192 340.237C122.575 338.547 133.029 329.126 146.864 319.926Z" fill="#FF4D66"/>
<path d="M111.706 294.185C95.3494 300.086 126.026 311.099 111.706 294.185V294.185Z" fill="#FFBFD9"/>
<path d="M132.985 210.26C127.922 215.623 122.83 234.217 134.838 233.144C133.097 231.591 131.417 228.473 132.061 224.562C133.49 215.905 142.049 217.434 139.464 226.472C145.512 218.574 140.575 210.238 132.985 210.26Z" fill="#FFBFD9"/>
<path d="M146.865 233.143C139.698 235.573 142.579 244.139 148.718 244.588C150.227 241.08 149.107 236.405 146.865 233.143Z" fill="#FFBFD9"/>
<path d="M94.123 329.463C98.6551 324.185 105.494 305.904 92.277 307.532C102.125 315.391 85.7375 329.733 87.6537 314.204C82.4572 320.529 86.1399 330.949 94.123 329.463Z" fill="#FFBFD9"/>
<path d="M124.662 262.712C121.633 273.372 132.456 271.778 130.212 262.712C128.338 263.638 125.549 262.521 124.662 262.712Z" fill="black"/>
<path d="M106.157 326.609C102.105 335.04 111.22 337.4 111.705 327.562C109.931 327.96 106.138 326.609 106.157 326.609Z" fill="black"/>
<path d="M147.797 220.749C145.677 224.216 145.974 227.461 148.719 229.33C153.815 226.019 154.421 220.428 147.797 220.749Z" fill="black"/>
<path d="M135.758 279.879C132.307 286.281 122.948 308.897 138.543 306.577C135.803 303.9 134.839 301.479 134.839 297.04C134.839 286.324 147.429 287.614 144.088 298.947C149.446 291.639 147.401 277.272 135.758 279.879Z" fill="black"/>
<path d="M108.93 255.082C107.323 259.98 104.538 263.464 107.079 267.477C114.003 278.408 118.184 260.535 118.184 254.13C115.278 254.429 111.705 254.178 108.93 255.082Z" fill="black"/>
<path d="M132.063 311.343C124.365 314.14 129.442 321.984 133.916 322.789C136.071 319.03 135.538 314.043 132.063 311.343Z" fill="#FFBFD9"/>
<path d="M161.679 274.156C167.048 269.396 172.799 250.374 160.747 252.218C171.47 261.849 152.144 271.853 156.124 257.943C151.337 265.637 155.698 277.04 161.679 274.156Z" fill="#FFBFD9"/>
<path d="M446.671 276.058C442.801 282.045 432.764 304.319 448.522 302.759C446.402 300.499 445.05 296.771 445.74 292.269C447.392 281.502 456.65 285.375 454.074 296.084C458.686 287.203 458.379 274.538 446.671 276.058Z" fill="black"/>
<path d="M340.259 310.391C362.458 287.516 387.035 276.568 417.051 267.863C444.829 259.809 468.954 276.279 491.086 290.364C438.65 321.855 387.755 356.473 335.633 388.596C329.695 373.913 326.374 365.675 326.84 349.967C327.336 333.131 332.168 325.279 340.259 310.391Z" fill="#FF4D66"/>
<path d="M346.738 375.242C339.866 371.524 323.443 355.246 338.408 350.447C329.987 364.893 357.606 371.112 346.738 355.214C355.034 360.734 355.268 377.914 346.738 375.242Z" fill="black"/>
<path d="M339.334 326.609C333.457 330.386 338.433 337.324 343.958 337.095C344.821 332.783 343.132 328.857 339.334 326.609Z" fill="#FFBFD9"/>
<path d="M458.699 302.763C466.35 303.636 464.242 294.092 459.619 292.273C456.783 295.116 456.385 298.726 458.699 302.763Z" fill="#FFBFD9"/>
<path d="M409.655 318.974C406.585 327.814 416.749 329.254 414.283 318.974C412.442 320.054 410.577 318.81 409.655 318.974Z" fill="black"/>
<path d="M385.595 308.486C391.219 303.834 395.164 285.14 383.758 286.55C385.487 288.113 387.169 291.226 386.526 295.133C385.101 303.791 376.54 302.266 379.125 293.228C374.258 299.862 378.636 313.198 385.595 308.486Z" fill="#FFBFD9"/>
<path d="M366.165 350.447C353.943 360.367 382.904 365.448 366.165 350.447V350.447Z" fill="#FFBFD9"/>
<path d="M398.546 274.155C399.414 272.539 396.897 279.181 397.627 279.878C402.369 284.405 407.178 273.352 398.546 274.155Z" fill="black"/>
<path d="M469.801 287.506C467.459 291.062 467.972 294.183 470.728 296.088C475.819 292.775 476.428 287.182 469.801 287.506Z" fill="black"/>
<path d="M394.846 327.56C393.332 335.472 389.083 339.241 396.703 344.723C403.713 339.707 403.182 335.629 403.182 327.56C400.665 328.271 395.559 327.524 394.846 327.56Z" fill="black"/>
<path d="M403.182 285.594C394.556 300.428 412.726 301.151 409.659 284.644C407.651 284.94 405.019 284.762 403.182 285.594Z" fill="black"/>
<path d="M362.461 314.206C356.677 323.338 369.633 324.471 367.094 314.206C366.338 314.541 361.233 314.532 362.461 314.206Z" fill="black"/>
<path d="M427.232 283.691C443.954 285.596 417.294 261.126 427.232 283.691V283.691Z" fill="#FFBFD9"/>
<path d="M363.392 304.67C367.876 306.457 369.373 302.695 369.871 297.996C362.419 289.988 362.868 302.565 363.392 304.67Z" fill="#FFBFD9"/>
<path d="M424.465 297.995C423.454 300.482 424.2 302.076 422.609 303.721C426.835 309.263 430.412 303.496 429.09 297.995C428.332 298.33 423.239 298.318 424.465 297.995Z" fill="black"/>
<path d="M377.267 334.229C385.603 338.048 383.547 325.524 378.196 323.739C376.406 326.428 377.262 334.219 377.267 334.229Z" fill="#FFBFD9"/>
<path d="M230.144 40.5085C214.893 39.556 197.453 34.186 186.035 47.9256C173.765 62.69 177.74 59.3022 182.027 73.8905C182.623 72.9525 183.782 66.3142 184.839 65.6921C187.981 63.8426 193.274 59.0249 196.835 58.6342C199.725 58.3159 202.635 64.0982 205.2 61.453C221.969 44.1736 234.086 59.09 236.625 78.6553C237.933 73.4637 243.331 63.37 242.175 57.6745C241.106 52.4155 233.097 45.413 230.144 40.5085Z" fill="#E6B845"/>
<path d="M314.351 32.8774C301.227 41.6286 298.453 43.8496 293.139 58.9116C290.432 66.5849 276.859 70.4312 271.786 64.3519C264.105 55.1449 275.844 37.1361 282.264 30.1018C296.892 14.0728 330.867 17.6779 341.181 36.6948C347.604 48.5375 342.337 58.6825 341.181 71.0244C338.961 58.0531 336.391 53.2326 324.529 48.1348C326.431 66.7995 325.654 66.8574 311.571 78.6543C309.419 73.6626 299.157 57.7975 300.472 52.9071C302.648 44.8045 321.682 44.2065 314.351 32.8774Z" fill="#E6B845"/>
<path d="M386.524 77.7036C381.094 78.6368 378.434 81.4025 375.116 85.4415C368.923 92.9841 369.444 93.0517 360.064 91.3685C351.566 89.847 344.928 90.1484 346.737 79.6085C349.18 65.3696 367.367 52.4474 381.899 51.0006C400.292 49.1704 438.334 60.5808 438.334 84.3757C438.334 97.5801 432.009 107.64 423.535 116.801C424.74 114.348 424.878 108.366 424.461 104.397C423.476 95.0072 422.114 95.1326 413.35 88.1904C412.252 92.7117 411.752 104.004 408.724 107.262C405.074 111.187 391.759 112.362 386.522 113.936C390.743 103.377 395.193 93.4905 400.409 83.4208C395.82 81.8486 389.629 80.3609 386.524 77.7036" fill="#E6B845"/>
<path d="M594.722 298.951C520.203 341.112 445.633 383.121 372.647 427.694C295.791 474.627 219.929 522.233 141.987 567.384C126.269 576.489 111.273 582.46 94.2166 588.884C78.2315 594.903 62.2463 600.921 46.2612 606.94C35.8423 610.864 29.553 617.312 21.9512 606.981C57.7049 593.335 97.3636 583.142 130.588 563.757C171.098 540.116 212.875 517.967 252.358 492.544C318.276 450.098 383.992 406.452 452.156 368.286C499.679 341.679 547.201 315.072 594.724 288.462C594.722 290.876 594.722 299.998 594.722 298.951Z" fill="#B3995A"/>
<path d="M30.2793 501.116C31.4351 489.831 31.7229 483.634 37.7431 474.326C40.518 470.036 43.293 465.744 46.0656 461.454C48.5878 457.555 54.9964 456.366 57.1092 452.488C61.1078 445.151 54.0862 430.74 59.8911 425.79C61.6553 424.285 68.6488 423.974 70.9862 422.93C76.6601 433.036 99.3275 449.045 96.9035 462.971C95.0107 473.846 74.0419 474.181 65.8645 478.78C58.2673 483.05 50.6702 487.318 43.0754 491.589C38.6696 494.065 32.8203 500.586 30.2793 501.116Z" fill="black"/>
<path d="M39.5356 485.859C44.2853 472.505 55.2588 467.871 62.8349 457.133C68.5181 449.075 60.4015 432.41 70.9866 432.463C74.1709 442.311 82.924 452.33 87.6526 462.021C80.025 466.711 71.6323 464.247 64.1053 469.05C56.1011 474.157 47.6569 481.683 39.5356 485.859Z" fill="#FF994D"/>
<path d="M314.351 291.316C302.04 298.034 296.733 299.898 282.891 299.898C270.507 299.898 263.097 293.267 251.936 299.497C242.919 304.53 238.146 310.862 231.999 300.855C228.77 295.601 229.376 291.007 232.46 284.641C236.999 275.275 241.272 248.821 256.054 255.08C260.961 257.159 266.429 265.77 270.224 269.684C273.408 272.965 278.974 274.902 282.879 277.096C293.647 283.146 302.622 287.863 314.351 291.316Z" fill="black"/>
<path d="M295.846 291.318C284.538 294.997 279.148 290.748 269.009 287.505C256.939 283.645 249.751 291.52 240.329 297.997C239.653 297.242 236.91 293.816 236.625 293.23C241.234 283.686 246.473 273.838 251.424 263.664C259.073 267.828 262.835 275.74 270.582 279.733C277.468 283.281 291.876 288.573 295.846 291.318Z" fill="#FF994D"/>
<path d="M456.842 167.345C449.881 167.629 433.678 149.043 429.418 162.686C420.148 192.392 419.75 221.171 420.761 252.218C440.274 242.883 458.178 233.838 465.174 210.26C466.842 204.641 465.464 195.092 465.174 189.283C464.699 179.725 460.546 176.708 456.842 167.345Z" fill="black"/>
<path d="M456.842 186.415C453.47 178.863 448.25 173.912 437.415 167.344C428.732 191.185 427.426 216.499 430.014 241.731C449.228 230.919 456.467 208.05 456.842 186.415Z" fill="#FF994D"/>
<path d="M489.228 218.839C500.948 222.656 512.67 226.471 524.387 230.288C520.391 240.792 516.395 251.299 512.396 261.803C506.814 276.474 509.392 280.279 494.785 274.632C481.79 269.609 483.725 269.93 485.246 255.83C486.572 243.498 487.901 231.168 489.228 218.839Z" fill="black"/>
<path d="M496.63 231.239C503.506 234.075 511.614 233.651 508.921 241.731C506.057 250.314 503.198 258.896 500.334 267.476C489.264 262.911 491.131 261.577 493.394 249.834C494.433 244.444 497.29 234.49 496.63 231.239Z" fill="#66CC29"/>
<path d="M451.303 200.721C445.131 211.528 438.963 222.336 432.791 233.143C442.585 238.294 452.375 243.442 462.169 248.593C476.06 255.897 476.329 260.263 484.144 246.02C491.79 232.082 488.416 233.476 476.806 222.968C468.87 215.787 460.402 205.751 451.303 200.721Z" fill="black"/>
<path d="M454.071 215.023C449.773 224.52 444.494 227.623 453.863 232.774C460.678 236.521 473.261 248.47 477.667 240.298C482.251 231.797 460.1 219.957 454.071 215.023Z" fill="#66CC29"/>
<path d="M219.969 109.17C212.168 117.111 204.651 126.304 200.53 136.829C216.031 137.767 236.979 134.895 251.289 141.274C268.832 149.094 286.277 156.615 304.167 163.531C298.086 145.626 285.894 121.179 269.01 112.035C256.069 105.025 233.24 105.524 219.969 109.17Z" fill="black"/>
<path d="M287.514 146.366C261.648 134.811 242.645 128.259 214.409 127.292C221.098 121.715 226.07 117.343 237.542 117.755C245.347 118.035 260.429 119.564 267.154 123.475C274.91 127.987 281.581 143.494 287.514 146.366Z" fill="#FF994D"/>
<path d="M364.315 135.874C355.988 130.47 347.663 125.064 339.336 119.66C335.834 128.286 332.331 136.914 328.828 145.539C323.922 157.618 319.724 158.983 331.011 165.44C342.146 171.816 341.171 167.779 348.901 157.538C352.581 152.658 364.577 139.947 364.315 135.874Z" fill="black"/>
<path d="M351.365 138.734C348.281 136.511 345.195 134.287 342.111 132.062C339.694 138.29 337.279 144.521 334.86 150.752C333.082 155.334 337.878 162.713 339.795 158.763C343.138 151.888 349.331 146.277 351.365 138.734Z" fill="#66CC29"/>
<path d="M154.268 498.263C146.063 491.646 139.525 487.821 132.986 479.189C149.834 473.744 170.281 470.647 185.106 460.594C203.3 448.255 221.293 436.683 240.329 425.788C239.313 437.806 240.336 445.545 232.685 454.481C226.674 461.501 217.229 478.528 208.401 481.571C191.917 487.259 171.318 509.886 154.268 498.263Z" fill="black"/>
<path d="M226.449 444.855C214.437 453.638 202.968 463.274 189.659 469.814C175.586 476.725 161.163 479.416 145.943 482.997C153.672 487.279 163.608 492.314 173.702 489.679C190.244 485.362 218.288 459.481 226.449 444.855Z" fill="#FF994D"/>
<path d="M181.105 366.656C157.553 369.948 114.748 368.638 98.0443 390.761C88.7695 403.044 79.6305 417.52 92.7494 431.038C106.772 445.49 118.22 439.1 132.064 427.689C128.056 441.357 124.048 455.025 120.038 468.692C149.03 466.467 178.021 464.243 207.013 462.018C204.238 448.35 201.463 434.682 198.688 421.014C212.158 433.905 212.446 433.189 230.233 428.407C239.852 425.825 242.065 404.571 241.248 395.738C238.721 368.289 201.48 368.812 181.105 366.656Z" fill="black"/>
<path d="M130.213 460.114C134.993 453.813 139.464 434.865 139.464 426.741C139.464 416.731 128.945 415.851 121.879 415.291C131.766 424.283 114.586 434.32 106.156 431.513C97.8144 428.735 94.2158 409.036 98.9211 403.302C117.613 380.519 141.928 380.343 169.041 376.974C181.07 375.479 190.833 376.029 203.016 377.244C210.485 377.99 228.297 383.377 230.415 391.561C232.83 400.881 235.441 418.375 223.087 422.007C214.814 424.44 214.095 425.229 206.898 420.507C200.866 416.548 204.462 409.164 210.712 406.712C204.514 408.537 190.246 411.45 191.341 421.6C192.553 432.849 193.767 444.098 194.979 455.349C173.414 456.958 151.813 459.111 130.213 460.114Z" fill="#FFF299"/>
<path d="M190.358 420.066C197.31 411.103 200 409.866 210.714 406.709C188.131 415.571 226.587 436.964 229.224 414.339C224.093 417.941 219.512 418.737 213.489 417.206C222.322 408.178 212.895 398.031 202.382 400.985C189.046 404.737 194.577 416.273 190.358 420.066Z" fill="#B37D47"/>
<path d="M104.305 428.642C111.622 426.764 115.721 428.333 114.724 420.135C114.317 416.778 118.199 409.004 121.486 408.324C131.187 406.32 130.012 408.978 133.919 416.248C129.907 415.93 125.894 415.609 121.881 415.293C134.397 426.667 107.822 435.28 104.305 428.642Z" fill="#B37D47"/>
<path d="M233.847 403.851C230.035 390.115 221.594 379.093 206.399 377.578C187.707 375.717 172.882 376.493 154.204 378.816C135.259 381.172 124.803 384.222 107.699 393.036C93.9908 400.101 94.3464 419.921 104.302 429.598C95.521 418.018 101.536 400.217 113.925 395.11C130.496 388.278 144.012 386.093 161.841 383.798C186.535 380.619 236.945 373.573 229.221 413.388C230.911 410.253 232.761 407.114 233.847 403.851Z" fill="#B37D47"/>
<path d="M148.718 459.16C152.225 441.106 151.626 426.122 150.571 407.66C158.365 408.589 166.156 409.517 173.95 410.443C175.662 410.648 174.207 431.528 174.16 433.886C174.111 436.332 174.75 457.205 172.939 457.282C165.019 457.624 156.329 456.831 148.718 459.16Z" fill="#D9B86C"/>
<path d="M315.27 132.062C307.045 126.484 297.284 117.711 287.515 115.845C288.423 131.784 293.709 153.022 289.132 168.351C283.454 187.38 278.14 206.167 273.634 225.519C282.733 220.307 289.89 216.415 296.94 208.682C302.233 202.875 318.976 190.37 318.976 182.123C318.978 165.247 324.32 147.143 315.27 132.062Z" fill="black"/>
<path d="M286.592 206.442C296.199 178.52 300.534 158.814 298.62 129.196C301.73 135.563 309.482 139.556 310.649 150.178C313.56 176.668 302.31 188.132 286.592 206.442Z" fill="#FF994D"/>
<path d="M509.589 147.316C511.84 155.732 514.093 164.15 516.344 172.568C517.878 178.312 511.273 186.115 508.672 191.187C521.947 191.187 524.909 193.178 532.415 182.004C535.782 176.991 533.653 171.213 532.263 165.44C528.885 151.415 523.304 144.186 515.146 131.584C510.665 124.663 495.209 114.897 487.387 114.897C482.272 114.897 476.844 111.454 471.654 111.083C463.477 110.499 459.783 113.566 451.306 118.71C457.677 119.696 467.588 118.797 471.828 124.106C475.286 128.432 478.742 132.761 482.2 137.089C484.467 139.928 491.06 138.823 492.939 141.604C495.466 145.341 492.197 158.1 493.859 163.538C494.846 166.774 497.062 170.289 498.491 173.072C500.564 164.71 509.158 153.559 509.589 147.316Z" fill="#E6B845"/>
<path d="M577.137 231.24C574.486 239.822 574.217 250.3 566.959 251.269C563.929 251.672 556.159 247.568 553.084 246.499C554.572 243.941 556.835 241.66 559.093 239.345C562.216 236.145 556.329 224.478 554.82 219.583C553.236 214.456 533.47 202.555 529.937 203.583C536.149 199.888 538.84 195.08 546.243 198.015C551.729 200.187 563.473 201.996 566.156 207.735C569.82 215.568 573.477 223.405 577.137 231.24Z" fill="#E6B845"/>
</svg>
