<svg width="586" height="588" viewBox="0 0 586 588" fill="none" xmlns="http://www.w3.org/2000/svg">
<path d="M164.077 0H0V23.5083H164.077V0Z" fill="#ED6961"/>
<path d="M234.361 0H210.921V23.5083H234.361V0Z" fill="#ED6961"/>
<path d="M304.749 0H281.31V23.5083H304.749V0Z" fill="#ED6961"/>
<path d="M351.621 0H328.181V23.5083H351.621V0Z" fill="#ED6961"/>
<path d="M398.492 0H375.053V23.5083H398.492V0Z" fill="#ED6961"/>
<path d="M586 0H421.923V23.5083H586V0Z" fill="#ED6961"/>
<path d="M23.4395 23.5049H0V47.0146H23.4395V23.5049Z" fill="#ED6961"/>
<path d="M164.054 23.5049H140.614V47.0146H164.054V23.5049Z" fill="#ED6961"/>
<path d="M234.361 23.5049H210.921V47.0146H234.361V23.5049Z" fill="#ED6961"/>
<path d="M351.624 23.5049H304.745V47.0146H351.624V23.5049Z" fill="#ED6961"/>
<path d="M445.363 23.5049H421.923V47.0146H445.363V23.5049Z" fill="#ED6961"/>
<path d="M585.977 23.5049H562.538V47.0146H585.977V23.5049Z" fill="#ED6961"/>
<path d="M23.4395 47.0098H0V70.519H23.4395V47.0098Z" fill="#ED6961"/>
<path d="M117.19 47.0098H46.8716V70.519H117.19V47.0098Z" fill="#ED6961"/>
<path d="M164.054 47.0098H140.614V70.519H164.054V47.0098Z" fill="#ED6961"/>
<path d="M234.361 47.0098H210.921V70.519H234.361V47.0098Z" fill="#ED6961"/>
<path d="M281.313 47.0098H257.874V70.519H281.313V47.0098Z" fill="#ED6961"/>
<path d="M351.621 47.0098H328.181V70.519H351.621V47.0098Z" fill="#ED6961"/>
<path d="M398.492 47.0098H375.053V70.519H398.492V47.0098Z" fill="#ED6961"/>
<path d="M445.363 47.0098H421.923V70.519H445.363V47.0098Z" fill="#ED6961"/>
<path d="M539.114 47.0098H468.795V70.519H539.114V47.0098Z" fill="#ED6961"/>
<path d="M585.977 47.0098H562.538V70.519H585.977V47.0098Z" fill="#ED6961"/>
<path d="M23.4395 70.5156H0V94.0239H23.4395V70.5156Z" fill="#ED6961"/>
<path d="M117.19 70.5156H46.8716V94.0239H117.19V70.5156Z" fill="#ED6961"/>
<path d="M164.054 70.5156H140.614V94.0239H164.054V70.5156Z" fill="#ED6961"/>
<path d="M210.925 70.5156H187.486V94.0239H210.925V70.5156Z" fill="#ED6961"/>
<path d="M398.434 70.5156H234.357V94.0239H398.434V70.5156Z" fill="#ED6961"/>
<path d="M445.363 70.5156H421.923V94.0239H445.363V70.5156Z" fill="#ED6961"/>
<path d="M539.114 70.5156H468.795V94.0239H539.114V70.5156Z" fill="#ED6961"/>
<path d="M585.977 70.5156H562.538V94.0239H585.977V70.5156Z" fill="#ED6961"/>
<path d="M23.4395 94.0215H0V117.53H23.4395V94.0215Z" fill="#ED6961"/>
<path d="M117.19 94.0215H46.8716V117.53H117.19V94.0215Z" fill="#ED6961"/>
<path d="M164.054 94.0215H140.614V117.53H164.054V94.0215Z" fill="#ED6961"/>
<path d="M210.925 94.0215H187.486V117.53H210.925V94.0215Z" fill="#ED6961"/>
<path d="M281.313 94.0215H257.874V117.53H281.313V94.0215Z" fill="#ED6961"/>
<path d="M351.621 94.0215H328.181V117.53H351.621V94.0215Z" fill="#ED6961"/>
<path d="M398.492 94.0215H375.053V117.53H398.492V94.0215Z" fill="#ED6961"/>
<path d="M445.363 94.0215H421.923V117.53H445.363V94.0215Z" fill="#ED6961"/>
<path d="M539.114 94.0215H468.795V117.53H539.114V94.0215Z" fill="#ED6961"/>
<path d="M585.977 94.0215H562.538V117.53H585.977V94.0215Z" fill="#ED6961"/>
<path d="M23.4395 117.525H0V141.036H23.4395V117.525Z" fill="#ED6961"/>
<path d="M164.054 117.525H140.614V141.036H164.054V117.525Z" fill="#ED6961"/>
<path d="M257.8 117.525H210.921V141.036H257.8V117.525Z" fill="#ED6961"/>
<path d="M304.749 117.525H281.31V141.036H304.749V117.525Z" fill="#ED6961"/>
<path d="M351.621 117.525H328.181V141.036H351.621V117.525Z" fill="#ED6961"/>
<path d="M398.492 117.525H375.053V141.036H398.492V117.525Z" fill="#ED6961"/>
<path d="M445.363 117.525H421.923V141.036H445.363V117.525Z" fill="#ED6961"/>
<path d="M585.977 117.525H562.538V141.036H585.977V117.525Z" fill="#ED6961"/>
<path d="M164.077 141.071H0V164.581H164.077V141.071Z" fill="#ED6961"/>
<path d="M210.925 141.071H187.486V164.581H210.925V141.071Z" fill="#ED6961"/>
<path d="M257.796 141.071H234.357V164.581H257.796V141.071Z" fill="#ED6961"/>
<path d="M304.749 141.071H281.31V164.581H304.749V141.071Z" fill="#ED6961"/>
<path d="M351.621 141.071H328.181V164.581H351.621V141.071Z" fill="#ED6961"/>
<path d="M398.492 141.071H375.053V164.581H398.492V141.071Z" fill="#ED6961"/>
<path d="M586 141.071H421.923V164.581H586V141.071Z" fill="#ED6961"/>
<path d="M234.361 164.576H210.921V188.086H234.361V164.576Z" fill="#ED6961"/>
<path d="M304.749 164.576H281.31V188.086H304.749V164.576Z" fill="#ED6961"/>
<path d="M351.621 164.576H328.181V188.086H351.621V164.576Z" fill="#ED6961"/>
<path d="M398.492 164.576H375.053V188.086H398.492V164.576Z" fill="#ED6961"/>
<path d="M46.879 188.083H0V211.591H46.879V188.083Z" fill="#ED6961"/>
<path d="M187.497 188.083H117.178V211.591H187.497V188.083Z" fill="#ED6961"/>
<path d="M281.24 188.083H210.921V211.591H281.24V188.083Z" fill="#ED6961"/>
<path d="M398.503 188.083H304.745V211.591H398.503V188.083Z" fill="#ED6961"/>
<path d="M515.674 188.083H468.795V211.591H515.674V188.083Z" fill="#ED6961"/>
<path d="M23.4395 211.586H0V235.097H23.4395V211.586Z" fill="#ED6961"/>
<path d="M140.63 211.586H46.8716V235.097H140.63V211.586Z" fill="#ED6961"/>
<path d="M187.49 211.586H164.05V235.097H187.49V211.586Z" fill="#ED6961"/>
<path d="M281.236 211.586H234.357V235.097H281.236V211.586Z" fill="#ED6961"/>
<path d="M375.064 211.586H304.745V235.097H375.064V211.586Z" fill="#ED6961"/>
<path d="M562.557 211.586H445.359V235.097H562.557V211.586Z" fill="#ED6961"/>
<path d="M46.8751 235.093H23.4355V258.601H46.8751V235.093Z" fill="#ED6961"/>
<path d="M187.497 235.093H117.178V258.601H187.497V235.093Z" fill="#ED6961"/>
<path d="M234.361 235.093H210.921V258.601H234.361V235.093Z" fill="#ED6961"/>
<path d="M375.06 235.093H328.181V258.601H375.06V235.093Z" fill="#ED6961"/>
<path d="M515.685 235.093H398.488V258.601H515.685V235.093Z" fill="#ED6961"/>
<path d="M585.981 235.093H539.102V258.601H585.981V235.093Z" fill="#ED6961"/>
<path d="M70.3186 258.598H0V282.106H70.3186V258.598Z" fill="#ED6961"/>
<path d="M140.618 258.598H117.178V282.106H140.618V258.598Z" fill="#ED6961"/>
<path d="M210.929 258.598H164.05V282.106H210.929V258.598Z" fill="#ED6961"/>
<path d="M257.796 258.598H234.357V282.106H257.796V258.598Z" fill="#ED6961"/>
<path d="M375.06 258.598H328.181V282.106H375.06V258.598Z" fill="#ED6961"/>
<path d="M468.806 258.598H398.488V282.106H468.806V258.598Z" fill="#ED6961"/>
<path d="M515.671 258.598H492.231V282.106H515.671V258.598Z" fill="#ED6961"/>
<path d="M585.977 258.598H562.538V282.106H585.977V258.598Z" fill="#ED6961"/>
<path d="M23.4395 282.103H0V305.612H23.4395V282.103Z" fill="#ED6961"/>
<path d="M164.065 282.103H70.3071V305.612H164.065V282.103Z" fill="#ED6961"/>
<path d="M281.24 282.103H210.921V305.612H281.24V282.103Z" fill="#ED6961"/>
<path d="M375.06 282.103H328.181V305.612H375.06V282.103Z" fill="#ED6961"/>
<path d="M445.363 282.103H421.923V305.612H445.363V282.103Z" fill="#ED6961"/>
<path d="M585.977 282.103H562.538V305.612H585.977V282.103Z" fill="#ED6961"/>
<path d="M23.4395 305.608H0V329.118H23.4395V305.608Z" fill="#ED6961"/>
<path d="M93.7506 305.608H46.8716V329.118H93.7506V305.608Z" fill="#ED6961"/>
<path d="M140.618 305.608H117.178V329.118H140.618V305.608Z" fill="#ED6961"/>
<path d="M398.445 305.608H164.05V329.118H398.445V305.608Z" fill="#ED6961"/>
<path d="M468.799 305.608H445.359V329.118H468.799V305.608Z" fill="#ED6961"/>
<path d="M562.542 305.608H539.102V329.118H562.542V305.608Z" fill="#ED6961"/>
<path d="M23.4395 329.113H0V352.622H23.4395V329.113Z" fill="#ED6961"/>
<path d="M93.7466 329.113H70.3071V352.622H93.7466V329.113Z" fill="#ED6961"/>
<path d="M234.372 329.113H140.614V352.622H234.372V329.113Z" fill="#ED6961"/>
<path d="M304.749 329.113H281.31V352.622H304.749V329.113Z" fill="#ED6961"/>
<path d="M375.056 329.113H351.617V352.622H375.056V329.113Z" fill="#ED6961"/>
<path d="M515.682 329.113H421.923V352.622H515.682V329.113Z" fill="#ED6961"/>
<path d="M585.981 329.113H539.102V352.622H585.981V329.113Z" fill="#ED6961"/>
<path d="M23.4395 352.619H0V376.127H23.4395V352.619Z" fill="#ED6961"/>
<path d="M70.3111 352.619H46.8716V376.127H70.3111V352.619Z" fill="#ED6961"/>
<path d="M140.622 352.619H93.7432V376.127H140.622V352.619Z" fill="#ED6961"/>
<path d="M234.369 352.619H164.05V376.127H234.369V352.619Z" fill="#ED6961"/>
<path d="M304.749 352.619H281.31V376.127H304.749V352.619Z" fill="#ED6961"/>
<path d="M375.056 352.619H351.617V376.127H375.056V352.619Z" fill="#ED6961"/>
<path d="M468.799 352.619H445.359V376.127H468.799V352.619Z" fill="#ED6961"/>
<path d="M539.11 352.619H492.231V376.127H539.11V352.619Z" fill="#ED6961"/>
<path d="M585.977 352.619H562.538V376.127H585.977V352.619Z" fill="#ED6961"/>
<path d="M23.4395 376.165H0V399.674H23.4395V376.165Z" fill="#ED6961"/>
<path d="M117.19 376.165H46.8716V399.674H117.19V376.165Z" fill="#ED6961"/>
<path d="M210.933 376.165H140.614V399.674H210.933V376.165Z" fill="#ED6961"/>
<path d="M328.185 376.165H304.745V399.674H328.185V376.165Z" fill="#ED6961"/>
<path d="M492.25 376.165H375.053V399.674H492.25V376.165Z" fill="#ED6961"/>
<path d="M539.106 376.165H515.666V399.674H539.106V376.165Z" fill="#ED6961"/>
<path d="M210.925 399.669H187.486V423.179H210.925V399.669Z" fill="#ED6961"/>
<path d="M281.236 399.669H234.357V423.179H281.236V399.669Z" fill="#ED6961"/>
<path d="M351.621 399.669H328.181V423.179H351.621V399.669Z" fill="#ED6961"/>
<path d="M398.492 399.669H375.053V423.179H398.492V399.669Z" fill="#ED6961"/>
<path d="M492.235 399.669H468.795V423.179H492.235V399.669Z" fill="#ED6961"/>
<path d="M164.077 423.175H0V446.684H164.077V423.175Z" fill="#ED6961"/>
<path d="M234.365 423.175H187.486V446.684H234.365V423.175Z" fill="#ED6961"/>
<path d="M351.632 423.175H257.874V446.684H351.632V423.175Z" fill="#ED6961"/>
<path d="M398.492 423.175H375.053V446.684H398.492V423.175Z" fill="#ED6961"/>
<path d="M445.363 423.175H421.923V446.684H445.363V423.175Z" fill="#ED6961"/>
<path d="M492.235 423.175H468.795V446.684H492.235V423.175Z" fill="#ED6961"/>
<path d="M585.977 423.175H562.538V446.684H585.977V423.175Z" fill="#ED6961"/>
<path d="M23.4395 446.681H0V470.189H23.4395V446.681Z" fill="#ED6961"/>
<path d="M164.054 446.681H140.614V470.189H164.054V446.681Z" fill="#ED6961"/>
<path d="M257.805 446.681H187.486V470.189H257.805V446.681Z" fill="#ED6961"/>
<path d="M351.621 446.681H328.181V470.189H351.621V446.681Z" fill="#ED6961"/>
<path d="M398.492 446.681H375.053V470.189H398.492V446.681Z" fill="#ED6961"/>
<path d="M492.235 446.681H468.795V470.189H492.235V446.681Z" fill="#ED6961"/>
<path d="M23.4395 470.185H0V493.694H23.4395V470.185Z" fill="#ED6961"/>
<path d="M117.19 470.185H46.8716V493.694H117.19V470.185Z" fill="#ED6961"/>
<path d="M164.054 470.185H140.614V493.694H164.054V470.185Z" fill="#ED6961"/>
<path d="M492.258 470.185H328.181V493.694H492.258V470.185Z" fill="#ED6961"/>
<path d="M562.545 470.185H515.666V493.694H562.545V470.185Z" fill="#ED6961"/>
<path d="M23.4395 493.69H0V517.2H23.4395V493.69Z" fill="#ED6961"/>
<path d="M117.19 493.69H46.8716V517.2H117.19V493.69Z" fill="#ED6961"/>
<path d="M164.054 493.69H140.614V517.2H164.054V493.69Z" fill="#ED6961"/>
<path d="M304.753 493.69H257.874V517.2H304.753V493.69Z" fill="#ED6961"/>
<path d="M351.621 493.69H328.181V517.2H351.621V493.69Z" fill="#ED6961"/>
<path d="M445.367 493.69H398.488V517.2H445.367V493.69Z" fill="#ED6961"/>
<path d="M585.981 493.69H539.102V517.2H585.981V493.69Z" fill="#ED6961"/>
<path d="M23.4395 517.196H0V540.704H23.4395V517.196Z" fill="#ED6961"/>
<path d="M117.19 517.196H46.8716V540.704H117.19V517.196Z" fill="#ED6961"/>
<path d="M164.054 517.196H140.614V540.704H164.054V517.196Z" fill="#ED6961"/>
<path d="M234.361 517.196H210.921V540.704H234.361V517.196Z" fill="#ED6961"/>
<path d="M375.068 517.196H281.31V540.704H375.068V517.196Z" fill="#ED6961"/>
<path d="M421.927 517.196H398.488V540.704H421.927V517.196Z" fill="#ED6961"/>
<path d="M539.11 517.196H492.231V540.704H539.11V517.196Z" fill="#ED6961"/>
<path d="M585.977 517.196H562.538V540.704H585.977V517.196Z" fill="#ED6961"/>
<path d="M23.4395 540.701H0V564.21H23.4395V540.701Z" fill="#ED6961"/>
<path d="M164.054 540.701H140.614V564.21H164.054V540.701Z" fill="#ED6961"/>
<path d="M234.365 540.701H187.486V564.21H234.365V540.701Z" fill="#ED6961"/>
<path d="M398.5 540.701H328.181V564.21H398.5V540.701Z" fill="#ED6961"/>
<path d="M492.238 540.701H445.359V564.21H492.238V540.701Z" fill="#ED6961"/>
<path d="M585.977 540.701H562.538V564.21H585.977V540.701Z" fill="#ED6961"/>
<path d="M164.077 564.206H0V587.715H164.077V564.206Z" fill="#ED6961"/>
<path d="M210.925 564.206H187.486V587.715H210.925V564.206Z" fill="#ED6961"/>
<path d="M304.749 564.206H281.31V587.715H304.749V564.206Z" fill="#ED6961"/>
<path d="M445.371 564.206H375.053V587.715H445.371V564.206Z" fill="#ED6961"/>
<path d="M515.671 564.206H492.231V587.715H515.671V564.206Z" fill="#ED6961"/>
<path d="M585.977 564.206H562.538V587.715H585.977V564.206Z" fill="#ED6961"/>
</svg>
