<svg width="1082" height="930" viewBox="0 0 1082 930" fill="none" xmlns="http://www.w3.org/2000/svg">
<mask id="path-1-inside-1" fill="white">
<path d="M369.85 686.352C340.506 686.352 299.943 697.092 266.509 713.715C224.319 734.689 201.084 761.147 201.084 788.216C201.084 815.285 224.319 841.744 266.509 862.718C275.645 867.262 285.321 871.345 295.147 874.91C295.197 874.928 295.247 874.945 295.297 874.964C321.384 884.411 348.565 890.082 369.85 890.082C429.831 890.082 478.629 844.386 478.629 788.218C478.629 732.05 429.831 686.352 369.85 686.352ZM369.85 862.009C357.96 862.009 343.562 859.728 328.604 855.762L401.23 787.752C407.083 782.269 407.083 773.384 401.23 767.903C395.375 762.424 385.887 762.424 380.034 767.903L297.383 845.3C290.793 842.62 284.358 839.687 278.247 836.551L364.313 755.956C370.166 750.473 370.166 741.588 364.313 736.107C358.457 730.628 348.969 730.628 343.116 736.107L252.794 820.69C239.587 810.442 231.062 799.233 231.062 788.216C231.062 752.354 321.316 714.422 369.852 714.422C413.304 714.422 448.655 747.524 448.655 788.216C448.655 828.909 413.302 862.009 369.85 862.009ZM817.628 713.715C784.194 697.092 743.629 686.352 714.287 686.352C654.306 686.352 605.509 732.048 605.509 788.216C605.509 811.87 614.185 833.647 628.685 850.955C629.105 851.554 629.593 852.121 630.122 852.665C642.132 866.395 657.893 877.131 675.923 883.518C676.564 883.785 677.218 884.016 677.885 884.193C689.274 887.992 701.524 890.079 714.287 890.079C743.629 890.079 784.192 879.339 817.628 862.716C859.818 841.742 883.053 815.283 883.053 788.214C883.053 761.146 859.82 734.689 817.628 713.715ZM714.287 862.009C713.702 862.009 713.122 861.979 712.539 861.968L790.631 788.881C796.486 783.401 796.488 774.514 790.636 769.033C784.783 763.546 775.293 763.548 769.442 769.028L678.65 853.999C672.659 851.142 667.108 847.594 662.12 843.458L752.5 758.221C758.331 752.721 758.297 743.834 752.424 738.373C746.553 732.913 737.06 732.941 731.229 738.444L643.709 820.985C638.457 811.105 635.486 799.983 635.486 788.218C635.486 747.528 670.835 714.424 714.289 714.424C762.825 714.424 853.079 752.356 853.079 788.218C853.079 824.08 762.823 862.009 714.287 862.009ZM1002.37 726.275H930.262C913.16 711.656 890.091 697.784 861.538 685.186C808.997 662.004 745.394 646.431 703.264 646.431C636.959 646.431 580.511 686.567 560.07 742.243H524.071C503.63 686.565 447.182 646.431 380.877 646.431C339.331 646.431 273.931 662.361 221.837 685.167C198.187 695.523 172.3 709.293 152.163 726.275H80.8412C72.562 726.275 65.8535 732.557 65.8535 740.31V836.121C65.8535 843.874 72.562 850.156 80.8412 850.156H152.161C172.296 867.138 198.185 880.907 221.835 891.263C273.929 914.071 339.329 930 380.875 930C453.369 930 514.098 882.034 528.839 818.219H555.296C570.04 882.034 630.766 930 703.26 930C745.39 930 808.993 914.427 861.534 891.245C890.089 878.647 913.156 864.775 930.258 850.156H1002.37C1010.65 850.156 1017.36 843.874 1017.36 836.121V740.31C1017.36 732.559 1010.65 726.275 1002.37 726.275ZM95.8289 754.345H127.161C120.778 764.806 117.012 776.101 117.012 788.216C117.012 800.331 120.78 811.625 127.161 822.087H95.8289V754.345ZM380.875 901.93C343.252 901.93 283.073 887.087 234.533 865.834C178.895 841.476 146.987 813.186 146.987 788.216C146.987 776.397 154.147 763.835 167.578 751.295C168.401 750.681 169.161 749.996 169.832 749.236C184.766 735.978 206.674 722.794 234.533 710.597C283.073 689.344 343.252 674.501 380.875 674.501C447.834 674.501 502.309 725.513 502.309 788.216C502.309 850.919 447.832 901.93 380.875 901.93ZM532.231 790.149C532.241 789.504 532.283 788.864 532.283 788.216C532.283 782.149 531.827 776.184 531.034 770.315H553.102C552.308 776.184 551.853 782.149 551.853 788.216C551.853 788.864 551.895 789.504 551.905 790.149H532.231ZM848.759 865.852C800.612 887.096 740.781 901.93 703.26 901.93C636.301 901.93 581.826 850.917 581.826 788.214C581.826 725.512 636.301 674.499 703.26 674.499C740.779 674.499 800.612 689.335 848.759 710.576C903.907 734.907 935.538 763.206 935.538 788.213C935.538 813.219 903.907 841.521 848.759 865.852ZM987.385 822.086H955.139C961.982 810.953 965.515 799.598 965.515 788.214C965.515 776.831 961.982 765.476 955.139 754.343H987.385V822.086Z"/>
</mask>
<path d="M369.85 686.352C340.506 686.352 299.943 697.092 266.509 713.715C224.319 734.689 201.084 761.147 201.084 788.216C201.084 815.285 224.319 841.744 266.509 862.718C275.645 867.262 285.321 871.345 295.147 874.91C295.197 874.928 295.247 874.945 295.297 874.964C321.384 884.411 348.565 890.082 369.85 890.082C429.831 890.082 478.629 844.386 478.629 788.218C478.629 732.05 429.831 686.352 369.85 686.352ZM369.85 862.009C357.96 862.009 343.562 859.728 328.604 855.762L401.23 787.752C407.083 782.269 407.083 773.384 401.23 767.903C395.375 762.424 385.887 762.424 380.034 767.903L297.383 845.3C290.793 842.62 284.358 839.687 278.247 836.551L364.313 755.956C370.166 750.473 370.166 741.588 364.313 736.107C358.457 730.628 348.969 730.628 343.116 736.107L252.794 820.69C239.587 810.442 231.062 799.233 231.062 788.216C231.062 752.354 321.316 714.422 369.852 714.422C413.304 714.422 448.655 747.524 448.655 788.216C448.655 828.909 413.302 862.009 369.85 862.009ZM817.628 713.715C784.194 697.092 743.629 686.352 714.287 686.352C654.306 686.352 605.509 732.048 605.509 788.216C605.509 811.87 614.185 833.647 628.685 850.955C629.105 851.554 629.593 852.121 630.122 852.665C642.132 866.395 657.893 877.131 675.923 883.518C676.564 883.785 677.218 884.016 677.885 884.193C689.274 887.992 701.524 890.079 714.287 890.079C743.629 890.079 784.192 879.339 817.628 862.716C859.818 841.742 883.053 815.283 883.053 788.214C883.053 761.146 859.82 734.689 817.628 713.715ZM714.287 862.009C713.702 862.009 713.122 861.979 712.539 861.968L790.631 788.881C796.486 783.401 796.488 774.514 790.636 769.033C784.783 763.546 775.293 763.548 769.442 769.028L678.65 853.999C672.659 851.142 667.108 847.594 662.12 843.458L752.5 758.221C758.331 752.721 758.297 743.834 752.424 738.373C746.553 732.913 737.06 732.941 731.229 738.444L643.709 820.985C638.457 811.105 635.486 799.983 635.486 788.218C635.486 747.528 670.835 714.424 714.289 714.424C762.825 714.424 853.079 752.356 853.079 788.218C853.079 824.08 762.823 862.009 714.287 862.009ZM1002.37 726.275H930.262C913.16 711.656 890.091 697.784 861.538 685.186C808.997 662.004 745.394 646.431 703.264 646.431C636.959 646.431 580.511 686.567 560.07 742.243H524.071C503.63 686.565 447.182 646.431 380.877 646.431C339.331 646.431 273.931 662.361 221.837 685.167C198.187 695.523 172.3 709.293 152.163 726.275H80.8412C72.562 726.275 65.8535 732.557 65.8535 740.31V836.121C65.8535 843.874 72.562 850.156 80.8412 850.156H152.161C172.296 867.138 198.185 880.907 221.835 891.263C273.929 914.071 339.329 930 380.875 930C453.369 930 514.098 882.034 528.839 818.219H555.296C570.04 882.034 630.766 930 703.26 930C745.39 930 808.993 914.427 861.534 891.245C890.089 878.647 913.156 864.775 930.258 850.156H1002.37C1010.65 850.156 1017.36 843.874 1017.36 836.121V740.31C1017.36 732.559 1010.65 726.275 1002.37 726.275ZM95.8289 754.345H127.161C120.778 764.806 117.012 776.101 117.012 788.216C117.012 800.331 120.78 811.625 127.161 822.087H95.8289V754.345ZM380.875 901.93C343.252 901.93 283.073 887.087 234.533 865.834C178.895 841.476 146.987 813.186 146.987 788.216C146.987 776.397 154.147 763.835 167.578 751.295C168.401 750.681 169.161 749.996 169.832 749.236C184.766 735.978 206.674 722.794 234.533 710.597C283.073 689.344 343.252 674.501 380.875 674.501C447.834 674.501 502.309 725.513 502.309 788.216C502.309 850.919 447.832 901.93 380.875 901.93ZM532.231 790.149C532.241 789.504 532.283 788.864 532.283 788.216C532.283 782.149 531.827 776.184 531.034 770.315H553.102C552.308 776.184 551.853 782.149 551.853 788.216C551.853 788.864 551.895 789.504 551.905 790.149H532.231ZM848.759 865.852C800.612 887.096 740.781 901.93 703.26 901.93C636.301 901.93 581.826 850.917 581.826 788.214C581.826 725.512 636.301 674.499 703.26 674.499C740.779 674.499 800.612 689.335 848.759 710.576C903.907 734.907 935.538 763.206 935.538 788.213C935.538 813.219 903.907 841.521 848.759 865.852ZM987.385 822.086H955.139C961.982 810.953 965.515 799.598 965.515 788.214C965.515 776.831 961.982 765.476 955.139 754.343H987.385V822.086Z" fill="#F0C368" stroke="black" stroke-width="2" mask="url(#path-1-inside-1)"/>
<path d="M1081.86 599.393C1081.86 440.424 1024.87 287.966 923.429 175.558C821.984 63.1502 684.396 1.20018e-05 540.932 0C397.468 -1.20018e-05 259.88 63.1501 158.435 175.558C56.9909 287.966 2.16625e-05 440.424 0 599.393L177.489 553.76L264.475 539.816H347.406H430.058H506.662H626.272H770.511L847.183 546.878L923.429 553.76L998.487 573.136L1081.86 599.393Z" fill="#F0C368"/>
<g clip-path="url(#clip0)">
<path d="M861.041 417.644L860.856 417.235C860.774 417.048 860.637 416.828 860.546 416.726C860.448 416.619 860.374 416.601 860.172 416.601H860.083L860.077 417.644H859.625L859.618 415.098L860.748 415.094C861.246 415.101 861.473 415.403 861.48 415.816C861.476 416.195 861.243 416.472 860.856 416.523L860.859 416.54C861.046 416.611 861.108 416.676 861.347 417.126L861.617 417.645H861.041L861.041 417.644ZM860.563 416.195C860.881 416.195 860.984 416.022 860.984 415.842C860.989 415.623 860.816 415.497 860.51 415.501L860.077 415.497V416.195H860.563V416.195ZM858.856 416.358C858.861 417.425 859.636 418.289 860.599 418.294C861.555 418.289 862.336 417.417 862.345 416.368C862.336 415.3 861.557 414.441 860.592 414.437C859.639 414.444 858.864 415.3 858.856 416.358V416.358ZM862.759 416.361C862.761 417.686 861.795 418.752 860.595 418.755C859.401 418.769 858.429 417.682 858.439 416.367C858.436 415.047 859.401 413.973 860.599 413.973C861.799 413.973 862.758 415.033 862.758 416.361H862.759ZM675.177 425.151L660.533 425.165C658.995 425.165 658.155 425.09 656.84 425.906C654.909 427 654.45 428.974 654.454 431.023C654.46 433.729 656.928 433.938 659.238 433.938L667.942 433.932C672.65 433.929 675.2 436.85 675.2 441.168C675.2 443.067 674.66 445.035 674.351 446.941C673.974 449.278 672.657 451.476 670.812 453.093C668.502 455.211 666.732 455.573 663.572 455.576L646.539 455.6L647.619 449.302L662.793 449.295C666.881 449.284 668.111 446.65 668.106 443.141C668.102 440.812 666.638 440.226 664.406 440.226L656.233 440.234C651.686 440.234 647.599 438.117 647.599 433.373C647.593 431.318 648.136 429.195 648.513 427.149C648.979 424.515 650.751 422.03 653.052 420.492C655.136 419.175 657.293 418.958 659.768 418.948L676.253 418.935L675.177 425.151ZM713.111 428.405C712.11 434.409 711.114 440.405 710.112 446.402C709.195 451.736 704.576 455.545 698.877 455.542L683.147 455.558L680.922 468.571L674.374 468.583L680.961 428.659C681.962 422.517 685.661 418.928 692.371 418.917L704.241 418.911C709.24 418.904 713.335 420.658 713.345 425.995C713.336 426.804 713.257 427.61 713.111 428.405V428.405ZM706.32 428.849C706.32 426.072 704.475 425.127 701.781 425.127L693.6 425.131C690.059 425.137 687.899 426.746 687.369 430.108L684.451 447.733C684.373 447.808 684.375 447.879 684.373 447.954C684.373 448.83 684.991 449.27 685.916 449.274L698.097 449.261C701.255 449.257 703.262 447.504 703.799 444.574L706.323 429.655C706.401 429.439 706.326 429.075 706.32 428.849V428.849ZM818.406 445.418C817.866 448.644 816.871 451.123 814.022 453.097C811.79 454.641 808.863 455.437 806.082 455.454L794.45 455.461C789.353 455.453 785.732 453.341 785.726 448.158C785.739 447.354 785.8 446.474 785.963 445.672L788.793 428.494C789.796 422.646 794.186 418.834 800.422 418.83L816.221 418.817L819.194 405.868H825.823L818.406 445.418V445.418ZM814.922 426.421C814.919 425.544 814.45 425.1 813.53 425.107L801.354 425.117C797.968 425.117 795.656 427.011 795.116 430.173L792.813 444.141C792.742 444.787 792.592 445.448 792.586 446.107C792.586 448.594 795.294 449.17 797.369 449.165L805.385 449.17C808.546 449.156 811.393 447.629 811.933 444.477L814.926 426.566L814.922 426.421ZM857.553 428.07L854.571 446.267C854.106 449.267 852.799 451.76 850.173 453.585C847.707 455.271 845.864 455.417 842.855 455.417L831.372 455.427C828.676 455.427 826.597 455.427 824.515 453.609C822.896 452.152 822.268 450.466 822.281 448.424C822.267 447.693 822.404 447.066 822.506 445.895L825.546 428.229C826.669 424.634 827.261 422.527 829.966 420.702C832.576 418.938 834.27 418.796 837.422 418.792L848.995 418.784C851.532 418.779 853.689 418.774 855.618 420.607C857.24 422.144 857.781 423.823 857.778 425.939C857.795 426.671 857.706 427.332 857.553 428.07V428.07ZM849.769 426.028C848.69 424.921 847.61 425.003 846.064 424.996L837.896 425.006C834.427 425.009 832.354 426.553 831.808 429.838L829.359 444.537C829.285 444.974 829.287 445.34 829.287 445.782C829.28 446.738 829.592 447.534 830.367 448.201C831.446 449.213 832.364 449.143 833.837 449.143L842.471 449.122C844.084 449.131 844.777 449.122 846.087 448.176C847.473 447.219 848.013 446.196 848.248 444.59L850.693 429.821C850.778 429.383 850.771 429.011 850.767 428.577C850.766 427.623 850.465 426.752 849.769 426.028V426.028ZM747.369 440.206L722.03 440.165C721.959 441.113 721.256 444.997 721.256 445.878C721.256 447.04 721.409 447.56 722.333 448.363C723.572 449.382 724.653 449.24 726.194 449.23L745.772 449.212L744.77 455.504L723.888 455.524C720.953 455.518 718.566 455.452 716.324 453.485C714.711 452.093 714.167 450.56 714.165 448.515C714.165 447.564 714.246 446.537 714.399 445.596L717.316 428.259C718.383 421.825 722.697 418.889 729.401 418.889L741.04 418.883C745.817 418.875 749.519 420.631 749.532 425.594C749.526 428.158 747.825 437.639 747.369 440.205V440.206ZM737.817 425.104H730.563C727.02 425.107 724.171 426.204 723.636 429.793L722.981 434.72L741.648 434.707C741.804 434.192 742.516 428.747 742.51 428.232C742.519 425.751 739.966 425.09 737.817 425.103V425.104ZM782.341 440.176L758.253 440.128C758.191 441.086 757.516 444.963 757.524 445.843C757.524 447.019 757.668 447.526 758.552 448.332C759.721 449.352 760.748 449.2 762.215 449.2L780.818 449.183L779.874 455.471L760.029 455.485C757.235 455.498 754.971 455.42 752.844 453.456C751.298 452.054 750.787 450.527 750.785 448.483C750.788 447.527 750.853 446.511 750.996 445.556L753.775 428.23C754.792 421.789 758.894 418.857 765.26 418.857L776.329 418.84C780.867 418.844 784.38 420.591 784.396 425.565C784.399 428.121 782.779 437.619 782.341 440.176V440.176ZM773.265 425.059L766.366 425.073C762.996 425.076 760.289 426.17 759.783 429.76L759.158 434.693L776.896 434.677C777.046 434.163 777.725 428.72 777.728 428.205C777.728 425.723 775.304 425.073 773.265 425.059Z" fill="#1D373F"/>
<path d="M877.819 418.627C877.81 418.646 956.642 418.627 956.642 418.627C959.851 418.57 959.309 422.347 956.931 422.877C956.921 422.895 860.542 455.505 860.542 455.505C858.049 456.461 857.765 455.688 857.665 454.952C857.618 454.229 858.175 453.625 859.315 453.121C859.289 453.141 904.604 429.501 904.604 429.501C907.081 428.151 905.4 426.801 904.855 426.725C904.861 426.746 877.819 420.012 877.819 420.012C876.318 419.483 876.765 418.517 877.819 418.627" fill="#1D373F"/>
</g>
<defs>
<clipPath id="clip0">
<rect width="312.475" height="62.7152" fill="white" transform="translate(646.43 405.867)"/>
</clipPath>
</defs>
</svg>
