<svg width="757" height="874" viewBox="0 0 757 874" fill="none" xmlns="http://www.w3.org/2000/svg">
<path d="M83.6994 659.975L81.54 2.20605L693.044 0.198568L695.203 657.967L83.6994 659.975Z" fill="#EB5E60"/>
<path d="M381.851 447.078L381.715 405.795L409.111 405.705L409.246 446.988L430.608 463.431L433.724 485.438L418.505 485.488L397.197 485.558L372.846 485.638L357.626 485.688L360.598 463.661L381.851 447.078Z" fill="#FEFEFE"/>
<path d="M432.963 116.643L352.389 116.908L366.777 136.455L366.842 156.048L356.141 169.146L318.54 169.27L347.474 256.259L340.647 280.23L322.578 308.592L319.09 336.906L322.764 365.196L335.376 389.103L347.975 408.656L444.664 408.338L457.134 388.703L467.798 364.72L471.287 336.406L471.194 308.104L453.195 279.86L444.164 255.942L470.736 168.77L427.252 168.913L417.425 155.882L417.36 136.289L432.963 116.643Z" fill="#FEFEFE"/>
<path d="M136.275 117.62L136.049 48.8154L195.841 48.6191" stroke="#FEFEFE" stroke-width="3"/>
<path d="M198.588 606.431L130.647 605.644L131.326 545.099" stroke="#FEFEFE" stroke-width="3"/>
<path d="M644.887 530.609L645.219 599.413L585.428 599.703" stroke="#FEFEFE" stroke-width="3"/>
<path d="M580.617 48.6045L648.562 48.7295L648.459 109.277" stroke="#FEFEFE" stroke-width="3"/>
<path d="M221.77 189.153L213.277 177.451L207.614 169.651L207.576 157.922L213.161 142.265L227.202 126.58L249.672 103.048L260.92 95.192L269.375 95.1642L269.426 110.803L255.386 126.488L235.721 146.1L227.305 157.857L230.161 169.577L238.655 181.278L247.149 192.979L250.006 204.699L252.875 220.328L252.952 243.786L247.38 263.352L241.782 275.1L233.378 290.766L224.985 310.342L233.493 325.952L250.455 341.535L256.143 357.155L259.038 380.604L259.114 404.062L253.543 423.628L247.97 443.195L236.774 466.69L217.197 513.67L194.65 513.744L205.848 490.249L217.03 462.845L228.203 431.531L239.387 404.126L239.323 384.578L236.44 365.039L227.933 349.429L212.612 329.124L205.258 310.406L213.649 290.831L227.677 271.236L233.224 243.85L233.147 220.393L230.277 204.763L221.77 189.153Z" fill="white" stroke="#333333"/>
<line x1="232.599" y1="482.594" x2="216.291" y2="482.647" stroke="#333333" stroke-width="4"/>
<line x1="232.508" y1="455.071" x2="227.072" y2="455.089" stroke="#333333" stroke-width="4"/>
<line x1="243.325" y1="438.523" x2="227.018" y2="438.577" stroke="#333333" stroke-width="4"/>
<line x1="245.227" y1="408.995" x2="245.245" y2="414.5" stroke="#333333" stroke-width="4"/>
<line x1="259.468" y1="388.932" x2="243.16" y2="388.985" stroke="#333333" stroke-width="4"/>
<line x1="253.944" y1="361.429" x2="237.636" y2="361.482" stroke="#333333" stroke-width="4"/>
<line x1="237.564" y1="339.463" x2="226.692" y2="339.499" stroke="#333333" stroke-width="4"/>
<line x1="226.602" y1="311.977" x2="215.73" y2="312.012" stroke="#333333" stroke-width="4"/>
<line x1="231.964" y1="289.943" x2="221.092" y2="289.979" stroke="#333333" stroke-width="4"/>
<line x1="242.747" y1="262.384" x2="237.311" y2="262.402" stroke="#333333" stroke-width="4"/>
<line x1="248.11" y1="240.348" x2="242.674" y2="240.365" stroke="#333333" stroke-width="4"/>
<line x1="242.583" y1="212.845" x2="237.147" y2="212.863" stroke="#333333" stroke-width="4"/>
<line x1="237.075" y1="190.846" x2="231.639" y2="190.864" stroke="#333333" stroke-width="4"/>
<line x1="226.15" y1="174.37" x2="220.714" y2="174.388" stroke="#333333" stroke-width="4"/>
<line x1="226.096" y1="157.856" x2="215.224" y2="157.892" stroke="#333333" stroke-width="4"/>
<line y1="-2" x2="12.1858" y2="-2" transform="matrix(-0.893637 -0.44879 0.439782 -0.898104 242.343 139.287)" stroke="#333333" stroke-width="4"/>
<line y1="-2" x2="17.3855" y2="-2" transform="matrix(-0.315783 -0.948831 0.946423 -0.322929 253.195 133.749)" stroke="#333333" stroke-width="4"/>
<line x1="258.57" y1="115.218" x2="264.006" y2="115.2" stroke="#333333" stroke-width="4"/>
<path d="M170.229 768.846C170.29 771.088 170.937 773.115 172.171 774.926C173.458 776.683 175.118 778.36 177.152 779.955C179.239 781.549 181.594 783.116 184.214 784.656C186.835 786.142 189.51 787.735 192.238 789.434C195.019 791.08 197.721 792.886 200.344 794.853C202.966 796.82 205.322 799.054 207.413 801.557C209.503 804.059 211.194 806.883 212.485 810.028C213.777 813.174 214.483 816.748 214.603 820.752L214.605 821.392C214.619 825.77 214.098 829.589 213.041 832.849C211.984 836.109 210.578 838.916 208.824 841.271C207.07 843.626 205.021 845.581 202.678 847.137C200.333 848.639 197.855 849.849 195.242 850.765C192.683 851.681 190.069 852.33 187.401 852.712C184.786 853.095 182.304 853.316 179.956 853.377L179.155 853.38C174.617 853.395 170.638 852.954 167.219 852.058C163.799 851.162 160.859 849.97 158.398 848.483C155.938 846.943 153.877 845.188 152.215 843.218C150.607 841.248 149.319 839.224 148.351 837.145C147.383 835.013 146.683 832.906 146.249 830.826C145.815 828.745 145.595 826.797 145.589 824.982C145.583 823.114 145.898 821.484 146.534 820.094C147.17 818.704 147.994 817.58 149.005 816.723C150.07 815.812 151.269 815.141 152.602 814.709C153.989 814.278 155.429 814.059 156.924 814.054C158.312 814.05 159.728 814.259 161.17 814.681C162.667 815.103 164.003 815.766 165.181 816.67C166.411 817.52 167.403 818.638 168.155 820.023C168.96 821.355 169.392 822.929 169.451 824.744C169.571 828.747 170.488 831.494 172.201 832.983C173.914 834.419 176.372 835.131 179.575 835.121C181.177 835.062 182.644 834.87 183.978 834.546C185.365 834.167 186.537 833.55 187.495 832.692C188.453 831.782 189.197 830.605 189.726 829.162C190.308 827.665 190.596 825.795 190.588 823.553C190.579 820.777 189.93 818.27 188.642 816.032C187.407 813.794 185.771 811.717 183.736 809.802C181.702 807.887 179.373 806.08 176.752 804.38C174.13 802.627 171.455 800.9 168.727 799.201C165.999 797.448 163.323 795.642 160.701 793.782C158.133 791.869 155.803 789.794 153.714 787.559C151.625 785.324 149.935 782.847 148.645 780.128C147.408 777.41 146.757 774.315 146.692 770.846L146.688 769.564C146.723 763.852 147.455 759.098 148.884 755.303C150.366 751.508 152.518 748.484 155.34 746.233C158.216 743.981 161.734 742.395 165.895 741.474C170.056 740.499 174.832 740.003 180.224 739.985L182.306 739.978C187.218 739.962 191.383 740.483 194.803 741.539C198.224 742.595 201.057 743.948 203.305 745.595C205.606 747.242 207.401 749.105 208.689 751.183C210.03 753.261 211.025 755.313 211.672 757.339C212.319 759.366 212.726 761.26 212.892 763.021C213.058 764.782 213.142 766.196 213.146 767.264C213.151 768.866 212.836 770.335 212.199 771.671C211.616 772.955 210.792 774.052 209.728 774.963C208.716 775.874 207.491 776.598 206.051 777.137C204.665 777.622 203.144 777.867 201.489 777.873C200.208 777.877 198.926 777.641 197.643 777.165C196.36 776.635 195.21 775.971 194.193 775.174C193.176 774.377 192.346 773.472 191.702 772.459C191.058 771.394 190.734 770.327 190.73 769.26C190.716 764.882 189.905 761.842 188.298 760.139C186.744 758.435 184.446 757.589 181.403 757.599C179.962 757.603 178.547 757.688 177.16 757.853C175.826 758.017 174.626 758.475 173.561 759.226C172.549 759.923 171.725 761.02 171.089 762.517C170.507 764.014 170.22 766.124 170.229 768.846ZM286.891 740.756C288.386 740.751 289.775 741.014 291.058 741.543C292.394 742.073 293.571 742.816 294.589 743.774C295.659 744.678 296.571 745.796 297.322 747.128C298.074 748.407 298.612 749.793 298.938 751.287L312.921 815.144L315.643 815.135C317.851 804.717 320.112 794.086 322.425 783.241C324.739 772.343 327.053 761.658 329.367 751.187C329.841 749.157 330.556 747.313 331.511 745.655C332.361 744.264 333.531 743.005 335.022 741.879C336.566 740.7 338.566 740.106 341.022 740.098C342.891 740.092 344.52 740.434 345.91 741.123C347.354 741.759 348.531 742.609 349.442 743.674C350.406 744.685 351.104 745.804 351.535 747.03C352.02 748.257 352.264 749.457 352.268 750.631C352.27 751.272 352.245 751.886 352.194 752.474C352.142 753.061 352.064 753.568 351.958 753.996C351.853 754.53 351.748 755.011 351.643 755.438L329.988 842.635C329.193 844.453 328.13 846.058 326.8 847.45C325.683 848.682 324.219 849.807 322.407 850.828C320.649 851.794 318.435 852.282 315.765 852.291L313.043 852.3C310.373 852.309 308.183 851.835 306.472 850.88C304.76 849.871 303.395 848.755 302.377 847.53C301.198 846.146 300.311 844.547 299.718 842.734L288.353 795.845L285.631 795.854C283.947 803.441 282.131 811.268 280.182 819.335C278.287 827.403 276.471 835.23 274.734 842.816C274.046 844.634 273.117 846.238 271.947 847.63C270.883 848.861 269.499 849.987 267.794 851.007C266.142 851.973 263.982 852.461 261.313 852.47L258.59 852.479C255.921 852.487 253.65 852.014 251.779 851.06C249.96 850.051 248.462 848.935 247.283 847.711C245.891 846.328 244.791 844.73 243.984 842.917L222.077 755.864C221.969 755.437 221.861 754.957 221.752 754.423C221.644 753.997 221.562 753.49 221.507 752.903C221.452 752.315 221.423 751.702 221.421 751.061C221.417 749.887 221.627 748.685 222.05 747.455C222.526 746.226 223.216 745.103 224.121 744.085C225.078 743.014 226.25 742.156 227.636 741.511C229.075 740.813 230.728 740.46 232.597 740.454C235.053 740.446 237.03 741.027 238.529 742.196C240.08 743.312 241.286 744.563 242.144 745.948C243.111 747.6 243.837 749.439 244.325 751.466L258.468 815.323L261.191 815.314C262.189 810.399 263.266 805.244 264.423 799.848C265.58 794.399 266.736 788.923 267.893 783.42C269.102 777.864 270.285 772.388 271.442 766.993C272.652 761.543 273.809 756.334 274.914 751.366C275.652 748.32 277.085 745.807 279.214 743.824C281.343 741.789 283.902 740.766 286.891 740.756ZM361.306 771.743C361.289 766.618 362.022 762.264 363.505 758.683C364.988 755.047 366.873 752.025 369.161 749.615C371.502 747.205 374.058 745.328 376.83 743.984C379.655 742.587 382.374 741.537 384.988 740.835C387.655 740.132 390.056 739.697 392.191 739.53C394.325 739.362 395.9 739.277 396.914 739.274L399.637 739.265C400.651 739.262 402.226 739.337 404.362 739.49C406.498 739.643 408.875 740.062 411.493 740.748C414.112 741.433 416.811 742.465 419.592 743.844C422.425 745.169 424.967 747.03 427.217 749.424C429.521 751.819 431.399 754.829 432.852 758.455C434.359 762.027 435.121 766.375 435.137 771.5L435.295 819.387C435.312 824.672 434.579 829.159 433.097 832.847C431.667 836.535 429.809 839.611 427.521 842.074C425.287 844.537 422.758 846.494 419.933 847.945C417.162 849.342 414.469 850.392 411.856 851.095C409.242 851.797 406.868 852.232 404.733 852.399C402.598 852.566 401.024 852.652 400.009 852.655L397.287 852.664C396.272 852.667 394.697 852.592 392.561 852.439C390.425 852.286 388.022 851.867 385.35 851.182C382.732 850.496 380.006 849.464 377.172 848.085C374.391 846.653 371.822 844.713 369.465 842.265C367.162 839.817 365.256 836.753 363.749 833.075C362.243 829.396 361.48 824.914 361.463 819.629L361.306 771.743ZM388.059 822.585C388.172 824.56 388.632 826.293 389.437 827.785C390.136 829.118 391.181 830.315 392.572 831.379C394.017 832.441 396.047 832.969 398.663 832.96C401.226 832.952 403.199 832.411 404.584 831.339C405.968 830.267 407.005 829.062 407.695 827.725C408.437 826.228 408.886 824.492 409.039 822.516L408.868 770.305C408.701 768.384 408.242 766.65 407.489 765.105C406.791 763.826 405.746 762.655 404.355 761.591C402.963 760.475 400.986 759.921 398.424 759.929C395.808 759.938 393.781 760.505 392.343 761.631C390.959 762.703 389.921 763.881 389.232 765.165C388.436 766.715 387.988 768.452 387.887 770.374L388.059 822.585ZM451.633 771.446C451.617 766.321 452.35 761.968 453.833 758.386C455.316 754.751 457.201 751.728 459.489 749.319C461.83 746.909 464.386 745.032 467.158 743.688C469.983 742.291 472.702 741.241 475.315 740.538C477.982 739.835 480.383 739.4 482.518 739.233C484.653 739.066 486.228 738.981 487.242 738.977L489.965 738.968C490.979 738.965 492.554 739.04 494.69 739.193C496.826 739.346 499.203 739.766 501.821 740.451C504.439 741.136 507.139 742.169 509.919 743.547C512.753 744.873 515.295 746.733 517.545 749.128C519.848 751.523 521.727 754.533 523.18 758.158C524.687 761.73 525.448 766.079 525.465 771.204L525.622 819.09C525.64 824.375 524.907 828.862 523.424 832.551C521.995 836.239 520.137 839.315 517.849 841.778C515.615 844.241 513.086 846.198 510.261 847.648C507.489 849.046 504.797 850.095 502.183 850.798C499.57 851.501 497.196 851.936 495.061 852.103C492.926 852.27 491.351 852.355 490.337 852.358L487.614 852.367C486.6 852.371 485.025 852.296 482.889 852.143C480.753 851.99 478.349 851.57 475.678 850.885C473.059 850.2 470.333 849.168 467.499 847.789C464.719 846.357 462.15 844.416 459.793 841.968C457.489 839.52 455.584 836.457 454.077 832.778C452.57 829.1 451.808 824.618 451.791 819.332L451.633 771.446ZM478.386 822.288C478.5 824.263 478.959 825.997 479.765 827.489C480.463 828.821 481.508 830.019 482.9 831.082C484.345 832.145 486.375 832.672 488.991 832.664C491.553 832.655 493.527 832.115 494.911 831.043C496.296 829.97 497.333 828.766 498.023 827.429C498.765 825.932 499.213 824.195 499.367 822.219L499.195 770.009C499.029 768.087 498.57 766.354 497.817 764.808C497.119 763.529 496.074 762.358 494.682 761.295C493.291 760.178 491.314 759.624 488.751 759.633C486.135 759.641 484.109 760.208 482.671 761.334C481.286 762.407 480.249 763.584 479.559 764.868C478.764 766.419 478.316 768.155 478.215 770.077L478.386 822.288ZM569.467 807.255L569.552 833.2C569.559 835.495 569.487 837.738 569.334 839.927C569.234 842.116 568.787 844.066 567.991 845.777C567.25 847.488 566.053 848.88 564.402 849.953C562.75 850.973 560.376 851.488 557.28 851.498C554.29 851.508 551.966 851.008 550.308 849.999C548.703 848.937 547.524 847.553 546.771 845.847C546.018 844.141 545.558 842.194 545.39 840.006C545.276 837.817 545.216 835.575 545.208 833.28L544.96 757.686C544.952 755.391 544.998 753.149 545.098 750.959C545.251 748.77 545.698 746.82 546.44 745.109C547.182 743.398 548.352 742.033 549.95 741.014C551.602 739.941 553.922 739.399 556.912 739.389L583.337 739.303C589.958 739.601 595.888 740.97 601.128 743.408C603.374 744.469 605.54 745.796 607.628 747.391C609.768 748.985 611.67 750.954 613.333 753.298C615.048 755.588 616.419 758.333 617.444 761.532C618.468 764.679 618.987 768.334 619.001 772.498C619.02 778.21 618.129 783.232 616.328 787.562C614.58 791.838 612.003 795.45 608.596 798.398C605.242 801.292 601.112 803.494 596.205 805.005C591.352 806.462 585.856 807.201 579.717 807.221L569.467 807.255ZM580.295 788.16C582.963 787.992 585.364 787.343 587.495 786.215C588.401 785.731 589.28 785.115 590.132 784.364C590.983 783.614 591.755 782.704 592.445 781.634C593.135 780.511 593.665 779.201 594.034 777.705C594.456 776.209 594.664 774.5 594.658 772.578C594.652 770.763 594.433 769.189 594.001 767.856C593.623 766.469 593.112 765.296 592.468 764.337C591.824 763.325 591.101 762.473 590.298 761.782C589.495 761.09 588.665 760.506 587.81 760.028C585.778 759.021 583.507 758.414 580.997 758.209L569.306 758.247L569.404 788.196L580.295 788.16Z" fill="#333333"/>
</svg>
