<svg width="1172" height="399" viewBox="0 0 1172 399" fill="none" xmlns="http://www.w3.org/2000/svg">
<path d="M64.4736 21.3506V128H42.0029V21.3506H1.72852V1.38623H106.563V21.3506H64.4736ZM113.996 81.5029C113.996 67.3867 118.058 55.8921 126.182 47.019C134.363 38.146 145.138 33.7095 158.505 33.7095C172.563 33.7095 183.482 37.9731 191.26 46.5005C199.039 55.0278 202.928 66.6953 202.928 81.5029C202.928 96.2529 198.952 107.978 191.001 116.678C183.107 125.378 172.275 129.729 158.505 129.729C144.446 129.729 133.499 125.35 125.663 116.592C117.885 107.776 113.996 96.0801 113.996 81.5029ZM136.466 81.5029C136.466 101.899 143.812 112.098 158.505 112.098C165.246 112.098 170.576 109.447 174.494 104.146C178.469 98.8457 180.457 91.2979 180.457 81.5029C180.457 61.3945 173.14 51.3403 158.505 51.3403C151.764 51.3403 146.405 53.9907 142.43 59.2915C138.454 64.5923 136.466 71.9961 136.466 81.5029ZM279.933 128.086V120.308C276.879 122.901 272.673 125.119 267.315 126.963C261.957 128.807 257.03 129.729 252.536 129.729C231.045 129.729 220.299 118.32 220.299 95.5039V35.438H241.906V93.8618C241.906 105.731 247.235 111.666 257.895 111.666C262.792 111.666 267.344 110.398 271.55 107.863C275.756 105.328 278.55 102.389 279.933 99.0474V35.438H301.54V128.086H279.933ZM378.372 55.5752C374.512 53.04 370.277 51.7725 365.667 51.7725C360.655 51.7725 356.189 54.0483 352.271 58.6001C348.411 63.1519 346.481 68.7119 346.481 75.2803V128H324.875V35.438H346.481V43.9077C352.531 37.1089 360.568 33.7095 370.594 33.7095C377.969 33.7095 383.615 34.833 387.533 37.0801L378.372 55.5752ZM483.379 128H455.291V1.47266C473.21 0.838867 484.474 0.521973 489.083 0.521973C507.521 0.521973 522.127 5.93799 532.901 16.77C543.733 27.5444 549.149 41.8623 549.149 59.7236C549.149 105.241 527.226 128 483.379 128ZM477.762 21.0913V107.517C481.392 107.863 485.31 108.036 489.516 108.036C500.866 108.036 509.739 103.916 516.135 95.6768C522.588 87.4375 525.814 75.9141 525.814 61.1064C525.814 34.0264 513.225 20.4863 488.046 20.4863C485.626 20.4863 482.198 20.688 477.762 21.0913ZM650.354 88.3306H584.238C584.642 95.7056 587.177 101.438 591.844 105.529C596.511 109.62 602.791 111.666 610.685 111.666C620.537 111.666 628.027 109.102 633.155 103.974L641.539 120.481C633.933 126.646 622.583 129.729 607.487 129.729C593.371 129.729 582.193 125.609 573.954 117.37C565.772 109.073 561.681 97.5205 561.681 82.7129C561.681 68.1357 566.175 56.3242 575.164 47.2783C584.209 38.2324 595.042 33.7095 607.66 33.7095C621.084 33.7095 631.859 37.7139 639.983 45.7227C648.107 53.7314 652.169 63.9297 652.169 76.3174C652.169 78.9678 651.564 82.9722 650.354 88.3306ZM585.016 72.0825H630.476C628.978 58.5425 621.488 51.7725 608.005 51.7725C595.675 51.7725 588.012 58.5425 585.016 72.0825Z" fill="black"/>
<path d="M529.51 373.991L506.312 347.388V305.885L517.877 266.015L549.443 246.08L582.709 266.015L603.05 288.4L617.608 266.015L640.874 246.08L669.107 237.78L684.005 246.08L694.005 266.015L701.284 288.4L699.516 305.885V345.551L681.284 368.072" stroke="black" stroke-width="19" stroke-linecap="round"/>
<path d="M548.312 373.99L573.442 366.573L596.324 351.806L601.499 340.034L606.675 313.495L620.704 340.034L628.127 351.806L642.156 366.573L659.862 373.99" stroke="#839197" stroke-width="19" stroke-linecap="round" stroke-linejoin="round"/>
<path d="M588.578 293.651L595.88 302.43L603.114 306.752L610.348 305.311" stroke="#839197" stroke-width="19" stroke-linecap="round"/>
<path d="M652.887 270.531V307.329M652.887 344.128V307.329M652.887 307.329H670.734M670.734 307.329H625.954M670.734 307.329H676.239" stroke="#F9BD13" stroke-width="17" stroke-linecap="round"/>
<path d="M550.199 276.504V313.302M550.199 350.1V313.302M550.199 313.302H568.046M568.046 313.302H523.266M568.046 313.302H573.551" stroke="#F9BD13" stroke-width="17" stroke-linecap="round"/>
<path d="M575.796 294.731L549.8 312.698M526.321 328.962L549.8 312.698M549.8 312.698L560.858 330.722M560.858 330.722L529.589 284.907M560.858 330.722L570.726 344.803" stroke="#5DBA00" stroke-width="17" stroke-linecap="round"/>
<path d="M679.666 287.55L653.67 305.516M630.191 321.781L653.67 305.516M653.67 305.516L664.728 323.54M664.728 323.54L633.459 277.726M664.728 323.54L674.596 337.621" stroke="#5DBA00" stroke-width="17" stroke-linecap="round"/>
<path d="M609.543 264.273L600.289 282.689L574.365 257.613L579.4 252.584L584.367 243.342H579.4H546.74L542.522 274.33L536.67 288.533L527.485 295.192L523.266 288.533V274.33L532.452 252.584V236.683L527.485 225.81V214.937L532.452 209.093L542.522 204.064H620.361L629.615 214.937V225.81L609.543 264.273Z" fill="black"/>
<ellipse cx="506.215" cy="197.803" rx="17.0505" ry="15.3165" fill="black"/>
<path d="M823.438 309.656H748.358C748.816 318.031 751.695 324.541 756.995 329.186C762.294 333.832 769.426 336.155 778.39 336.155C789.579 336.155 798.084 333.243 803.908 327.42L813.428 346.165C804.791 353.166 791.901 356.667 774.759 356.667C758.729 356.667 746.035 351.989 736.679 342.632C727.388 333.21 722.742 320.092 722.742 303.276C722.742 286.722 727.846 273.309 738.053 263.037C748.325 252.764 760.626 247.628 774.955 247.628C790.2 247.628 802.436 252.176 811.661 261.27C820.887 270.365 825.5 281.946 825.5 296.013C825.5 299.023 824.812 303.571 823.438 309.656ZM749.241 291.204H800.865C799.164 275.828 790.658 268.14 775.348 268.14C761.346 268.14 752.644 275.828 749.241 291.204ZM911.761 344.202C909.536 347.866 905.643 350.876 900.082 353.232C894.585 355.522 888.828 356.667 882.808 356.667C871.489 356.667 862.59 353.853 856.113 348.226C849.635 342.534 846.396 334.486 846.396 324.083C846.396 311.913 850.944 302.393 860.039 295.523C869.199 288.653 882.186 285.218 899.002 285.218C901.881 285.218 905.283 285.708 909.209 286.69C909.209 274.323 901.39 268.14 885.752 268.14C876.527 268.14 868.806 269.678 862.59 272.753L857.29 253.713C865.731 249.656 875.774 247.628 887.421 247.628C903.451 247.628 915.196 251.292 922.655 258.62C930.114 265.883 933.843 279.689 933.843 300.037V322.512C933.843 336.514 936.657 345.315 942.284 348.913C940.255 352.447 937.998 354.606 935.512 355.391C933.025 356.241 930.179 356.667 926.973 356.667C923.44 356.667 920.267 355.358 917.453 352.741C914.64 350.124 912.742 347.278 911.761 344.202ZM909.405 305.239C905.218 304.388 902.077 303.963 899.983 303.963C880.616 303.963 870.933 310.31 870.933 323.003C870.933 332.425 876.396 337.136 887.323 337.136C902.044 337.136 909.405 329.775 909.405 315.053V305.239ZM972.21 269.318H960.04V249.591H972.21V228.196L996.746 219.166V249.591H1025.6V269.318H996.746V315.348C996.746 322.872 997.924 328.205 1000.28 331.345C1002.63 334.421 1006.76 335.958 1012.65 335.958C1018.53 335.958 1024.03 334.355 1029.13 331.149V353.722C1023.44 355.685 1015.33 356.667 1004.79 356.667C994.325 356.667 986.277 353.722 980.65 347.834C975.023 341.88 972.21 333.439 972.21 322.512V269.318ZM1124.23 354.704V289.928C1124.23 283.451 1122.2 278.249 1118.14 274.323C1114.09 270.398 1108.79 268.435 1102.24 268.435C1098.19 268.435 1094.1 269.547 1089.98 271.772C1085.85 273.931 1082.91 276.417 1081.14 279.231V354.704H1056.21V210.431L1081.14 204.543V256.265C1087.49 250.507 1096.22 247.628 1107.35 247.628C1120.5 247.628 1130.71 251.292 1137.97 258.62C1145.23 265.883 1148.86 276.319 1148.86 289.928V354.704H1124.23Z" fill="black"/>
</svg>
